<svg width="6908" height="2665" viewBox="0 0 6908 2665" fill="none" xmlns="http://www.w3.org/2000/svg">
<path d="M231 760V184.5H1432L1708.5 461" stroke="#910000" stroke-width="10"/>
<path d="M561.5 1011.5H1554" stroke="#910000" stroke-width="10"/>
<path d="M216.5 1364V2148H1684.5" stroke="#910000" stroke-width="10"/>
<path d="M6426.5 1311V2146.5H5087" stroke="#910000" stroke-width="10"/>
<path d="M6328.5 699.5V5.5H5067.5L4846 224.5" stroke="#910000" stroke-width="10"/>
<path d="M3314 877V1087C3314 1125.68 3243.47 1157 3156.5 1157C3069.53 1157 2999 1125.68 2999 1087V877" stroke="white" stroke-width="10" stroke-linecap="round" stroke-linejoin="round"/>
<path d="M3314 982C3314 1020.68 3243.47 1052 3156.5 1052C3069.52 1052 2999 1020.68 2999 982M3489 842H3594C3612.57 842 3630.37 849.375 3643.5 862.503C3656.62 875.63 3664 893.435 3664 912V1017M3209 1472H3104C3085.43 1472 3067.63 1464.63 3054.5 1451.5C3041.37 1438.37 3034 1420.57 3034 1402V1297M3314 877C3314 915.675 3243.47 947 3156.5 947C3069.52 947 2999 915.675 2999 877C2999 838.325 3069.52 807 3156.5 807C3243.47 807 3314 838.325 3314 877Z" stroke="white" stroke-width="10" stroke-linecap="round" stroke-linejoin="round"/>
<path d="M3541.5 1332C3589.82 1332 3629 1292.83 3629 1244.5C3629 1196.18 3589.82 1157 3541.5 1157C3493.18 1157 3454 1196.18 3454 1244.5C3454 1292.83 3493.18 1332 3541.5 1332Z" stroke="white" stroke-width="10" stroke-linecap="round" stroke-linejoin="round"/>
<path d="M3699 1507H3384C3384 1486.32 3388.07 1465.84 3395.99 1446.73C3403.9 1427.62 3415.51 1410.26 3430.13 1395.63C3444.76 1381.01 3462.12 1369.4 3481.23 1361.49C3500.34 1353.57 3520.82 1349.5 3541.5 1349.5C3562.18 1349.5 3582.66 1353.57 3601.77 1361.49C3620.88 1369.4 3638.24 1381.01 3652.87 1395.63C3667.49 1410.26 3679.1 1427.62 3687.01 1446.73C3694.93 1465.84 3699 1486.32 3699 1507Z" stroke="white" stroke-width="10" stroke-linecap="round" stroke-linejoin="round"/>
<rect x="1620" y="85" width="3544" height="2493" rx="995" stroke="#008000" stroke-width="10"/>
<rect x="1559" y="11" width="3655" height="2649" rx="995" stroke="#0000FF" stroke-width="10"/>
<path d="M11.25 1243V1145.5H25.25V1184.62H74.75V1145.5H88.75V1243H74.75V1196.37H25.25V1243H11.25ZM102.049 1243V1242.25L133.799 1145.5H156.299L188.049 1242.25V1243H173.424L146.049 1156.38H143.049L115.674 1243H102.049ZM122.674 1214.63L126.549 1202.87H162.549L166.424 1214.63H122.674ZM235.5 1244.88C222.083 1244.88 211.583 1240.46 204 1231.62C196.5 1222.71 192.75 1210.25 192.75 1194.25C192.75 1178.17 196.542 1165.71 204.125 1156.88C211.708 1148.04 222.167 1143.62 235.5 1143.62C243.25 1143.62 249.958 1145.12 255.625 1148.13C261.375 1151.04 265.917 1155.17 269.25 1160.5C272.667 1165.83 274.708 1172.08 275.375 1179.25H261.25C260.417 1171.83 257.708 1165.92 253.125 1161.5C248.625 1157.08 242.667 1154.87 235.25 1154.87C226.167 1154.87 219.167 1158.33 214.25 1165.25C209.417 1172.08 207 1181.75 207 1194.25C207 1206.83 209.458 1216.54 214.375 1223.37C219.375 1230.21 226.292 1233.62 235.125 1233.62C242.958 1233.62 249.083 1231.29 253.5 1226.62C258 1221.96 260.583 1216.17 261.25 1209.25H275.375C274.708 1216.33 272.667 1222.58 269.25 1228C265.917 1233.33 261.417 1237.5 255.75 1240.5C250.083 1243.42 243.333 1244.88 235.5 1244.88ZM288.691 1243V1145.5H302.441V1186.75H309.941L342.691 1145.5H358.316V1146.25L320.941 1192.12L361.441 1242.25V1243H344.441L309.941 1199.25H302.441V1243H288.691ZM374.971 1243V1145.5H437.471V1157.25H388.971V1184.87H427.221V1196.12H388.971V1231.25H438.221V1243H374.971ZM456.27 1243V1145.5H492.645C500.895 1145.5 507.52 1146.67 512.52 1149C517.52 1151.33 521.145 1154.46 523.395 1158.38C525.645 1162.29 526.77 1166.67 526.77 1171.5C526.77 1177.83 524.978 1183.17 521.395 1187.5C517.895 1191.83 512.686 1194.83 505.77 1196.5L529.52 1242.25V1243H514.77L491.895 1198.37H470.02V1243H456.27ZM470.02 1187.62H491.77C499.27 1187.62 504.603 1186.29 507.77 1183.62C510.936 1180.87 512.52 1177.04 512.52 1172.12C512.52 1167.12 510.936 1163.33 507.77 1160.75C504.603 1158.08 499.27 1156.75 491.77 1156.75H470.02V1187.62ZM577.096 1244.88C570.762 1244.88 565.179 1244 560.346 1242.25C555.596 1240.5 551.554 1238.08 548.221 1235C544.971 1231.83 542.429 1228.17 540.596 1224C538.846 1219.83 537.804 1215.33 537.471 1210.5H550.971C551.221 1214.33 552.346 1218.04 554.346 1221.63C556.346 1225.12 559.262 1228 563.096 1230.25C567.012 1232.5 571.887 1233.62 577.721 1233.62C584.054 1233.62 589.012 1232.25 592.596 1229.5C596.179 1226.67 597.971 1222.83 597.971 1218C597.971 1213.17 596.221 1209.46 592.721 1206.87C589.304 1204.29 584.971 1202.12 579.721 1200.38L570.346 1197.25C565.596 1195.67 561.054 1193.83 556.721 1191.75C552.387 1189.58 548.846 1186.75 546.096 1183.25C543.346 1179.75 541.971 1175.17 541.971 1169.5C541.971 1164 543.304 1159.33 545.971 1155.5C548.637 1151.67 552.346 1148.75 557.096 1146.75C561.846 1144.67 567.346 1143.62 573.596 1143.62C581.179 1143.62 587.429 1145 592.346 1147.75C597.262 1150.42 600.971 1153.96 603.471 1158.38C605.971 1162.79 607.387 1167.67 607.721 1173H594.221C593.971 1169.92 593.096 1167 591.596 1164.25C590.179 1161.5 587.971 1159.25 584.971 1157.5C581.971 1155.75 578.012 1154.87 573.096 1154.87C567.762 1154.87 563.471 1156.08 560.221 1158.5C557.054 1160.83 555.471 1164.08 555.471 1168.25C555.471 1172.92 557.304 1176.5 560.971 1179C564.721 1181.5 569.179 1183.58 574.346 1185.25L583.846 1188.37C588.596 1189.88 593.054 1191.71 597.221 1193.87C601.471 1196.04 604.887 1198.92 607.471 1202.5C610.137 1206 611.471 1210.71 611.471 1216.62C611.471 1225.62 608.346 1232.58 602.096 1237.5C595.846 1242.42 587.512 1244.88 577.096 1244.88Z" fill="#910000"/>
<path d="M6109.25 1243V1145.5H6123.25V1184.62H6172.75V1145.5H6186.75V1243H6172.75V1196.37H6123.25V1243H6109.25ZM6200.05 1243V1242.25L6231.8 1145.5H6254.3L6286.05 1242.25V1243H6271.42L6244.05 1156.38H6241.05L6213.67 1243H6200.05ZM6220.67 1214.63L6224.55 1202.87H6260.55L6264.42 1214.63H6220.67ZM6333.5 1244.88C6320.08 1244.88 6309.58 1240.46 6302 1231.62C6294.5 1222.71 6290.75 1210.25 6290.75 1194.25C6290.75 1178.17 6294.54 1165.71 6302.13 1156.88C6309.71 1148.04 6320.17 1143.62 6333.5 1143.62C6341.25 1143.62 6347.96 1145.12 6353.63 1148.13C6359.37 1151.04 6363.92 1155.17 6367.25 1160.5C6370.67 1165.83 6372.71 1172.08 6373.38 1179.25H6359.25C6358.42 1171.83 6355.71 1165.92 6351.12 1161.5C6346.63 1157.08 6340.67 1154.87 6333.25 1154.87C6324.17 1154.87 6317.17 1158.33 6312.25 1165.25C6307.42 1172.08 6305 1181.75 6305 1194.25C6305 1206.83 6307.46 1216.54 6312.38 1223.37C6317.38 1230.21 6324.29 1233.62 6333.12 1233.62C6340.96 1233.62 6347.08 1231.29 6351.5 1226.62C6356 1221.96 6358.58 1216.17 6359.25 1209.25H6373.38C6372.71 1216.33 6370.67 1222.58 6367.25 1228C6363.92 1233.33 6359.42 1237.5 6353.75 1240.5C6348.08 1243.42 6341.33 1244.88 6333.5 1244.88ZM6386.69 1243V1145.5H6400.44V1186.75H6407.94L6440.69 1145.5H6456.32V1146.25L6418.94 1192.12L6459.44 1242.25V1243H6442.44L6407.94 1199.25H6400.44V1243H6386.69ZM6472.97 1243V1145.5H6535.47V1157.25H6486.97V1184.87H6525.22V1196.12H6486.97V1231.25H6536.22V1243H6472.97ZM6554.27 1243V1145.5H6590.64C6598.89 1145.5 6605.52 1146.67 6610.52 1149C6615.52 1151.33 6619.14 1154.46 6621.39 1158.38C6623.64 1162.29 6624.77 1166.67 6624.77 1171.5C6624.77 1177.83 6622.98 1183.17 6619.39 1187.5C6615.89 1191.83 6610.69 1194.83 6603.77 1196.5L6627.52 1242.25V1243H6612.77L6589.89 1198.37H6568.02V1243H6554.27ZM6568.02 1187.62H6589.77C6597.27 1187.62 6602.6 1186.29 6605.77 1183.62C6608.94 1180.87 6610.52 1177.04 6610.52 1172.12C6610.52 1167.12 6608.94 1163.33 6605.77 1160.75C6602.6 1158.08 6597.27 1156.75 6589.77 1156.75H6568.02V1187.62ZM6675.1 1244.88C6668.76 1244.88 6663.18 1244 6658.35 1242.25C6653.6 1240.5 6649.55 1238.08 6646.22 1235C6642.97 1231.83 6640.43 1228.17 6638.6 1224C6636.85 1219.83 6635.8 1215.33 6635.47 1210.5H6648.97C6649.22 1214.33 6650.35 1218.04 6652.35 1221.63C6654.35 1225.12 6657.26 1228 6661.1 1230.25C6665.01 1232.5 6669.89 1233.62 6675.72 1233.62C6682.05 1233.62 6687.01 1232.25 6690.6 1229.5C6694.18 1226.67 6695.97 1222.83 6695.97 1218C6695.97 1213.17 6694.22 1209.46 6690.72 1206.87C6687.3 1204.29 6682.97 1202.12 6677.72 1200.38L6668.35 1197.25C6663.6 1195.67 6659.05 1193.83 6654.72 1191.75C6650.39 1189.58 6646.85 1186.75 6644.1 1183.25C6641.35 1179.75 6639.97 1175.17 6639.97 1169.5C6639.97 1164 6641.3 1159.33 6643.97 1155.5C6646.64 1151.67 6650.35 1148.75 6655.1 1146.75C6659.85 1144.67 6665.35 1143.62 6671.6 1143.62C6679.18 1143.62 6685.43 1145 6690.35 1147.75C6695.26 1150.42 6698.97 1153.96 6701.47 1158.38C6703.97 1162.79 6705.39 1167.67 6705.72 1173H6692.22C6691.97 1169.92 6691.1 1167 6689.6 1164.25C6688.18 1161.5 6685.97 1159.25 6682.97 1157.5C6679.97 1155.75 6676.01 1154.87 6671.1 1154.87C6665.76 1154.87 6661.47 1156.08 6658.22 1158.5C6655.05 1160.83 6653.47 1164.08 6653.47 1168.25C6653.47 1172.92 6655.3 1176.5 6658.97 1179C6662.72 1181.5 6667.18 1183.58 6672.35 1185.25L6681.85 1188.37C6686.6 1189.88 6691.05 1191.71 6695.22 1193.87C6699.47 1196.04 6702.89 1198.92 6705.47 1202.5C6708.14 1206 6709.47 1210.71 6709.47 1216.62C6709.47 1225.62 6706.35 1232.58 6700.1 1237.5C6693.85 1242.42 6685.51 1244.88 6675.1 1244.88Z" fill="#910000"/>
<path d="M6203 776.157C6203 773.553 6203.25 771.014 6203.75 768.538L6228.2 790.742L6255 760.266L6231.08 738.46C6234.31 737.538 6237.7 737 6241.23 737C6251.32 737.006 6260.99 741.097 6268.15 748.381C6275.31 755.665 6279.37 765.552 6279.45 775.888V776.157C6279.45 778.121 6279.31 780.041 6279.04 781.919L6308.85 808.963C6297.99 817.532 6289.35 828.7 6283.69 841.487L6252.78 813.458C6249.04 814.691 6245.15 815.318 6241.23 815.314C6231.09 815.307 6221.37 811.18 6214.2 803.838C6207.04 796.496 6203.01 786.54 6203 776.157ZM6464.77 938.701C6460.94 938.719 6457.28 939.269 6453.78 940.353L6424.93 914.18C6420.17 927.434 6412.37 939.32 6402.19 948.83L6427.1 971.431C6426.74 973.554 6426.56 975.704 6426.55 977.859C6426.56 983.959 6427.95 989.973 6430.63 995.422C6433.3 1000.87 6437.18 1005.61 6441.96 1009.25C6446.74 1012.89 6452.28 1015.34 6458.14 1016.4C6464.01 1017.46 6470.03 1017.11 6475.74 1015.36L6450.84 992.699L6477.59 962.416L6502.35 984.952C6502.77 982.648 6502.99 980.283 6503 977.859V977.526C6502.92 967.197 6498.85 957.321 6491.69 950.049C6484.53 942.776 6474.86 938.698 6464.77 938.701ZM6422.31 841.487L6453.22 813.458C6456.88 814.648 6460.74 815.314 6464.77 815.314C6470.42 815.306 6476 814.018 6481.1 811.542C6486.2 809.066 6490.7 805.464 6494.29 800.993C6497.87 796.523 6500.44 791.296 6501.82 785.686C6503.19 780.077 6503.34 774.226 6502.25 768.551L6477.8 790.755L6451 760.279L6474.92 738.473C6471.62 737.512 6468.21 737.021 6464.77 737.013C6454.68 737.019 6445.01 741.11 6437.85 748.394C6430.69 755.678 6426.63 765.565 6426.55 775.901V776.17C6426.55 778.133 6426.69 780.054 6426.96 781.932L6397.15 808.976C6408.01 817.545 6416.65 828.713 6422.31 841.5V841.487ZM6281.06 914.18L6252.22 940.353C6246.54 938.601 6240.54 938.229 6234.69 939.266C6228.84 940.303 6223.31 942.721 6218.54 946.328C6213.76 949.935 6209.87 954.633 6207.17 960.048C6204.48 965.463 6203.05 971.447 6203 977.526V977.859C6203 980.283 6203.22 982.648 6203.65 984.952L6228.42 962.416L6255.17 992.699L6230.26 1015.36C6235.97 1017.11 6241.99 1017.46 6247.86 1016.4C6253.72 1015.34 6259.26 1012.89 6264.04 1009.25C6268.82 1005.61 6272.7 1000.87 6275.37 995.422C6278.05 989.973 6279.44 983.959 6279.45 977.859C6279.44 975.704 6279.26 973.554 6278.9 971.431L6303.81 948.83C6293.62 939.321 6285.82 927.436 6281.06 914.18ZM6393.2 948.203C6394.4 950.072 6395.14 952.214 6395.36 954.443C6395.57 956.671 6395.25 958.92 6394.42 960.993C6393.6 963.067 6392.29 964.903 6390.62 966.342C6388.94 967.782 6386.95 968.781 6384.81 969.255C6382.68 969.728 6380.46 969.661 6378.35 969.058C6376.25 968.456 6374.32 967.337 6372.73 965.798C6371.14 964.26 6369.94 962.348 6369.24 960.228C6368.53 958.108 6368.35 955.844 6368.69 953.632H6366.29C6366.58 955.595 6366.46 957.601 6365.93 959.511C6365.39 961.421 6364.46 963.19 6363.2 964.698C6361.94 966.205 6360.37 967.415 6358.61 968.245C6356.85 969.074 6354.93 969.504 6352.99 969.504C6351.05 969.504 6349.14 969.074 6347.38 968.245C6345.61 967.415 6344.05 966.205 6342.79 964.698C6341.52 963.19 6340.59 961.421 6340.06 959.511C6339.53 957.601 6339.41 955.595 6339.7 953.632H6337.82C6338.07 955.615 6337.91 957.63 6337.34 959.544C6336.78 961.458 6335.82 963.227 6334.54 964.735C6333.26 966.242 6331.68 967.454 6329.9 968.291C6328.13 969.127 6326.2 969.569 6324.25 969.587C6316.7 969.587 6310.57 963.184 6310.57 955.309C6310.57 952.62 6311.29 950.123 6312.53 947.985C6293.86 933.362 6281.6 908.917 6281.6 881.233C6281.6 836.455 6313.59 800.153 6353.01 800.153C6392.44 800.153 6424.43 836.455 6424.43 881.233C6424.43 909.058 6412.04 933.618 6393.21 948.215L6393.2 948.203ZM6340.78 872.475C6339.08 869.17 6336.69 866.285 6333.79 864.024C6330.33 861.859 6326.36 860.691 6322.31 860.643C6320.97 860.65 6319.63 860.805 6318.32 861.104C6313.26 861.745 6308.99 865.291 6306.04 869.389C6303.45 872.68 6301.44 876.675 6301.39 880.977C6300.99 884.537 6301.69 888.097 6302.33 891.58C6303.15 895.703 6305.99 899.058 6309.2 901.491C6310.69 902.707 6312.82 904.385 6314.7 902.976C6315.95 901.26 6314.9 898.75 6316.04 896.855C6316.25 895.963 6316.65 895.129 6317.21 894.409C6317.76 893.688 6318.46 893.099 6319.26 892.681C6322.55 890.991 6325.85 889.326 6329.36 888.135C6332.21 887.277 6334.56 885.331 6336.99 883.666C6340.18 881.144 6342.29 876.521 6340.78 872.475ZM6353.22 902.246C6349.74 902.157 6345.35 918.086 6346.05 925.039C6348.24 934.258 6349.01 918.572 6353.22 918.56C6357.26 918.739 6356.66 934.63 6359.85 925.013C6360.82 918.611 6357.05 902.349 6353.22 902.246ZM6403.68 891.58C6404.31 888.097 6405.01 884.537 6404.61 880.977C6404.56 876.675 6402.55 872.68 6399.96 869.389C6397.01 865.291 6392.74 861.757 6387.68 861.104C6386.37 860.805 6385.03 860.65 6383.69 860.643C6379.69 860.631 6375.64 861.924 6372.21 864.024C6369.27 866.213 6366.96 869.223 6365.22 872.475C6363.71 876.521 6365.82 881.144 6369.01 883.666C6371.44 885.331 6373.79 887.277 6376.64 888.148C6380.14 889.326 6383.45 890.991 6386.74 892.681C6387.54 893.099 6388.24 893.688 6388.79 894.409C6389.35 895.129 6389.75 895.963 6389.96 896.855C6391.1 898.738 6390.05 901.26 6391.29 902.976C6393.18 904.385 6395.31 902.707 6396.79 901.491C6400.01 899.058 6402.85 895.703 6403.68 891.58Z" fill="#910000"/>
<path d="M105 795.157C105 792.553 105.25 790.014 105.75 787.538L130.2 809.742L157 779.266L133.075 757.46C136.312 756.538 139.7 756 143.225 756C153.316 756.006 162.995 760.097 170.155 767.381C177.314 774.665 181.374 784.552 181.45 794.888V795.157C181.45 797.121 181.312 799.041 181.038 800.919L210.85 827.963C199.991 836.532 191.35 847.7 185.688 860.487L154.775 832.458C151.043 833.691 147.146 834.318 143.225 834.314C133.089 834.307 123.37 830.18 116.203 822.838C109.036 815.496 105.007 805.54 105 795.157ZM366.775 957.701C362.942 957.719 359.275 958.269 355.775 959.353L326.925 933.18C322.174 946.434 314.375 958.32 304.188 967.83L329.1 990.431C328.741 992.554 328.557 994.704 328.55 996.859C328.556 1002.96 329.953 1008.97 332.628 1014.42C335.304 1019.87 339.184 1024.61 343.961 1028.25C348.738 1031.89 354.279 1034.34 360.143 1035.4C366.007 1036.46 372.031 1036.11 377.737 1034.36L352.837 1011.7L379.587 981.416L404.35 1003.95C404.775 1001.65 404.992 999.283 405 996.859V996.526C404.918 986.197 400.854 976.321 393.694 969.049C386.533 961.776 376.858 957.698 366.775 957.701ZM324.312 860.487L355.225 832.458C358.875 833.648 362.737 834.314 366.775 834.314C372.421 834.306 377.995 833.018 383.098 830.542C388.2 828.066 392.704 824.464 396.287 819.993C399.869 815.523 402.441 810.296 403.818 804.686C405.195 799.077 405.342 793.226 404.25 787.551L379.8 809.755L353 779.279L376.925 757.473C373.623 756.512 370.208 756.021 366.775 756.013C356.684 756.019 347.005 760.11 339.845 767.394C332.686 774.678 328.626 784.565 328.55 794.901V795.17C328.55 797.133 328.688 799.054 328.962 800.932L299.15 827.976C310.009 836.545 318.65 847.713 324.312 860.5V860.487ZM183.062 933.18L154.225 959.353C148.542 957.601 142.54 957.229 136.692 958.266C130.845 959.303 125.314 961.721 120.537 965.328C115.76 968.935 111.869 973.633 109.173 979.048C106.476 984.463 105.047 990.447 105 996.526V996.859C105 999.283 105.217 1001.65 105.65 1003.95L130.425 981.416L157.175 1011.7L132.263 1034.36C137.969 1036.11 143.993 1036.46 149.857 1035.4C155.721 1034.34 161.262 1031.89 166.039 1028.25C170.816 1024.61 174.696 1019.87 177.372 1014.42C180.047 1008.97 181.444 1002.96 181.45 996.859C181.443 994.704 181.259 992.554 180.9 990.431L205.812 967.83C195.62 958.321 187.817 946.436 183.062 933.18ZM295.2 967.203C296.404 969.072 297.144 971.214 297.358 973.443C297.571 975.671 297.251 977.92 296.425 979.993C295.599 982.067 294.292 983.903 292.618 985.342C290.943 986.782 288.951 987.781 286.814 988.255C284.677 988.728 282.46 988.661 280.355 988.058C278.249 987.456 276.319 986.337 274.73 984.798C273.142 983.26 271.944 981.348 271.239 979.228C270.535 977.108 270.345 974.844 270.688 972.632H268.287C268.582 974.595 268.459 976.601 267.926 978.511C267.394 980.421 266.464 982.19 265.202 983.698C263.939 985.205 262.373 986.415 260.611 987.245C258.849 988.074 256.933 988.504 254.994 988.504C253.055 988.504 251.138 988.074 249.377 987.245C247.615 986.415 246.049 985.205 244.786 983.698C243.523 982.19 242.594 980.421 242.061 978.511C241.528 976.601 241.405 974.595 241.7 972.632H239.825C240.074 974.615 239.91 976.63 239.344 978.544C238.777 980.458 237.821 982.227 236.538 983.735C235.255 985.242 233.675 986.454 231.902 987.291C230.128 988.127 228.202 988.569 226.25 988.587C218.7 988.587 212.575 982.184 212.575 974.309C212.575 971.62 213.287 969.123 214.525 966.985C195.863 952.362 183.6 927.917 183.6 900.233C183.6 855.455 215.588 819.153 255.013 819.153C294.438 819.153 326.425 855.455 326.425 900.233C326.425 928.058 314.038 952.618 295.212 967.215L295.2 967.203ZM242.775 891.475C241.075 888.17 238.691 885.285 235.788 883.024C232.329 880.859 228.365 879.691 224.312 879.643C222.971 879.65 221.634 879.805 220.325 880.104C215.262 880.745 210.988 884.291 208.037 888.389C205.45 891.68 203.438 895.675 203.387 899.977C202.987 903.537 203.688 907.097 204.325 910.58C205.15 914.703 207.988 918.058 211.2 920.491C212.688 921.707 214.825 923.385 216.7 921.976C217.95 920.26 216.9 917.75 218.038 915.855C218.251 914.963 218.65 914.129 219.206 913.409C219.763 912.688 220.464 912.099 221.262 911.681C224.55 909.991 227.85 908.326 231.363 907.135C234.213 906.277 236.562 904.331 238.988 902.666C242.175 900.144 244.288 895.521 242.775 891.475ZM255.225 921.246C251.738 921.157 247.35 937.086 248.05 944.039C250.238 953.258 251.012 937.572 255.225 937.56C259.262 937.739 258.663 953.63 261.85 944.013C262.825 937.611 259.05 921.349 255.225 921.246ZM305.675 910.58C306.313 907.097 307.012 903.537 306.613 899.977C306.562 895.675 304.55 891.68 301.962 888.389C299.012 884.291 294.738 880.757 289.675 880.104C288.366 879.805 287.029 879.65 285.688 879.643C281.688 879.631 277.637 880.924 274.212 883.024C271.275 885.213 268.962 888.223 267.225 891.475C265.712 895.521 267.825 900.144 271.012 902.666C273.438 904.331 275.787 906.277 278.637 907.148C282.137 908.326 285.45 909.991 288.738 911.681C289.536 912.099 290.237 912.688 290.794 913.409C291.35 914.129 291.749 914.963 291.962 915.855C293.1 917.738 292.05 920.26 293.287 921.976C295.175 923.385 297.312 921.707 298.788 920.491C302.012 918.058 304.85 914.703 305.675 910.58Z" fill="#910000"/>
<path d="M3032 1748V1706L3000.5 1651.25V1650.5H3016.25L3032.5 1679C3033.58 1680.83 3034.58 1682.75 3035.5 1684.75C3036.42 1686.75 3037.42 1689.08 3038.5 1691.75H3041.5C3042.58 1689.08 3043.54 1686.75 3044.38 1684.75C3045.29 1682.75 3046.29 1680.83 3047.38 1679L3063.38 1650.5H3077.5V1651.25L3046 1706.25V1748H3032ZM3123.38 1749.75C3113.46 1749.75 3105.21 1747.71 3098.63 1743.62C3092.13 1739.46 3087.25 1733.58 3084 1726C3080.83 1718.42 3079.25 1709.5 3079.25 1699.25C3079.25 1688.92 3080.83 1680 3084 1672.5C3087.25 1664.92 3092.13 1659.08 3098.63 1655C3105.21 1650.83 3113.46 1648.75 3123.38 1648.75C3133.38 1648.75 3141.63 1650.83 3148.13 1655C3154.63 1659.08 3159.46 1664.92 3162.63 1672.5C3165.88 1680 3167.5 1688.92 3167.5 1699.25C3167.5 1709.5 3165.88 1718.42 3162.63 1726C3159.46 1733.58 3154.63 1739.46 3148.13 1743.62C3141.63 1747.71 3133.38 1749.75 3123.38 1749.75ZM3123.38 1738.5C3133.54 1738.5 3141.04 1735.08 3145.88 1728.25C3150.79 1721.33 3153.25 1711.67 3153.25 1699.25C3153.25 1686.83 3150.79 1677.21 3145.88 1670.38C3141.04 1663.46 3133.54 1660 3123.38 1660C3113.21 1660 3105.67 1663.46 3100.75 1670.38C3095.92 1677.21 3093.5 1686.83 3093.5 1699.25C3093.5 1711.67 3095.92 1721.33 3100.75 1728.25C3105.67 1735.08 3113.21 1738.5 3123.38 1738.5ZM3221.36 1749.75C3208.02 1749.75 3198.23 1746.12 3191.98 1738.87C3185.81 1731.62 3182.73 1721.21 3182.73 1707.62V1650.5H3196.98V1708.25C3196.98 1718.75 3198.94 1726.42 3202.86 1731.25C3206.86 1736.08 3213.11 1738.5 3221.61 1738.5C3230.11 1738.5 3236.31 1736.08 3240.23 1731.25C3244.23 1726.42 3246.23 1718.75 3246.23 1708.25V1650.5H3259.98V1707.62C3259.98 1721.21 3256.9 1731.62 3250.73 1738.87C3244.65 1746.12 3234.86 1749.75 3221.36 1749.75ZM3281.54 1748V1650.5H3317.91C3326.16 1650.5 3332.79 1651.67 3337.79 1654C3342.79 1656.33 3346.41 1659.46 3348.66 1663.38C3350.91 1667.29 3352.04 1671.67 3352.04 1676.5C3352.04 1682.83 3350.25 1688.17 3346.66 1692.5C3343.16 1696.83 3337.96 1699.83 3331.04 1701.5L3354.79 1747.25V1748H3340.04L3317.16 1703.37H3295.29V1748H3281.54ZM3295.29 1692.62H3317.04C3324.54 1692.62 3329.87 1691.29 3333.04 1688.62C3336.21 1685.87 3337.79 1682.04 3337.79 1677.12C3337.79 1672.12 3336.21 1668.33 3333.04 1665.75C3329.87 1663.08 3324.54 1661.75 3317.04 1661.75H3295.29V1692.62ZM3399.02 1748V1650.5H3430.89C3447.73 1650.5 3459.89 1654.79 3467.39 1663.38C3474.98 1671.87 3478.77 1683.83 3478.77 1699.25C3478.77 1714.67 3474.98 1726.67 3467.39 1735.25C3459.89 1743.75 3447.73 1748 3430.89 1748H3399.02ZM3413.14 1736.25H3429.64C3438.06 1736.25 3444.81 1734.92 3449.89 1732.25C3455.06 1729.5 3458.77 1725.37 3461.02 1719.88C3463.35 1714.37 3464.52 1707.5 3464.52 1699.25C3464.52 1690.92 3463.35 1684.04 3461.02 1678.62C3458.77 1673.13 3455.06 1669.04 3449.89 1666.37C3444.81 1663.62 3438.06 1662.25 3429.64 1662.25H3413.14V1736.25ZM3483.52 1748V1747.25L3515.27 1650.5H3537.77L3569.52 1747.25V1748H3554.89L3527.52 1661.38H3524.52L3497.14 1748H3483.52ZM3504.14 1719.63L3508.02 1707.87H3544.02L3547.89 1719.63H3504.14ZM3595.13 1748V1662.25H3562.76V1650.5H3641.51V1662.25H3609.13V1748H3595.13ZM3634.84 1748V1747.25L3666.59 1650.5H3689.09L3720.84 1747.25V1748H3706.21L3678.84 1661.38H3675.84L3648.46 1748H3634.84ZM3655.46 1719.63L3659.34 1707.87H3695.34L3699.21 1719.63H3655.46Z" fill="white"/>
<path d="M6099 924.5H5219" stroke="#910000" stroke-width="10"/>
<path d="M4983.01 920.917C4982.36 920.262 4981.58 919.743 4980.73 919.388C4979.87 919.034 4978.96 918.851 4978.04 918.851C4977.11 918.851 4976.2 919.034 4975.34 919.388C4974.49 919.743 4973.72 920.262 4973.07 920.917C4972.41 921.569 4971.89 922.343 4971.54 923.196C4971.18 924.049 4971 924.964 4971 925.888C4971 926.811 4971.18 927.726 4971.54 928.579C4971.89 929.432 4972.41 930.207 4973.07 930.858L4998.34 956.132L4998.75 956.542C4999.37 957.16 5000.1 957.65 5000.9 957.984C5001.71 958.318 5002.57 958.49 5003.45 958.49C5004.32 958.49 5005.18 958.318 5005.99 957.984C5006.8 957.65 5007.53 957.16 5008.14 956.542L5051.8 912.89C5052.41 912.273 5052.9 911.541 5053.24 910.735C5053.57 909.929 5053.74 909.065 5053.74 908.192C5053.74 907.32 5053.57 906.456 5053.24 905.65C5052.9 904.844 5052.41 904.112 5051.8 903.495L5051.25 902.948C5050.63 902.331 5049.9 901.841 5049.09 901.506C5048.29 901.172 5047.42 901 5046.55 901C5045.68 901 5044.82 901.172 5044.01 901.506C5043.2 901.841 5042.47 902.331 5041.85 902.948L5003.44 941.347L4983.01 920.917Z" fill="#008000"/>
<path d="M5012 842L4937 867V942C4937 983.426 4970.57 1017 5012 1017C5053.43 1017 5087 983.426 5087 942V867L5012 842ZM5072.94 942C5072.94 975.652 5045.65 1002.94 5012 1002.94C4978.35 1002.94 4951.06 975.652 4951.06 942V877.547L5012 856.062L5072.94 877.547V942Z" fill="#008000"/>
<path d="M4604.01 375.917C4603.36 375.262 4602.58 374.743 4601.73 374.388C4600.87 374.034 4599.96 373.851 4599.04 373.851C4598.11 373.851 4597.2 374.034 4596.34 374.388C4595.49 374.743 4594.72 375.262 4594.07 375.917C4593.41 376.569 4592.89 377.343 4592.54 378.196C4592.18 379.049 4592 379.964 4592 380.888C4592 381.811 4592.18 382.726 4592.54 383.579C4592.89 384.432 4593.41 385.207 4594.07 385.858L4619.34 411.132L4619.75 411.542C4620.37 412.16 4621.1 412.65 4621.9 412.984C4622.71 413.318 4623.57 413.49 4624.45 413.49C4625.32 413.49 4626.18 413.318 4626.99 412.984C4627.8 412.65 4628.53 412.16 4629.14 411.542L4672.8 367.89C4673.41 367.273 4673.9 366.541 4674.24 365.735C4674.57 364.929 4674.74 364.065 4674.74 363.192C4674.74 362.32 4674.57 361.456 4674.24 360.65C4673.9 359.844 4673.41 359.112 4672.8 358.495L4672.25 357.948C4671.63 357.331 4670.9 356.841 4670.09 356.506C4669.29 356.172 4668.42 356 4667.55 356C4666.68 356 4665.82 356.172 4665.01 356.506C4664.2 356.841 4663.47 357.331 4662.85 357.948L4624.44 396.347L4604.01 375.917Z" fill="#008000"/>
<path d="M4633 297L4558 322V397C4558 438.426 4591.57 472 4633 472C4674.43 472 4708 438.426 4708 397V322L4633 297ZM4693.94 397C4693.94 430.652 4666.65 457.938 4633 457.938C4599.35 457.938 4572.06 430.652 4572.06 397V332.547L4633 311.062L4693.94 332.547V397Z" fill="#008000"/>
<path d="M1906.01 550.917C1905.36 550.262 1904.58 549.743 1903.73 549.388C1902.87 549.034 1901.96 548.851 1901.04 548.851C1900.11 548.851 1899.2 549.034 1898.34 549.388C1897.49 549.743 1896.72 550.262 1896.07 550.917C1895.41 551.569 1894.89 552.343 1894.54 553.196C1894.18 554.049 1894 554.964 1894 555.888C1894 556.811 1894.18 557.726 1894.54 558.579C1894.89 559.432 1895.41 560.207 1896.07 560.858L1921.34 586.132L1921.75 586.542C1922.37 587.16 1923.1 587.65 1923.9 587.984C1924.71 588.318 1925.57 588.49 1926.45 588.49C1927.32 588.49 1928.18 588.318 1928.99 587.984C1929.8 587.65 1930.53 587.16 1931.14 586.542L1974.8 542.89C1975.41 542.273 1975.9 541.541 1976.24 540.735C1976.57 539.929 1976.74 539.065 1976.74 538.192C1976.74 537.32 1976.57 536.456 1976.24 535.65C1975.9 534.844 1975.41 534.112 1974.8 533.495L1974.25 532.948C1973.63 532.331 1972.9 531.841 1972.09 531.506C1971.29 531.172 1970.42 531 1969.55 531C1968.68 531 1967.82 531.172 1967.01 531.506C1966.2 531.841 1965.47 532.331 1964.85 532.948L1926.44 571.347L1906.01 550.917Z" fill="#008000"/>
<path d="M1935 472L1860 497V572C1860 613.426 1893.57 647 1935 647C1976.43 647 2010 613.426 2010 572V497L1935 472ZM1995.94 572C1995.94 605.652 1968.65 632.938 1935 632.938C1901.35 632.938 1874.06 605.652 1874.06 572V507.547L1935 486.062L1995.94 507.547V572Z" fill="#008000"/>
<path d="M1698.01 1008.92C1697.36 1008.26 1696.58 1007.74 1695.73 1007.39C1694.87 1007.03 1693.96 1006.85 1693.04 1006.85C1692.11 1006.85 1691.2 1007.03 1690.34 1007.39C1689.49 1007.74 1688.72 1008.26 1688.07 1008.92C1687.41 1009.57 1686.89 1010.34 1686.54 1011.2C1686.18 1012.05 1686 1012.96 1686 1013.89C1686 1014.81 1686.18 1015.73 1686.54 1016.58C1686.89 1017.43 1687.41 1018.21 1688.07 1018.86L1713.34 1044.13L1713.75 1044.54C1714.37 1045.16 1715.1 1045.65 1715.9 1045.98C1716.71 1046.32 1717.57 1046.49 1718.45 1046.49C1719.32 1046.49 1720.18 1046.32 1720.99 1045.98C1721.8 1045.65 1722.53 1045.16 1723.14 1044.54L1766.8 1000.89C1767.41 1000.27 1767.9 999.541 1768.24 998.735C1768.57 997.929 1768.74 997.065 1768.74 996.192C1768.74 995.32 1768.57 994.456 1768.24 993.65C1767.9 992.844 1767.41 992.112 1766.8 991.495L1766.25 990.948C1765.63 990.331 1764.9 989.841 1764.09 989.506C1763.29 989.172 1762.42 989 1761.55 989C1760.68 989 1759.82 989.172 1759.01 989.506C1758.2 989.841 1757.47 990.331 1756.85 990.948L1718.44 1029.35L1698.01 1008.92Z" fill="#008000"/>
<path d="M1727 930L1652 955V1030C1652 1071.43 1685.57 1105 1727 1105C1768.43 1105 1802 1071.43 1802 1030V955L1727 930ZM1787.94 1030C1787.94 1063.65 1760.65 1090.94 1727 1090.94C1693.35 1090.94 1666.06 1063.65 1666.06 1030V965.547L1727 944.062L1787.94 965.547V1030Z" fill="#008000"/>
<path d="M1873.01 2105.92C1872.36 2105.26 1871.58 2104.74 1870.73 2104.39C1869.87 2104.03 1868.96 2103.85 1868.04 2103.85C1867.11 2103.85 1866.2 2104.03 1865.34 2104.39C1864.49 2104.74 1863.72 2105.26 1863.07 2105.92C1862.41 2106.57 1861.89 2107.34 1861.54 2108.2C1861.18 2109.05 1861 2109.96 1861 2110.89C1861 2111.81 1861.18 2112.73 1861.54 2113.58C1861.89 2114.43 1862.41 2115.21 1863.07 2115.86L1888.34 2141.13L1888.75 2141.54C1889.37 2142.16 1890.1 2142.65 1890.9 2142.98C1891.71 2143.32 1892.57 2143.49 1893.45 2143.49C1894.32 2143.49 1895.18 2143.32 1895.99 2142.98C1896.8 2142.65 1897.53 2142.16 1898.14 2141.54L1941.8 2097.89C1942.41 2097.27 1942.9 2096.54 1943.24 2095.74C1943.57 2094.93 1943.74 2094.06 1943.74 2093.19C1943.74 2092.32 1943.57 2091.46 1943.24 2090.65C1942.9 2089.84 1942.41 2089.11 1941.8 2088.5L1941.25 2087.95C1940.63 2087.33 1939.9 2086.84 1939.09 2086.51C1938.29 2086.17 1937.42 2086 1936.55 2086C1935.68 2086 1934.82 2086.17 1934.01 2086.51C1933.2 2086.84 1932.47 2087.33 1931.85 2087.95L1893.44 2126.35L1873.01 2105.92Z" fill="#008000"/>
<path d="M1902 2027L1827 2052V2127C1827 2168.43 1860.57 2202 1902 2202C1943.43 2202 1977 2168.43 1977 2127V2052L1902 2027ZM1962.94 2127C1962.94 2160.65 1935.65 2187.94 1902 2187.94C1868.35 2187.94 1841.06 2160.65 1841.06 2127V2062.55L1902 2041.06L1962.94 2062.55V2127Z" fill="#008000"/>
<path d="M4833.01 2076.92C4832.36 2076.26 4831.58 2075.74 4830.73 2075.39C4829.87 2075.03 4828.96 2074.85 4828.04 2074.85C4827.11 2074.85 4826.2 2075.03 4825.34 2075.39C4824.49 2075.74 4823.72 2076.26 4823.07 2076.92C4822.41 2077.57 4821.89 2078.34 4821.54 2079.2C4821.18 2080.05 4821 2080.96 4821 2081.89C4821 2082.81 4821.18 2083.73 4821.54 2084.58C4821.89 2085.43 4822.41 2086.21 4823.07 2086.86L4848.34 2112.13L4848.75 2112.54C4849.37 2113.16 4850.1 2113.65 4850.9 2113.98C4851.71 2114.32 4852.57 2114.49 4853.45 2114.49C4854.32 2114.49 4855.18 2114.32 4855.99 2113.98C4856.8 2113.65 4857.53 2113.16 4858.14 2112.54L4901.8 2068.89C4902.41 2068.27 4902.9 2067.54 4903.24 2066.74C4903.57 2065.93 4903.74 2065.06 4903.74 2064.19C4903.74 2063.32 4903.57 2062.46 4903.24 2061.65C4902.9 2060.84 4902.41 2060.11 4901.8 2059.5L4901.25 2058.95C4900.63 2058.33 4899.9 2057.84 4899.09 2057.51C4898.29 2057.17 4897.42 2057 4896.55 2057C4895.68 2057 4894.82 2057.17 4894.01 2057.51C4893.2 2057.84 4892.47 2058.33 4891.85 2058.95L4853.44 2097.35L4833.01 2076.92Z" fill="#008000"/>
<path d="M4862 1998L4787 2023V2098C4787 2139.43 4820.57 2173 4862 2173C4903.43 2173 4937 2139.43 4937 2098V2023L4862 1998ZM4922.94 2098C4922.94 2131.65 4895.65 2158.94 4862 2158.94C4828.35 2158.94 4801.06 2131.65 4801.06 2098V2033.55L4862 2012.06L4922.94 2033.55V2098Z" fill="#008000"/>
</svg>
