<svg width="6908" height="2887" viewBox="0 0 6908 2887" fill="none" xmlns="http://www.w3.org/2000/svg">
<path d="M3172 894V1104C3172 1142.68 3101.47 1174 3014.5 1174C2927.53 1174 2857 1142.68 2857 1104V894" stroke="white" stroke-width="10" stroke-linecap="round" stroke-linejoin="round"/>
<path d="M3172 999C3172 1037.68 3101.47 1069 3014.5 1069C2927.52 1069 2857 1037.68 2857 999M3347 859H3452C3470.57 859 3488.37 866.375 3501.5 879.503C3514.62 892.63 3522 910.435 3522 929V1034M3067 1489H2962C2943.43 1489 2925.63 1481.63 2912.5 1468.5C2899.37 1455.37 2892 1437.57 2892 1419V1314M3172 894C3172 932.675 3101.47 964 3014.5 964C2927.52 964 2857 932.675 2857 894C2857 855.325 2927.52 824 3014.5 824C3101.47 824 3172 855.325 3172 894Z" stroke="white" stroke-width="10" stroke-linecap="round" stroke-linejoin="round"/>
<path d="M3399.5 1349C3447.82 1349 3487 1309.83 3487 1261.5C3487 1213.18 3447.82 1174 3399.5 1174C3351.18 1174 3312 1213.18 3312 1261.5C3312 1309.83 3351.18 1349 3399.5 1349Z" stroke="white" stroke-width="10" stroke-linecap="round" stroke-linejoin="round"/>
<path d="M3557 1524H3242C3242 1503.32 3246.07 1482.84 3253.99 1463.73C3261.9 1444.62 3273.51 1427.26 3288.13 1412.63C3302.76 1398.01 3320.12 1386.4 3339.23 1378.49C3358.34 1370.57 3378.82 1366.5 3399.5 1366.5C3420.18 1366.5 3440.66 1370.57 3459.77 1378.49C3478.88 1386.4 3496.24 1398.01 3510.87 1412.63C3525.49 1427.26 3537.1 1444.62 3545.01 1463.73C3552.93 1482.84 3557 1503.32 3557 1524Z" stroke="white" stroke-width="10" stroke-linecap="round" stroke-linejoin="round"/>
<path d="M3245 1756V2882H263V2321" stroke="#991100" stroke-width="10"/>
<path d="M2870 1678V1636L2838.5 1581.25V1580.5H2854.25L2870.5 1609C2871.58 1610.83 2872.58 1612.75 2873.5 1614.75C2874.42 1616.75 2875.42 1619.08 2876.5 1621.75H2879.5C2880.58 1619.08 2881.54 1616.75 2882.38 1614.75C2883.29 1612.75 2884.29 1610.83 2885.38 1609L2901.38 1580.5H2915.5V1581.25L2884 1636.25V1678H2870ZM2961.38 1679.75C2951.46 1679.75 2943.21 1677.71 2936.63 1673.62C2930.13 1669.46 2925.25 1663.58 2922 1656C2918.83 1648.42 2917.25 1639.5 2917.25 1629.25C2917.25 1618.92 2918.83 1610 2922 1602.5C2925.25 1594.92 2930.13 1589.08 2936.63 1585C2943.21 1580.83 2951.46 1578.75 2961.38 1578.75C2971.38 1578.75 2979.63 1580.83 2986.13 1585C2992.63 1589.08 2997.46 1594.92 3000.63 1602.5C3003.88 1610 3005.5 1618.92 3005.5 1629.25C3005.5 1639.5 3003.88 1648.42 3000.63 1656C2997.46 1663.58 2992.63 1669.46 2986.13 1673.62C2979.63 1677.71 2971.38 1679.75 2961.38 1679.75ZM2961.38 1668.5C2971.54 1668.5 2979.04 1665.08 2983.88 1658.25C2988.79 1651.33 2991.25 1641.67 2991.25 1629.25C2991.25 1616.83 2988.79 1607.21 2983.88 1600.38C2979.04 1593.46 2971.54 1590 2961.38 1590C2951.21 1590 2943.67 1593.46 2938.75 1600.38C2933.92 1607.21 2931.5 1616.83 2931.5 1629.25C2931.5 1641.67 2933.92 1651.33 2938.75 1658.25C2943.67 1665.08 2951.21 1668.5 2961.38 1668.5ZM3059.36 1679.75C3046.02 1679.75 3036.23 1676.12 3029.98 1668.87C3023.81 1661.62 3020.73 1651.21 3020.73 1637.62V1580.5H3034.98V1638.25C3034.98 1648.75 3036.94 1656.42 3040.86 1661.25C3044.86 1666.08 3051.11 1668.5 3059.61 1668.5C3068.11 1668.5 3074.31 1666.08 3078.23 1661.25C3082.23 1656.42 3084.23 1648.75 3084.23 1638.25V1580.5H3097.98V1637.62C3097.98 1651.21 3094.9 1661.62 3088.73 1668.87C3082.65 1676.12 3072.86 1679.75 3059.36 1679.75ZM3119.54 1678V1580.5H3155.91C3164.16 1580.5 3170.79 1581.67 3175.79 1584C3180.79 1586.33 3184.41 1589.46 3186.66 1593.38C3188.91 1597.29 3190.04 1601.67 3190.04 1606.5C3190.04 1612.83 3188.25 1618.17 3184.66 1622.5C3181.16 1626.83 3175.96 1629.83 3169.04 1631.5L3192.79 1677.25V1678H3178.04L3155.16 1633.37H3133.29V1678H3119.54ZM3133.29 1622.62H3155.04C3162.54 1622.62 3167.87 1621.29 3171.04 1618.62C3174.21 1615.87 3175.79 1612.04 3175.79 1607.12C3175.79 1602.12 3174.21 1598.33 3171.04 1595.75C3167.87 1593.08 3162.54 1591.75 3155.04 1591.75H3133.29V1622.62ZM3237.02 1678V1580.5H3268.89C3285.73 1580.5 3297.89 1584.79 3305.39 1593.38C3312.98 1601.87 3316.77 1613.83 3316.77 1629.25C3316.77 1644.67 3312.98 1656.67 3305.39 1665.25C3297.89 1673.75 3285.73 1678 3268.89 1678H3237.02ZM3251.14 1666.25H3267.64C3276.06 1666.25 3282.81 1664.92 3287.89 1662.25C3293.06 1659.5 3296.77 1655.37 3299.02 1649.88C3301.35 1644.37 3302.52 1637.5 3302.52 1629.25C3302.52 1620.92 3301.35 1614.04 3299.02 1608.62C3296.77 1603.13 3293.06 1599.04 3287.89 1596.37C3282.81 1593.62 3276.06 1592.25 3267.64 1592.25H3251.14V1666.25ZM3321.52 1678V1677.25L3353.27 1580.5H3375.77L3407.52 1677.25V1678H3392.89L3365.52 1591.38H3362.52L3335.14 1678H3321.52ZM3342.14 1649.63L3346.02 1637.87H3382.02L3385.89 1649.63H3342.14ZM3433.13 1678V1592.25H3400.76V1580.5H3479.51V1592.25H3447.13V1678H3433.13ZM3472.84 1678V1677.25L3504.59 1580.5H3527.09L3558.84 1677.25V1678H3544.21L3516.84 1591.38H3513.84L3486.46 1678H3472.84ZM3493.46 1649.63L3497.34 1637.87H3533.34L3537.21 1649.63H3493.46Z" fill="white"/>
<path d="M11.25 1174V1076.5H25.25V1115.62H74.75V1076.5H88.75V1174H74.75V1127.37H25.25V1174H11.25ZM102.049 1174V1173.25L133.799 1076.5H156.299L188.049 1173.25V1174H173.424L146.049 1087.38H143.049L115.674 1174H102.049ZM122.674 1145.63L126.549 1133.87H162.549L166.424 1145.63H122.674ZM235.5 1175.88C222.083 1175.88 211.583 1171.46 204 1162.62C196.5 1153.71 192.75 1141.25 192.75 1125.25C192.75 1109.17 196.542 1096.71 204.125 1087.88C211.708 1079.04 222.167 1074.62 235.5 1074.62C243.25 1074.62 249.958 1076.12 255.625 1079.13C261.375 1082.04 265.917 1086.17 269.25 1091.5C272.667 1096.83 274.708 1103.08 275.375 1110.25H261.25C260.417 1102.83 257.708 1096.92 253.125 1092.5C248.625 1088.08 242.667 1085.87 235.25 1085.87C226.167 1085.87 219.167 1089.33 214.25 1096.25C209.417 1103.08 207 1112.75 207 1125.25C207 1137.83 209.458 1147.54 214.375 1154.37C219.375 1161.21 226.292 1164.62 235.125 1164.62C242.958 1164.62 249.083 1162.29 253.5 1157.62C258 1152.96 260.583 1147.17 261.25 1140.25H275.375C274.708 1147.33 272.667 1153.58 269.25 1159C265.917 1164.33 261.417 1168.5 255.75 1171.5C250.083 1174.42 243.333 1175.88 235.5 1175.88ZM288.691 1174V1076.5H302.441V1117.75H309.941L342.691 1076.5H358.316V1077.25L320.941 1123.12L361.441 1173.25V1174H344.441L309.941 1130.25H302.441V1174H288.691ZM374.971 1174V1076.5H437.471V1088.25H388.971V1115.87H427.221V1127.12H388.971V1162.25H438.221V1174H374.971ZM456.27 1174V1076.5H492.645C500.895 1076.5 507.52 1077.67 512.52 1080C517.52 1082.33 521.145 1085.46 523.395 1089.38C525.645 1093.29 526.77 1097.67 526.77 1102.5C526.77 1108.83 524.978 1114.17 521.395 1118.5C517.895 1122.83 512.686 1125.83 505.77 1127.5L529.52 1173.25V1174H514.77L491.895 1129.37H470.02V1174H456.27ZM470.02 1118.62H491.77C499.27 1118.62 504.603 1117.29 507.77 1114.62C510.936 1111.87 512.52 1108.04 512.52 1103.12C512.52 1098.12 510.936 1094.33 507.77 1091.75C504.603 1089.08 499.27 1087.75 491.77 1087.75H470.02V1118.62ZM577.096 1175.88C570.762 1175.88 565.179 1175 560.346 1173.25C555.596 1171.5 551.554 1169.08 548.221 1166C544.971 1162.83 542.429 1159.17 540.596 1155C538.846 1150.83 537.804 1146.33 537.471 1141.5H550.971C551.221 1145.33 552.346 1149.04 554.346 1152.63C556.346 1156.12 559.262 1159 563.096 1161.25C567.012 1163.5 571.887 1164.62 577.721 1164.62C584.054 1164.62 589.012 1163.25 592.596 1160.5C596.179 1157.67 597.971 1153.83 597.971 1149C597.971 1144.17 596.221 1140.46 592.721 1137.87C589.304 1135.29 584.971 1133.12 579.721 1131.38L570.346 1128.25C565.596 1126.67 561.054 1124.83 556.721 1122.75C552.387 1120.58 548.846 1117.75 546.096 1114.25C543.346 1110.75 541.971 1106.17 541.971 1100.5C541.971 1095 543.304 1090.33 545.971 1086.5C548.637 1082.67 552.346 1079.75 557.096 1077.75C561.846 1075.67 567.346 1074.62 573.596 1074.62C581.179 1074.62 587.429 1076 592.346 1078.75C597.262 1081.42 600.971 1084.96 603.471 1089.38C605.971 1093.79 607.387 1098.67 607.721 1104H594.221C593.971 1100.92 593.096 1098 591.596 1095.25C590.179 1092.5 587.971 1090.25 584.971 1088.5C581.971 1086.75 578.012 1085.87 573.096 1085.87C567.762 1085.87 563.471 1087.08 560.221 1089.5C557.054 1091.83 555.471 1095.08 555.471 1099.25C555.471 1103.92 557.304 1107.5 560.971 1110C564.721 1112.5 569.179 1114.58 574.346 1116.25L583.846 1119.37C588.596 1120.88 593.054 1122.71 597.221 1124.87C601.471 1127.04 604.887 1129.92 607.471 1133.5C610.137 1137 611.471 1141.71 611.471 1147.62C611.471 1156.62 608.346 1163.58 602.096 1168.5C595.846 1173.42 587.512 1175.88 577.096 1175.88Z" fill="#910000"/>
<path d="M6109.25 1174V1076.5H6123.25V1115.62H6172.75V1076.5H6186.75V1174H6172.75V1127.37H6123.25V1174H6109.25ZM6200.05 1174V1173.25L6231.8 1076.5H6254.3L6286.05 1173.25V1174H6271.42L6244.05 1087.38H6241.05L6213.67 1174H6200.05ZM6220.67 1145.63L6224.55 1133.87H6260.55L6264.42 1145.63H6220.67ZM6333.5 1175.88C6320.08 1175.88 6309.58 1171.46 6302 1162.62C6294.5 1153.71 6290.75 1141.25 6290.75 1125.25C6290.75 1109.17 6294.54 1096.71 6302.13 1087.88C6309.71 1079.04 6320.17 1074.62 6333.5 1074.62C6341.25 1074.62 6347.96 1076.12 6353.63 1079.13C6359.37 1082.04 6363.92 1086.17 6367.25 1091.5C6370.67 1096.83 6372.71 1103.08 6373.38 1110.25H6359.25C6358.42 1102.83 6355.71 1096.92 6351.12 1092.5C6346.63 1088.08 6340.67 1085.87 6333.25 1085.87C6324.17 1085.87 6317.17 1089.33 6312.25 1096.25C6307.42 1103.08 6305 1112.75 6305 1125.25C6305 1137.83 6307.46 1147.54 6312.38 1154.37C6317.38 1161.21 6324.29 1164.62 6333.12 1164.62C6340.96 1164.62 6347.08 1162.29 6351.5 1157.62C6356 1152.96 6358.58 1147.17 6359.25 1140.25H6373.38C6372.71 1147.33 6370.67 1153.58 6367.25 1159C6363.92 1164.33 6359.42 1168.5 6353.75 1171.5C6348.08 1174.42 6341.33 1175.88 6333.5 1175.88ZM6386.69 1174V1076.5H6400.44V1117.75H6407.94L6440.69 1076.5H6456.32V1077.25L6418.94 1123.12L6459.44 1173.25V1174H6442.44L6407.94 1130.25H6400.44V1174H6386.69ZM6472.97 1174V1076.5H6535.47V1088.25H6486.97V1115.87H6525.22V1127.12H6486.97V1162.25H6536.22V1174H6472.97ZM6554.27 1174V1076.5H6590.64C6598.89 1076.5 6605.52 1077.67 6610.52 1080C6615.52 1082.33 6619.14 1085.46 6621.39 1089.38C6623.64 1093.29 6624.77 1097.67 6624.77 1102.5C6624.77 1108.83 6622.98 1114.17 6619.39 1118.5C6615.89 1122.83 6610.69 1125.83 6603.77 1127.5L6627.52 1173.25V1174H6612.77L6589.89 1129.37H6568.02V1174H6554.27ZM6568.02 1118.62H6589.77C6597.27 1118.62 6602.6 1117.29 6605.77 1114.62C6608.94 1111.87 6610.52 1108.04 6610.52 1103.12C6610.52 1098.12 6608.94 1094.33 6605.77 1091.75C6602.6 1089.08 6597.27 1087.75 6589.77 1087.75H6568.02V1118.62ZM6675.1 1175.88C6668.76 1175.88 6663.18 1175 6658.35 1173.25C6653.6 1171.5 6649.55 1169.08 6646.22 1166C6642.97 1162.83 6640.43 1159.17 6638.6 1155C6636.85 1150.83 6635.8 1146.33 6635.47 1141.5H6648.97C6649.22 1145.33 6650.35 1149.04 6652.35 1152.63C6654.35 1156.12 6657.26 1159 6661.1 1161.25C6665.01 1163.5 6669.89 1164.62 6675.72 1164.62C6682.05 1164.62 6687.01 1163.25 6690.6 1160.5C6694.18 1157.67 6695.97 1153.83 6695.97 1149C6695.97 1144.17 6694.22 1140.46 6690.72 1137.87C6687.3 1135.29 6682.97 1133.12 6677.72 1131.38L6668.35 1128.25C6663.6 1126.67 6659.05 1124.83 6654.72 1122.75C6650.39 1120.58 6646.85 1117.75 6644.1 1114.25C6641.35 1110.75 6639.97 1106.17 6639.97 1100.5C6639.97 1095 6641.3 1090.33 6643.97 1086.5C6646.64 1082.67 6650.35 1079.75 6655.1 1077.75C6659.85 1075.67 6665.35 1074.62 6671.6 1074.62C6679.18 1074.62 6685.43 1076 6690.35 1078.75C6695.26 1081.42 6698.97 1084.96 6701.47 1089.38C6703.97 1093.79 6705.39 1098.67 6705.72 1104H6692.22C6691.97 1100.92 6691.1 1098 6689.6 1095.25C6688.18 1092.5 6685.97 1090.25 6682.97 1088.5C6679.97 1086.75 6676.01 1085.87 6671.1 1085.87C6665.76 1085.87 6661.47 1087.08 6658.22 1089.5C6655.05 1091.83 6653.47 1095.08 6653.47 1099.25C6653.47 1103.92 6655.3 1107.5 6658.97 1110C6662.72 1112.5 6667.18 1114.58 6672.35 1116.25L6681.85 1119.37C6686.6 1120.88 6691.05 1122.71 6695.22 1124.87C6699.47 1127.04 6702.89 1129.92 6705.47 1133.5C6708.14 1137 6709.47 1141.71 6709.47 1147.62C6709.47 1156.62 6706.35 1163.58 6700.1 1168.5C6693.85 1173.42 6685.51 1175.88 6675.1 1175.88Z" fill="#910000"/>
<rect x="1478" y="102" width="3544" height="2493" rx="995" stroke="white" stroke-width="10" stroke-dasharray="10000 950"/>
<path d="M2962.5 200V135H2984.83C2992.44 135 2998.03 136.444 3001.58 139.333C3005.19 142.167 3007 145.972 3007 150.75C3007 153.75 3006.19 156.417 3004.58 158.75C3003.03 161.083 3000.61 162.639 2997.33 163.417V165.417C3001.5 166.139 3004.64 167.861 3006.75 170.583C3008.92 173.25 3010 176.722 3010 181C3010 186.667 3008.06 191.25 3004.17 194.75C3000.28 198.25 2994.28 200 2986.17 200H2962.5ZM2971.67 192.5H2986.08C2991.19 192.5 2994.89 191.472 2997.17 189.417C2999.5 187.306 3000.67 184.333 3000.67 180.5C3000.67 176.778 2999.53 173.889 2997.25 171.833C2994.97 169.778 2991.31 168.75 2986.25 168.75H2971.67V192.5ZM2971.67 161.5H2985C2989.33 161.5 2992.56 160.722 2994.67 159.167C2996.78 157.611 2997.83 155.222 2997.83 152C2997.83 145.667 2993.56 142.5 2985 142.5H2971.67V161.5ZM3045.72 201.167C3036.83 201.167 3030.3 198.75 3026.13 193.917C3022.02 189.083 3019.97 182.139 3019.97 173.083V135H3029.47V173.5C3029.47 180.5 3030.77 185.611 3033.38 188.833C3036.05 192.056 3040.22 193.667 3045.88 193.667C3051.55 193.667 3055.69 192.056 3058.3 188.833C3060.97 185.611 3062.3 180.5 3062.3 173.5V135H3071.47V173.083C3071.47 182.139 3069.41 189.083 3065.3 193.917C3061.25 198.75 3054.72 201.167 3045.72 201.167ZM3107.38 201.25C3101.22 201.25 3096.05 199.806 3091.88 196.917C3087.72 193.972 3084.58 189.944 3082.47 184.833C3080.36 179.667 3079.3 173.806 3079.3 167.25C3079.3 160.639 3080.36 154.833 3082.47 149.833C3084.58 144.778 3087.8 140.833 3092.13 138C3096.47 135.167 3101.91 133.75 3108.47 133.75C3113.69 133.75 3118.16 134.667 3121.88 136.5C3125.61 138.333 3128.55 140.972 3130.72 144.417C3132.88 147.806 3134.25 151.889 3134.8 156.667H3125.63C3124.97 151.778 3123.13 148 3120.13 145.333C3117.19 142.611 3113.16 141.25 3108.05 141.25C3101.5 141.25 3096.63 143.583 3093.47 148.25C3090.36 152.917 3088.8 159.222 3088.8 167.167C3088.8 175.667 3090.47 182.25 3093.8 186.917C3097.19 191.583 3102.08 193.917 3108.47 193.917C3113.91 193.917 3118.16 192.306 3121.22 189.083C3124.27 185.861 3125.94 181.389 3126.22 175.667H3104.97V168.167H3134.97V200H3127.47V192H3125.47C3124.25 194.5 3122.22 196.667 3119.38 198.5C3116.61 200.333 3112.61 201.25 3107.38 201.25ZM3169.71 201.25C3165.49 201.25 3161.77 200.667 3158.54 199.5C3155.38 198.333 3152.68 196.722 3150.46 194.667C3148.29 192.556 3146.6 190.111 3145.38 187.333C3144.21 184.556 3143.52 181.556 3143.29 178.333H3152.29C3152.46 180.889 3153.21 183.361 3154.54 185.75C3155.88 188.083 3157.82 190 3160.38 191.5C3162.99 193 3166.24 193.75 3170.13 193.75C3174.35 193.75 3177.66 192.833 3180.04 191C3182.43 189.111 3183.63 186.556 3183.63 183.333C3183.63 180.111 3182.46 177.639 3180.13 175.917C3177.85 174.194 3174.96 172.75 3171.46 171.583L3165.21 169.5C3162.04 168.444 3159.02 167.222 3156.13 165.833C3153.24 164.389 3150.88 162.5 3149.04 160.167C3147.21 157.833 3146.29 154.778 3146.29 151C3146.29 147.333 3147.18 144.222 3148.96 141.667C3150.74 139.111 3153.21 137.167 3156.38 135.833C3159.54 134.444 3163.21 133.75 3167.38 133.75C3172.43 133.75 3176.6 134.667 3179.88 136.5C3183.16 138.278 3185.63 140.639 3187.29 143.583C3188.96 146.528 3189.91 149.778 3190.13 153.333H3181.13C3180.96 151.278 3180.38 149.333 3179.38 147.5C3178.43 145.667 3176.96 144.167 3174.96 143C3172.96 141.833 3170.32 141.25 3167.04 141.25C3163.49 141.25 3160.63 142.056 3158.46 143.667C3156.35 145.222 3155.29 147.389 3155.29 150.167C3155.29 153.278 3156.52 155.667 3158.96 157.333C3161.46 159 3164.43 160.389 3167.88 161.5L3174.21 163.583C3177.38 164.583 3180.35 165.806 3183.13 167.25C3185.96 168.694 3188.24 170.611 3189.96 173C3191.74 175.333 3192.63 178.472 3192.63 182.417C3192.63 188.417 3190.54 193.056 3186.38 196.333C3182.21 199.611 3176.66 201.25 3169.71 201.25Z" fill="white"/>
<path d="M1705.17 619L1692.75 554.5V554H1701.92L1712.75 612H1714.75L1727.33 554H1743.17L1755.92 612H1757.92L1768.58 554H1777.25V554.5L1765 619H1748.75L1736 561.083H1734L1721.33 619H1705.17ZM1787.54 619V554H1829.21V561.833H1796.87V580.25H1822.37V587.75H1796.87V611.167H1829.71V619H1787.54ZM1835.57 619V618.5L1856.74 554H1871.74L1892.9 618.5V619H1883.15L1864.9 561.25H1862.9L1844.65 619H1835.57ZM1849.32 600.083L1851.9 592.25H1875.9L1878.49 600.083H1849.32ZM1901.7 619V554H1910.87V581.5H1915.87L1937.7 554H1948.12V554.5L1923.2 585.083L1950.2 618.5V619H1938.87L1915.87 589.833H1910.87V619H1901.7ZM1973.07 619V618.5L1994.24 554H2009.24L2030.4 618.5V619H2020.65L2002.4 561.25H2000.4L1982.15 619H1973.07ZM1986.82 600.083L1989.4 592.25H2013.4L2015.99 600.083H1986.82ZM2062.46 620.167C2053.57 620.167 2047.04 617.75 2042.87 612.917C2038.76 608.083 2036.71 601.139 2036.71 592.083V554H2046.21V592.5C2046.21 599.5 2047.51 604.611 2050.12 607.833C2052.79 611.056 2056.96 612.667 2062.62 612.667C2068.29 612.667 2072.43 611.056 2075.04 607.833C2077.71 604.611 2079.04 599.5 2079.04 592.5V554H2088.21V592.083C2088.21 601.139 2086.15 608.083 2082.04 612.917C2077.98 617.75 2071.46 620.167 2062.46 620.167ZM2119.16 619V561.833H2097.58V554H2150.08V561.833H2128.49V619H2119.16ZM2160.1 619V554H2169.43V580.083H2202.43V554H2211.76V619H2202.43V587.917H2169.43V619H2160.1ZM2226.8 619V554H2268.46V561.833H2236.13V580.25H2261.63V587.75H2236.13V611.167H2268.96V619H2226.8ZM2281 619V554H2298L2323.83 611.583H2325.83V554H2334.33V619H2317.33L2291.5 561.417H2289.5V619H2281ZM2365.94 619V561.833H2344.36V554H2396.86V561.833H2375.27V619H2365.94ZM2407.21 619V554H2416.54V619H2407.21ZM2456.37 620.25C2447.43 620.25 2440.43 617.306 2435.37 611.417C2430.37 605.472 2427.88 597.167 2427.88 586.5C2427.88 575.778 2430.4 567.472 2435.46 561.583C2440.51 555.694 2447.49 552.75 2456.37 552.75C2461.54 552.75 2466.01 553.75 2469.79 555.75C2473.62 557.694 2476.65 560.444 2478.88 564C2481.15 567.556 2482.51 571.722 2482.96 576.5H2473.54C2472.99 571.556 2471.18 567.611 2468.12 564.667C2465.13 561.722 2461.15 560.25 2456.21 560.25C2450.15 560.25 2445.49 562.556 2442.21 567.167C2438.99 571.722 2437.38 578.167 2437.38 586.5C2437.38 594.889 2439.01 601.361 2442.29 605.917C2445.63 610.472 2450.24 612.75 2456.12 612.75C2461.35 612.75 2465.43 611.194 2468.37 608.083C2471.38 604.972 2473.1 601.111 2473.54 596.5H2482.96C2482.51 601.222 2481.15 605.389 2478.88 609C2476.65 612.556 2473.65 615.333 2469.88 617.333C2466.1 619.278 2461.6 620.25 2456.37 620.25ZM2486.45 619V618.5L2507.62 554H2522.62L2543.78 618.5V619H2534.03L2515.78 561.25H2513.78L2495.53 619H2486.45ZM2500.2 600.083L2502.78 592.25H2526.78L2529.37 600.083H2500.2ZM2560.86 619V561.833H2539.28V554H2591.78V561.833H2570.19V619H2560.86ZM2602.13 619V554H2611.46V619H2602.13ZM2652.21 620.167C2645.6 620.167 2640.1 618.806 2635.71 616.083C2631.38 613.306 2628.13 609.389 2625.96 604.333C2623.85 599.278 2622.8 593.333 2622.8 586.5C2622.8 579.611 2623.85 573.667 2625.96 568.667C2628.13 563.611 2631.38 559.722 2635.71 557C2640.1 554.222 2645.6 552.833 2652.21 552.833C2658.88 552.833 2664.38 554.222 2668.71 557C2673.05 559.722 2676.27 563.611 2678.38 568.667C2680.55 573.667 2681.63 579.611 2681.63 586.5C2681.63 593.333 2680.55 599.278 2678.38 604.333C2676.27 609.389 2673.05 613.306 2668.71 616.083C2664.38 618.806 2658.88 620.167 2652.21 620.167ZM2652.21 612.667C2658.99 612.667 2663.99 610.389 2667.21 605.833C2670.49 601.222 2672.13 594.778 2672.13 586.5C2672.13 578.222 2670.49 571.806 2667.21 567.25C2663.99 562.639 2658.99 560.333 2652.21 560.333C2645.44 560.333 2640.41 562.639 2637.13 567.25C2633.91 571.806 2632.3 578.222 2632.3 586.5C2632.3 594.778 2633.91 601.222 2637.13 605.833C2640.41 610.389 2645.44 612.667 2652.21 612.667ZM2692.62 619V554H2709.62L2735.45 611.583H2737.45V554H2745.95V619H2728.95L2703.12 561.417H2701.12V619H2692.62Z" fill="white"/>
<path d="M4059.17 649L4038.33 584.5V584H4048.17L4066.42 641H4068.42L4086.5 584H4095.67V584.5L4074.83 649H4059.17ZM4129.38 650.167C4120.49 650.167 4113.96 647.75 4109.79 642.917C4105.68 638.083 4103.63 631.139 4103.63 622.083V584H4113.13V622.5C4113.13 629.5 4114.43 634.611 4117.04 637.833C4119.71 641.056 4123.88 642.667 4129.54 642.667C4135.21 642.667 4139.35 641.056 4141.96 637.833C4144.63 634.611 4145.96 629.5 4145.96 622.5V584H4155.13V622.083C4155.13 631.139 4153.07 638.083 4148.96 642.917C4144.91 647.75 4138.38 650.167 4129.38 650.167ZM4169.5 649V584H4178.83V641.167H4209.5V649H4169.5ZM4219.5 649V584H4236.5L4262.33 641.583H4264.33V584H4272.83V649H4255.83L4230 591.417H4228V649H4219.5ZM4287.86 649V584H4329.53V591.833H4297.19V610.25H4322.69V617.75H4297.19V641.167H4330.03V649H4287.86ZM4342.06 649V584H4366.31C4371.81 584 4376.23 584.778 4379.56 586.333C4382.89 587.889 4385.31 589.972 4386.81 592.583C4388.31 595.194 4389.06 598.111 4389.06 601.333C4389.06 605.556 4387.86 609.111 4385.48 612C4383.14 614.889 4379.67 616.889 4375.06 618L4390.89 648.5V649H4381.06L4365.81 619.25H4351.23V649H4342.06ZM4351.23 612.083H4365.73C4370.73 612.083 4374.28 611.194 4376.39 609.417C4378.5 607.583 4379.56 605.028 4379.56 601.75C4379.56 598.417 4378.5 595.889 4376.39 594.167C4374.28 592.389 4370.73 591.5 4365.73 591.5H4351.23V612.083ZM4394.19 649V648.5L4415.36 584H4430.36L4451.53 648.5V649H4441.78L4423.53 591.25H4421.53L4403.28 649H4394.19ZM4407.94 630.083L4410.53 622.25H4434.53L4437.11 630.083H4407.94ZM4460.32 649V584H4482.65C4490.26 584 4495.85 585.444 4499.4 588.333C4503.01 591.167 4504.82 594.972 4504.82 599.75C4504.82 602.75 4504.01 605.417 4502.4 607.75C4500.85 610.083 4498.43 611.639 4495.15 612.417V614.417C4499.32 615.139 4502.46 616.861 4504.57 619.583C4506.74 622.25 4507.82 625.722 4507.82 630C4507.82 635.667 4505.88 640.25 4501.99 643.75C4498.1 647.25 4492.1 649 4483.99 649H4460.32ZM4469.49 641.5H4483.9C4489.01 641.5 4492.71 640.472 4494.99 638.417C4497.32 636.306 4498.49 633.333 4498.49 629.5C4498.49 625.778 4497.35 622.889 4495.07 620.833C4492.79 618.778 4489.13 617.75 4484.07 617.75H4469.49V641.5ZM4469.49 610.5H4482.82C4487.15 610.5 4490.38 609.722 4492.49 608.167C4494.6 606.611 4495.65 604.222 4495.65 601C4495.65 594.667 4491.38 591.5 4482.82 591.5H4469.49V610.5ZM4518.95 649V584H4528.29V649H4518.95ZM4543.62 649V584H4552.95V641.167H4583.62V649H4543.62ZM4593.95 649V584H4603.29V649H4593.95ZM4635.2 649V591.833H4613.62V584H4666.12V591.833H4644.54V649H4635.2ZM4676.47 649V584H4685.81V649H4676.47ZM4701.14 649V584H4742.81V591.833H4710.47V610.25H4735.97V617.75H4710.47V641.167H4743.31V649H4701.14ZM4775.93 650.25C4771.71 650.25 4767.99 649.667 4764.76 648.5C4761.6 647.333 4758.9 645.722 4756.68 643.667C4754.51 641.556 4752.82 639.111 4751.6 636.333C4750.43 633.556 4749.74 630.556 4749.51 627.333H4758.51C4758.68 629.889 4759.43 632.361 4760.76 634.75C4762.1 637.083 4764.04 639 4766.6 640.5C4769.21 642 4772.46 642.75 4776.35 642.75C4780.57 642.75 4783.87 641.833 4786.26 640C4788.65 638.111 4789.85 635.556 4789.85 632.333C4789.85 629.111 4788.68 626.639 4786.35 624.917C4784.07 623.194 4781.18 621.75 4777.68 620.583L4771.43 618.5C4768.26 617.444 4765.24 616.222 4762.35 614.833C4759.46 613.389 4757.1 611.5 4755.26 609.167C4753.43 606.833 4752.51 603.778 4752.51 600C4752.51 596.333 4753.4 593.222 4755.18 590.667C4756.96 588.111 4759.43 586.167 4762.6 584.833C4765.76 583.444 4769.43 582.75 4773.6 582.75C4778.65 582.75 4782.82 583.667 4786.1 585.5C4789.37 587.278 4791.85 589.639 4793.51 592.583C4795.18 595.528 4796.12 598.778 4796.35 602.333H4787.35C4787.18 600.278 4786.6 598.333 4785.6 596.5C4784.65 594.667 4783.18 593.167 4781.18 592C4779.18 590.833 4776.54 590.25 4773.26 590.25C4769.71 590.25 4766.85 591.056 4764.68 592.667C4762.57 594.222 4761.51 596.389 4761.51 599.167C4761.51 602.278 4762.74 604.667 4765.18 606.333C4767.68 608 4770.65 609.389 4774.1 610.5L4780.43 612.583C4783.6 613.583 4786.57 614.806 4789.35 616.25C4792.18 617.694 4794.46 619.611 4796.18 622C4797.96 624.333 4798.85 627.472 4798.85 631.417C4798.85 637.417 4796.76 642.056 4792.6 645.333C4788.43 648.611 4782.87 650.25 4775.93 650.25Z" fill="white"/>
<path d="M1542.42 1538.17C1533.53 1538.17 1527 1535.75 1522.83 1530.92C1518.72 1526.08 1516.67 1519.14 1516.67 1510.08V1472H1526.17V1510.5C1526.17 1517.5 1527.47 1522.61 1530.08 1525.83C1532.75 1529.06 1536.92 1530.67 1542.58 1530.67C1548.25 1530.67 1552.39 1529.06 1555 1525.83C1557.67 1522.61 1559 1517.5 1559 1510.5V1472H1568.17V1510.08C1568.17 1519.14 1566.11 1526.08 1562 1530.92C1557.94 1535.75 1551.42 1538.17 1542.42 1538.17ZM1582.54 1537V1472H1599.54L1625.37 1529.58H1627.37V1472H1635.87V1537H1618.87L1593.04 1479.42H1591.04V1537H1582.54ZM1650.9 1537V1472H1692.57V1479.83H1660.23V1498.25H1685.73V1505.75H1660.23V1529.17H1693.07V1537H1650.9ZM1705.1 1537V1472H1722.1L1747.93 1529.58H1749.93V1472H1758.43V1537H1741.43L1715.6 1479.42H1713.6V1537H1705.1ZM1797.96 1538.25C1789.01 1538.25 1782.01 1535.31 1776.96 1529.42C1771.96 1523.47 1769.46 1515.17 1769.46 1504.5C1769.46 1493.78 1771.98 1485.47 1777.04 1479.58C1782.1 1473.69 1789.07 1470.75 1797.96 1470.75C1803.12 1470.75 1807.6 1471.75 1811.37 1473.75C1815.21 1475.69 1818.23 1478.44 1820.46 1482C1822.73 1485.56 1824.1 1489.72 1824.54 1494.5H1815.12C1814.57 1489.56 1812.76 1485.61 1809.71 1482.67C1806.71 1479.72 1802.73 1478.25 1797.79 1478.25C1791.73 1478.25 1787.07 1480.56 1783.79 1485.17C1780.57 1489.72 1778.96 1496.17 1778.96 1504.5C1778.96 1512.89 1780.6 1519.36 1783.87 1523.92C1787.21 1528.47 1791.82 1530.75 1797.71 1530.75C1802.93 1530.75 1807.01 1529.19 1809.96 1526.08C1812.96 1522.97 1814.68 1519.11 1815.12 1514.5H1824.54C1824.1 1519.22 1822.73 1523.39 1820.46 1527C1818.23 1530.56 1815.23 1533.33 1811.46 1535.33C1807.68 1537.28 1803.18 1538.25 1797.96 1538.25ZM1833.42 1537V1472H1857.67C1863.17 1472 1867.58 1472.78 1870.92 1474.33C1874.25 1475.89 1876.67 1477.97 1878.17 1480.58C1879.67 1483.19 1880.42 1486.11 1880.42 1489.33C1880.42 1493.56 1879.22 1497.11 1876.83 1500C1874.5 1502.89 1871.03 1504.89 1866.42 1506L1882.25 1536.5V1537H1872.42L1857.17 1507.25H1842.58V1537H1833.42ZM1842.58 1500.08H1857.08C1862.08 1500.08 1865.64 1499.19 1867.75 1497.42C1869.86 1495.58 1870.92 1493.03 1870.92 1489.75C1870.92 1486.42 1869.86 1483.89 1867.75 1482.17C1865.64 1480.39 1862.08 1479.5 1857.08 1479.5H1842.58V1500.08ZM1904.56 1537V1509L1883.56 1472.5V1472H1894.06L1904.89 1491C1905.61 1492.22 1906.28 1493.5 1906.89 1494.83C1907.5 1496.17 1908.17 1497.72 1908.89 1499.5H1910.89C1911.61 1497.72 1912.25 1496.17 1912.81 1494.83C1913.42 1493.5 1914.09 1492.22 1914.81 1491L1925.48 1472H1934.89V1472.5L1913.89 1509.17V1537H1904.56ZM1943.38 1537V1472H1966.55C1974.82 1472 1980.85 1473.72 1984.63 1477.17C1988.46 1480.56 1990.38 1485.11 1990.38 1490.83C1990.38 1496.56 1988.46 1501.14 1984.63 1504.58C1980.85 1507.97 1974.82 1509.67 1966.55 1509.67H1952.71V1537H1943.38ZM1952.71 1502.17H1966.13C1971.35 1502.17 1975.1 1501.25 1977.38 1499.42C1979.71 1497.58 1980.88 1494.72 1980.88 1490.83C1980.88 1486.94 1979.71 1484.08 1977.38 1482.25C1975.1 1480.42 1971.35 1479.5 1966.13 1479.5H1952.71V1502.17ZM2014.94 1537V1479.83H1993.36V1472H2045.86V1479.83H2024.28V1537H2014.94ZM2055.88 1537V1472H2097.55V1479.83H2065.21V1498.25H2090.71V1505.75H2065.21V1529.17H2098.05V1537H2055.88ZM2110.08 1537V1472H2131.33C2142.55 1472 2150.66 1474.86 2155.66 1480.58C2160.72 1486.25 2163.24 1494.22 2163.24 1504.5C2163.24 1514.78 2160.72 1522.78 2155.66 1528.5C2150.66 1534.17 2142.55 1537 2131.33 1537H2110.08ZM2119.49 1529.17H2130.49C2136.11 1529.17 2140.61 1528.28 2143.99 1526.5C2147.44 1524.67 2149.91 1521.92 2151.41 1518.25C2152.97 1514.58 2153.74 1510 2153.74 1504.5C2153.74 1498.94 2152.97 1494.36 2151.41 1490.75C2149.91 1487.08 2147.44 1484.36 2143.99 1482.58C2140.61 1480.75 2136.11 1479.83 2130.49 1479.83H2119.49V1529.17ZM2194.26 1537V1472H2215.51C2226.73 1472 2234.84 1474.86 2239.84 1480.58C2244.9 1486.25 2247.42 1494.22 2247.42 1504.5C2247.42 1514.78 2244.9 1522.78 2239.84 1528.5C2234.84 1534.17 2226.73 1537 2215.51 1537H2194.26ZM2203.67 1529.17H2214.67C2220.29 1529.17 2224.79 1528.28 2228.17 1526.5C2231.62 1524.67 2234.09 1521.92 2235.59 1518.25C2237.15 1514.58 2237.92 1510 2237.92 1504.5C2237.92 1498.94 2237.15 1494.36 2235.59 1490.75C2234.09 1487.08 2231.62 1484.36 2228.17 1482.58C2224.79 1480.75 2220.29 1479.83 2214.67 1479.83H2203.67V1529.17ZM2250.59 1537V1536.5L2271.76 1472H2286.76L2307.92 1536.5V1537H2298.17L2279.92 1479.25H2277.92L2259.67 1537H2250.59ZM2264.34 1518.08L2266.92 1510.25H2290.92L2293.51 1518.08H2264.34ZM2325 1537V1479.83H2303.42V1472H2355.92V1479.83H2334.33V1537H2325ZM2351.47 1537V1536.5L2372.64 1472H2387.64L2408.8 1536.5V1537H2399.05L2380.8 1479.25H2378.8L2360.55 1537H2351.47ZM2365.22 1518.08L2367.8 1510.25H2391.8L2394.39 1518.08H2365.22Z" fill="white"/>
<path d="M1890.33 2441V2440.5L1911.5 2376H1926.5L1947.67 2440.5V2441H1937.92L1919.67 2383.25H1917.67L1899.42 2441H1890.33ZM1904.08 2422.08L1906.67 2414.25H1930.67L1933.25 2422.08H1904.08ZM1979.3 2442.25C1970.36 2442.25 1963.36 2439.31 1958.3 2433.42C1953.3 2427.47 1950.8 2419.17 1950.8 2408.5C1950.8 2397.78 1953.33 2389.47 1958.38 2383.58C1963.44 2377.69 1970.41 2374.75 1979.3 2374.75C1984.47 2374.75 1988.94 2375.75 1992.72 2377.75C1996.55 2379.69 1999.58 2382.44 2001.8 2386C2004.08 2389.56 2005.44 2393.72 2005.88 2398.5H1996.47C1995.91 2393.56 1994.11 2389.61 1991.05 2386.67C1988.05 2383.72 1984.08 2382.25 1979.13 2382.25C1973.08 2382.25 1968.41 2384.56 1965.13 2389.17C1961.91 2393.72 1960.3 2400.17 1960.3 2408.5C1960.3 2416.89 1961.94 2423.36 1965.22 2427.92C1968.55 2432.47 1973.16 2434.75 1979.05 2434.75C1984.27 2434.75 1988.36 2433.19 1991.3 2430.08C1994.3 2426.97 1996.02 2423.11 1996.47 2418.5H2005.88C2005.44 2423.22 2004.08 2427.39 2001.8 2431C1999.58 2434.56 1996.58 2437.33 1992.8 2439.33C1989.02 2441.28 1984.52 2442.25 1979.3 2442.25ZM2040.92 2442.25C2031.98 2442.25 2024.98 2439.31 2019.92 2433.42C2014.92 2427.47 2012.42 2419.17 2012.42 2408.5C2012.42 2397.78 2014.95 2389.47 2020.01 2383.58C2025.06 2377.69 2032.03 2374.75 2040.92 2374.75C2046.09 2374.75 2050.56 2375.75 2054.34 2377.75C2058.17 2379.69 2061.2 2382.44 2063.42 2386C2065.7 2389.56 2067.06 2393.72 2067.51 2398.5H2058.09C2057.53 2393.56 2055.73 2389.61 2052.67 2386.67C2049.67 2383.72 2045.7 2382.25 2040.76 2382.25C2034.7 2382.25 2030.03 2384.56 2026.76 2389.17C2023.53 2393.72 2021.92 2400.17 2021.92 2408.5C2021.92 2416.89 2023.56 2423.36 2026.84 2427.92C2030.17 2432.47 2034.78 2434.75 2040.67 2434.75C2045.89 2434.75 2049.98 2433.19 2052.92 2430.08C2055.92 2426.97 2057.64 2423.11 2058.09 2418.5H2067.51C2067.06 2423.22 2065.7 2427.39 2063.42 2431C2061.2 2434.56 2058.2 2437.33 2054.42 2439.33C2050.64 2441.28 2046.14 2442.25 2040.92 2442.25ZM2076.72 2441V2376H2086.05V2441H2076.72ZM2101.38 2441V2376H2122.63C2133.86 2376 2141.97 2378.86 2146.97 2384.58C2152.02 2390.25 2154.55 2398.22 2154.55 2408.5C2154.55 2418.78 2152.02 2426.78 2146.97 2432.5C2141.97 2438.17 2133.86 2441 2122.63 2441H2101.38ZM2110.8 2433.17H2121.8C2127.41 2433.17 2131.91 2432.28 2135.3 2430.5C2138.74 2428.67 2141.22 2425.92 2142.72 2422.25C2144.27 2418.58 2145.05 2414 2145.05 2408.5C2145.05 2402.94 2144.27 2398.36 2142.72 2394.75C2141.22 2391.08 2138.74 2388.36 2135.3 2386.58C2131.91 2384.75 2127.41 2383.83 2121.8 2383.83H2110.8V2433.17ZM2165.54 2441V2376H2207.21V2383.83H2174.88V2402.25H2200.38V2409.75H2174.88V2433.17H2207.71V2441H2165.54ZM2219.74 2441V2376H2236.74L2262.58 2433.58H2264.58V2376H2273.08V2441H2256.08L2230.24 2383.42H2228.24V2441H2219.74ZM2304.68 2441V2383.83H2283.1V2376H2335.6V2383.83H2314.02V2441H2304.68ZM2331.15 2441V2440.5L2352.32 2376H2367.32L2388.49 2440.5V2441H2378.74L2360.49 2383.25H2358.49L2340.24 2441H2331.15ZM2344.9 2422.08L2347.49 2414.25H2371.49L2374.07 2422.08H2344.9ZM2397.28 2441V2376H2406.61V2433.17H2437.28V2441H2397.28ZM2467.3 2441V2376H2508.97V2383.83H2476.63V2402.25H2502.13V2409.75H2476.63V2433.17H2509.47V2441H2467.3ZM2515.5 2441V2440.5L2536.67 2406.25L2518.67 2376.5V2376H2528.5L2542.92 2400H2544.58L2558.83 2376H2568.5V2376.5L2550.5 2406.25L2571.67 2440.5V2441H2561.17L2544.25 2412.33H2542.58L2525.83 2441H2515.5ZM2580.68 2441V2376H2603.85C2612.12 2376 2618.15 2377.72 2621.93 2381.17C2625.76 2384.56 2627.68 2389.11 2627.68 2394.83C2627.68 2400.56 2625.76 2405.14 2621.93 2408.58C2618.15 2411.97 2612.12 2413.67 2603.85 2413.67H2590.01V2441H2580.68ZM2590.01 2406.17H2603.43C2608.65 2406.17 2612.4 2405.25 2614.68 2403.42C2617.01 2401.58 2618.18 2398.72 2618.18 2394.83C2618.18 2390.94 2617.01 2388.08 2614.68 2386.25C2612.4 2384.42 2608.65 2383.5 2603.43 2383.5H2590.01V2406.17ZM2663.62 2442.17C2657 2442.17 2651.5 2440.81 2647.12 2438.08C2642.78 2435.31 2639.53 2431.39 2637.37 2426.33C2635.25 2421.28 2634.2 2415.33 2634.2 2408.5C2634.2 2401.61 2635.25 2395.67 2637.37 2390.67C2639.53 2385.61 2642.78 2381.72 2647.12 2379C2651.5 2376.22 2657 2374.83 2663.62 2374.83C2670.28 2374.83 2675.78 2376.22 2680.12 2379C2684.45 2381.72 2687.67 2385.61 2689.78 2390.67C2691.95 2395.67 2693.03 2401.61 2693.03 2408.5C2693.03 2415.33 2691.95 2421.28 2689.78 2426.33C2687.67 2431.39 2684.45 2435.31 2680.12 2438.08C2675.78 2440.81 2670.28 2442.17 2663.62 2442.17ZM2663.62 2434.67C2670.39 2434.67 2675.39 2432.39 2678.62 2427.83C2681.89 2423.22 2683.53 2416.78 2683.53 2408.5C2683.53 2400.22 2681.89 2393.81 2678.62 2389.25C2675.39 2384.64 2670.39 2382.33 2663.62 2382.33C2656.84 2382.33 2651.81 2384.64 2648.53 2389.25C2645.31 2393.81 2643.7 2400.22 2643.7 2408.5C2643.7 2416.78 2645.31 2423.22 2648.53 2427.83C2651.81 2432.39 2656.84 2434.67 2663.62 2434.67ZM2726.27 2442.25C2722.05 2442.25 2718.33 2441.67 2715.1 2440.5C2711.94 2439.33 2709.24 2437.72 2707.02 2435.67C2704.85 2433.56 2703.16 2431.11 2701.94 2428.33C2700.77 2425.56 2700.08 2422.56 2699.85 2419.33H2708.85C2709.02 2421.89 2709.77 2424.36 2711.1 2426.75C2712.44 2429.08 2714.38 2431 2716.94 2432.5C2719.55 2434 2722.8 2434.75 2726.69 2434.75C2730.91 2434.75 2734.21 2433.83 2736.6 2432C2738.99 2430.11 2740.19 2427.56 2740.19 2424.33C2740.19 2421.11 2739.02 2418.64 2736.69 2416.92C2734.41 2415.19 2731.52 2413.75 2728.02 2412.58L2721.77 2410.5C2718.6 2409.44 2715.58 2408.22 2712.69 2406.83C2709.8 2405.39 2707.44 2403.5 2705.6 2401.17C2703.77 2398.83 2702.85 2395.78 2702.85 2392C2702.85 2388.33 2703.74 2385.22 2705.52 2382.67C2707.3 2380.11 2709.77 2378.17 2712.94 2376.83C2716.1 2375.44 2719.77 2374.75 2723.94 2374.75C2728.99 2374.75 2733.16 2375.67 2736.44 2377.5C2739.71 2379.28 2742.19 2381.64 2743.85 2384.58C2745.52 2387.53 2746.46 2390.78 2746.69 2394.33H2737.69C2737.52 2392.28 2736.94 2390.33 2735.94 2388.5C2734.99 2386.67 2733.52 2385.17 2731.52 2384C2729.52 2382.83 2726.88 2382.25 2723.6 2382.25C2720.05 2382.25 2717.19 2383.06 2715.02 2384.67C2712.91 2386.22 2711.85 2388.39 2711.85 2391.17C2711.85 2394.28 2713.08 2396.67 2715.52 2398.33C2718.02 2400 2720.99 2401.39 2724.44 2402.5L2730.77 2404.58C2733.94 2405.58 2736.91 2406.81 2739.69 2408.25C2742.52 2409.69 2744.8 2411.61 2746.52 2414C2748.3 2416.33 2749.19 2419.47 2749.19 2423.42C2749.19 2429.42 2747.1 2434.06 2742.94 2437.33C2738.77 2440.61 2733.21 2442.25 2726.27 2442.25ZM2783.92 2442.17C2775.03 2442.17 2768.5 2439.75 2764.33 2434.92C2760.22 2430.08 2758.17 2423.14 2758.17 2414.08V2376H2767.67V2414.5C2767.67 2421.5 2768.97 2426.61 2771.58 2429.83C2774.25 2433.06 2778.42 2434.67 2784.08 2434.67C2789.75 2434.67 2793.89 2433.06 2796.5 2429.83C2799.17 2426.61 2800.5 2421.5 2800.5 2414.5V2376H2809.67V2414.08C2809.67 2423.14 2807.61 2430.08 2803.5 2434.92C2799.44 2439.75 2792.92 2442.17 2783.92 2442.17ZM2824.04 2441V2376H2848.29C2853.79 2376 2858.21 2376.78 2861.54 2378.33C2864.87 2379.89 2867.29 2381.97 2868.79 2384.58C2870.29 2387.19 2871.04 2390.11 2871.04 2393.33C2871.04 2397.56 2869.84 2401.11 2867.46 2404C2865.12 2406.89 2861.65 2408.89 2857.04 2410L2872.87 2440.5V2441H2863.04L2847.79 2411.25H2833.21V2441H2824.04ZM2833.21 2404.08H2847.71C2852.71 2404.08 2856.26 2403.19 2858.37 2401.42C2860.48 2399.58 2861.54 2397.03 2861.54 2393.75C2861.54 2390.42 2860.48 2387.89 2858.37 2386.17C2856.26 2384.39 2852.71 2383.5 2847.71 2383.5H2833.21V2404.08ZM2882.34 2441V2376H2924.01V2383.83H2891.67V2402.25H2917.17V2409.75H2891.67V2433.17H2924.51V2441H2882.34Z" fill="white"/>
<path d="M3334.17 2566L3321.75 2501.5V2501H3330.92L3341.75 2559H3343.75L3356.33 2501H3372.17L3384.92 2559H3386.92L3397.58 2501H3406.25V2501.5L3394 2566H3377.75L3365 2508.08H3363L3350.33 2566H3334.17ZM3416.54 2566V2501H3458.21V2508.83H3425.87V2527.25H3451.37V2534.75H3425.87V2558.17H3458.71V2566H3416.54ZM3464.57 2566V2565.5L3485.74 2501H3500.74L3521.9 2565.5V2566H3512.15L3493.9 2508.25H3491.9L3473.65 2566H3464.57ZM3478.32 2547.08L3480.9 2539.25H3504.9L3507.49 2547.08H3478.32ZM3530.7 2566V2501H3539.87V2528.5H3544.87L3566.7 2501H3577.12V2501.5L3552.2 2532.08L3579.2 2565.5V2566H3567.87L3544.87 2536.83H3539.87V2566H3530.7ZM3632.74 2567.25C3623.79 2567.25 3616.79 2564.31 3611.74 2558.42C3606.74 2552.47 3604.24 2544.17 3604.24 2533.5C3604.24 2522.78 3606.77 2514.47 3611.82 2508.58C3616.88 2502.69 3623.85 2499.75 3632.74 2499.75C3637.9 2499.75 3642.38 2500.75 3646.15 2502.75C3649.99 2504.69 3653.02 2507.44 3655.24 2511C3657.52 2514.56 3658.88 2518.72 3659.32 2523.5H3649.9C3649.35 2518.56 3647.54 2514.61 3644.49 2511.67C3641.49 2508.72 3637.52 2507.25 3632.57 2507.25C3626.52 2507.25 3621.85 2509.56 3618.57 2514.17C3615.35 2518.72 3613.74 2525.17 3613.74 2533.5C3613.74 2541.89 3615.38 2548.36 3618.65 2552.92C3621.99 2557.47 3626.6 2559.75 3632.49 2559.75C3637.71 2559.75 3641.79 2558.19 3644.74 2555.08C3647.74 2551.97 3649.46 2548.11 3649.9 2543.5H3659.32C3658.88 2548.22 3657.52 2552.39 3655.24 2556C3653.02 2559.56 3650.02 2562.33 3646.24 2564.33C3642.46 2566.28 3637.96 2567.25 3632.74 2567.25ZM3668.2 2566V2501H3692.45C3697.95 2501 3702.37 2501.78 3705.7 2503.33C3709.03 2504.89 3711.45 2506.97 3712.95 2509.58C3714.45 2512.19 3715.2 2515.11 3715.2 2518.33C3715.2 2522.56 3714 2526.11 3711.62 2529C3709.28 2531.89 3705.81 2533.89 3701.2 2535L3717.03 2565.5V2566H3707.2L3691.95 2536.25H3677.37V2566H3668.2ZM3677.37 2529.08H3691.87C3696.87 2529.08 3700.42 2528.19 3702.53 2526.42C3704.64 2524.58 3705.7 2522.03 3705.7 2518.75C3705.7 2515.42 3704.64 2512.89 3702.53 2511.17C3700.42 2509.39 3696.87 2508.5 3691.87 2508.5H3677.37V2529.08ZM3726.5 2566V2501H3768.17V2508.83H3735.83V2527.25H3761.33V2534.75H3735.83V2558.17H3768.67V2566H3726.5ZM3780.7 2566V2501H3801.95C3813.17 2501 3821.28 2503.86 3826.28 2509.58C3831.34 2515.25 3833.87 2523.22 3833.87 2533.5C3833.87 2543.78 3831.34 2551.78 3826.28 2557.5C3821.28 2563.17 3813.17 2566 3801.95 2566H3780.7ZM3790.12 2558.17H3801.12C3806.73 2558.17 3811.23 2557.28 3814.62 2555.5C3818.06 2553.67 3820.53 2550.92 3822.03 2547.25C3823.59 2543.58 3824.37 2539 3824.37 2533.5C3824.37 2527.94 3823.59 2523.36 3822.03 2519.75C3820.53 2516.08 3818.06 2513.36 3814.62 2511.58C3811.23 2509.75 3806.73 2508.83 3801.12 2508.83H3790.12V2558.17ZM3844.86 2566V2501H3886.53V2508.83H3854.19V2527.25H3879.69V2534.75H3854.19V2558.17H3887.03V2566H3844.86ZM3899.06 2566V2501H3916.06L3941.89 2558.58H3943.89V2501H3952.39V2566H3935.39L3909.56 2508.42H3907.56V2566H3899.06ZM3984 2566V2508.83H3962.42V2501H4014.92V2508.83H3993.33V2566H3984ZM4025.27 2566V2501H4034.6V2566H4025.27ZM4043.77 2566V2565.5L4064.94 2501H4079.94L4101.1 2565.5V2566H4091.35L4073.1 2508.25H4071.1L4052.85 2566H4043.77ZM4057.52 2547.08L4060.1 2539.25H4084.1L4086.69 2547.08H4057.52ZM4109.9 2566V2501H4119.23V2558.17H4149.9V2566H4109.9Z" fill="white"/>
<path d="M4448.92 2084.17C4442.31 2084.17 4436.81 2082.81 4432.42 2080.08C4428.08 2077.31 4424.83 2073.39 4422.67 2068.33C4420.56 2063.28 4419.5 2057.33 4419.5 2050.5C4419.5 2043.61 4420.56 2037.67 4422.67 2032.67C4424.83 2027.61 4428.08 2023.72 4432.42 2021C4436.81 2018.22 4442.31 2016.83 4448.92 2016.83C4455.58 2016.83 4461.08 2018.22 4465.42 2021C4469.75 2023.72 4472.97 2027.61 4475.08 2032.67C4477.25 2037.67 4478.33 2043.61 4478.33 2050.5C4478.33 2057.33 4477.25 2063.28 4475.08 2068.33C4472.97 2073.39 4469.75 2077.31 4465.42 2080.08C4461.08 2082.81 4455.58 2084.17 4448.92 2084.17ZM4448.92 2076.67C4455.69 2076.67 4460.69 2074.39 4463.92 2069.83C4467.19 2065.22 4468.83 2058.78 4468.83 2050.5C4468.83 2042.22 4467.19 2035.81 4463.92 2031.25C4460.69 2026.64 4455.69 2024.33 4448.92 2024.33C4442.14 2024.33 4437.11 2026.64 4433.83 2031.25C4430.61 2035.81 4429 2042.22 4429 2050.5C4429 2058.78 4430.61 2065.22 4433.83 2069.83C4437.11 2074.39 4442.14 2076.67 4448.92 2076.67ZM4489.32 2083V2018H4498.65V2075.17H4529.32V2083H4489.32ZM4539.32 2083V2018H4560.57C4571.79 2018 4579.9 2020.86 4584.9 2026.58C4589.96 2032.25 4592.49 2040.22 4592.49 2050.5C4592.49 2060.78 4589.96 2068.78 4584.9 2074.5C4579.9 2080.17 4571.79 2083 4560.57 2083H4539.32ZM4548.74 2075.17H4559.74C4565.35 2075.17 4569.85 2074.28 4573.24 2072.5C4576.68 2070.67 4579.15 2067.92 4580.65 2064.25C4582.21 2060.58 4582.99 2056 4582.99 2050.5C4582.99 2044.94 4582.21 2040.36 4580.65 2036.75C4579.15 2033.08 4576.68 2030.36 4573.24 2028.58C4569.85 2026.75 4565.35 2025.83 4559.74 2025.83H4548.74V2075.17ZM4623.5 2083V2018H4644.75C4655.97 2018 4664.08 2020.86 4669.08 2026.58C4674.14 2032.25 4676.67 2040.22 4676.67 2050.5C4676.67 2060.78 4674.14 2068.78 4669.08 2074.5C4664.08 2080.17 4655.97 2083 4644.75 2083H4623.5ZM4632.92 2075.17H4643.92C4649.53 2075.17 4654.03 2074.28 4657.42 2072.5C4660.86 2070.67 4663.33 2067.92 4664.83 2064.25C4666.39 2060.58 4667.17 2056 4667.17 2050.5C4667.17 2044.94 4666.39 2040.36 4664.83 2036.75C4663.33 2033.08 4660.86 2030.36 4657.42 2028.58C4654.03 2026.75 4649.53 2025.83 4643.92 2025.83H4632.92V2075.17ZM4679.83 2083V2082.5L4701 2018H4716L4737.17 2082.5V2083H4727.42L4709.17 2025.25H4707.17L4688.92 2083H4679.83ZM4693.58 2064.08L4696.17 2056.25H4720.17L4722.75 2064.08H4693.58ZM4754.24 2083V2025.83H4732.66V2018H4785.16V2025.83H4763.58V2083H4754.24ZM4780.71 2083V2082.5L4801.88 2018H4816.88L4838.05 2082.5V2083H4828.3L4810.05 2025.25H4808.05L4789.8 2083H4780.71ZM4794.46 2064.08L4797.05 2056.25H4821.05L4823.63 2064.08H4794.46Z" fill="white"/>
<path d="M4499.5 1541V1476H4521.83C4529.44 1476 4535.03 1477.44 4538.58 1480.33C4542.19 1483.17 4544 1486.97 4544 1491.75C4544 1494.75 4543.19 1497.42 4541.58 1499.75C4540.03 1502.08 4537.61 1503.64 4534.33 1504.42V1506.42C4538.5 1507.14 4541.64 1508.86 4543.75 1511.58C4545.92 1514.25 4547 1517.72 4547 1522C4547 1527.67 4545.06 1532.25 4541.17 1535.75C4537.28 1539.25 4531.28 1541 4523.17 1541H4499.5ZM4508.67 1533.5H4523.08C4528.19 1533.5 4531.89 1532.47 4534.17 1530.42C4536.5 1528.31 4537.67 1525.33 4537.67 1521.5C4537.67 1517.78 4536.53 1514.89 4534.25 1512.83C4531.97 1510.78 4528.31 1509.75 4523.25 1509.75H4508.67V1533.5ZM4508.67 1502.5H4522C4526.33 1502.5 4529.56 1501.72 4531.67 1500.17C4533.78 1498.61 4534.83 1496.22 4534.83 1493C4534.83 1486.67 4530.56 1483.5 4522 1483.5H4508.67V1502.5ZM4551.63 1541V1540.5L4572.8 1476H4587.8L4608.97 1540.5V1541H4599.22L4580.97 1483.25H4578.97L4560.72 1541H4551.63ZM4565.38 1522.08L4567.97 1514.25H4591.97L4594.55 1522.08H4565.38ZM4640.6 1542.25C4631.66 1542.25 4624.66 1539.31 4619.6 1533.42C4614.6 1527.47 4612.1 1519.17 4612.1 1508.5C4612.1 1497.78 4614.63 1489.47 4619.68 1483.58C4624.74 1477.69 4631.71 1474.75 4640.6 1474.75C4645.77 1474.75 4650.24 1475.75 4654.02 1477.75C4657.85 1479.69 4660.88 1482.44 4663.1 1486C4665.38 1489.56 4666.74 1493.72 4667.18 1498.5H4657.77C4657.21 1493.56 4655.41 1489.61 4652.35 1486.67C4649.35 1483.72 4645.38 1482.25 4640.43 1482.25C4634.38 1482.25 4629.71 1484.56 4626.43 1489.17C4623.21 1493.72 4621.6 1500.17 4621.6 1508.5C4621.6 1516.89 4623.24 1523.36 4626.52 1527.92C4629.85 1532.47 4634.46 1534.75 4640.35 1534.75C4645.57 1534.75 4649.66 1533.19 4652.6 1530.08C4655.6 1526.97 4657.32 1523.11 4657.77 1518.5H4667.18C4666.74 1523.22 4665.38 1527.39 4663.1 1531C4660.88 1534.56 4657.88 1537.33 4654.1 1539.33C4650.32 1541.28 4645.82 1542.25 4640.6 1542.25ZM4676.06 1541V1476H4685.23V1503.5H4690.23L4712.06 1476H4722.48V1476.5L4697.56 1507.08L4724.56 1540.5V1541H4713.23L4690.23 1511.83H4685.23V1541H4676.06ZM4733.58 1541V1476H4754.83C4766.05 1476 4774.17 1478.86 4779.17 1484.58C4784.22 1490.25 4786.75 1498.22 4786.75 1508.5C4786.75 1518.78 4784.22 1526.78 4779.17 1532.5C4774.17 1538.17 4766.05 1541 4754.83 1541H4733.58ZM4743 1533.17H4754C4759.61 1533.17 4764.11 1532.28 4767.5 1530.5C4770.94 1528.67 4773.42 1525.92 4774.92 1522.25C4776.47 1518.58 4777.25 1514 4777.25 1508.5C4777.25 1502.94 4776.47 1498.36 4774.92 1494.75C4773.42 1491.08 4770.94 1488.36 4767.5 1486.58C4764.11 1484.75 4759.61 1483.83 4754 1483.83H4743V1533.17ZM4823.16 1542.17C4816.55 1542.17 4811.05 1540.81 4806.66 1538.08C4802.33 1535.31 4799.08 1531.39 4796.91 1526.33C4794.8 1521.28 4793.74 1515.33 4793.74 1508.5C4793.74 1501.61 4794.8 1495.67 4796.91 1490.67C4799.08 1485.61 4802.33 1481.72 4806.66 1479C4811.05 1476.22 4816.55 1474.83 4823.16 1474.83C4829.83 1474.83 4835.33 1476.22 4839.66 1479C4843.99 1481.72 4847.21 1485.61 4849.33 1490.67C4851.49 1495.67 4852.58 1501.61 4852.58 1508.5C4852.58 1515.33 4851.49 1521.28 4849.33 1526.33C4847.21 1531.39 4843.99 1535.31 4839.66 1538.08C4835.33 1540.81 4829.83 1542.17 4823.16 1542.17ZM4823.16 1534.67C4829.94 1534.67 4834.94 1532.39 4838.16 1527.83C4841.44 1523.22 4843.08 1516.78 4843.08 1508.5C4843.08 1500.22 4841.44 1493.81 4838.16 1489.25C4834.94 1484.64 4829.94 1482.33 4823.16 1482.33C4816.38 1482.33 4811.35 1484.64 4808.08 1489.25C4804.85 1493.81 4803.24 1500.22 4803.24 1508.5C4803.24 1516.78 4804.85 1523.22 4808.08 1527.83C4811.35 1532.39 4816.38 1534.67 4823.16 1534.67ZM4888.98 1542.17C4882.37 1542.17 4876.87 1540.81 4872.48 1538.08C4868.15 1535.31 4864.9 1531.39 4862.73 1526.33C4860.62 1521.28 4859.56 1515.33 4859.56 1508.5C4859.56 1501.61 4860.62 1495.67 4862.73 1490.67C4864.9 1485.61 4868.15 1481.72 4872.48 1479C4876.87 1476.22 4882.37 1474.83 4888.98 1474.83C4895.65 1474.83 4901.15 1476.22 4905.48 1479C4909.81 1481.72 4913.03 1485.61 4915.15 1490.67C4917.31 1495.67 4918.4 1501.61 4918.4 1508.5C4918.4 1515.33 4917.31 1521.28 4915.15 1526.33C4913.03 1531.39 4909.81 1535.31 4905.48 1538.08C4901.15 1540.81 4895.65 1542.17 4888.98 1542.17ZM4888.98 1534.67C4895.76 1534.67 4900.76 1532.39 4903.98 1527.83C4907.26 1523.22 4908.9 1516.78 4908.9 1508.5C4908.9 1500.22 4907.26 1493.81 4903.98 1489.25C4900.76 1484.64 4895.76 1482.33 4888.98 1482.33C4882.2 1482.33 4877.17 1484.64 4873.9 1489.25C4870.67 1493.81 4869.06 1500.22 4869.06 1508.5C4869.06 1516.78 4870.67 1523.22 4873.9 1527.83C4877.17 1532.39 4882.2 1534.67 4888.98 1534.67ZM4929.38 1541V1476H4953.63C4959.13 1476 4963.55 1476.78 4966.88 1478.33C4970.22 1479.89 4972.63 1481.97 4974.13 1484.58C4975.63 1487.19 4976.38 1490.11 4976.38 1493.33C4976.38 1497.56 4975.19 1501.11 4972.8 1504C4970.47 1506.89 4966.99 1508.89 4962.38 1510L4978.22 1540.5V1541H4968.38L4953.13 1511.25H4938.55V1541H4929.38ZM4938.55 1504.08H4953.05C4958.05 1504.08 4961.61 1503.19 4963.72 1501.42C4965.83 1499.58 4966.88 1497.03 4966.88 1493.75C4966.88 1490.42 4965.83 1487.89 4963.72 1486.17C4961.61 1484.39 4958.05 1483.5 4953.05 1483.5H4938.55V1504.08Z" fill="white"/>
<path d="M2824 1351.5H1257H1014L782.5 1132.5H639.5" stroke="#991100" stroke-width="10"/>
<path d="M305 656.5V391H2597.5H2986.5V772.5" stroke="#991100" stroke-width="10"/>
<path d="M3047 1739.5H2279L1863 2320H263.5V1209.5" stroke="#991100" stroke-width="10"/>
<path d="M3664.5 1597.5H3993L4176.5 2314H6552V1206.5" stroke="#910000" stroke-width="10"/>
<path d="M3589.5 1334H5272.5L5442.5 955.5H6145.5" stroke="#910000" stroke-width="10"/>
<path d="M3563 956H3714.97L4000.47 385H6383.5V762" stroke="#991100" stroke-width="10"/>
<path d="M3259 767V18.5C3755.33 18.5 6368.2 5 6385 5L6383 498.5" stroke="#991100" stroke-width="10"/>
<path d="M3219 767C3163.8 767 3119 811.8 3119 867C3119 922.2 3163.8 967 3219 967C3274.2 967 3319 922.2 3319 867C3319 811.8 3274.2 767 3219 767ZM3229 917H3209V897H3229V917ZM3229 877H3209V817H3229V877Z" fill="#991100"/>
<path d="M3007 1285.84V1268.29C3007 1255.18 3007 1248.62 3004.32 1243.74C3002.56 1240.54 3000.04 1237.88 2997 1236.03C2992.36 1233.21 2986.13 1233.21 2973.67 1233.21H2940.33C2927.87 1233.21 2921.64 1233.21 2917 1236.03C2913.96 1237.88 2911.44 1240.54 2909.68 1243.74C2907 1248.62 2907 1255.18 2907 1268.29V1285.84M3007 1285.84C3007 1295.63 3007 1300.52 3006.23 1304.58C3004.69 1312.75 3000.88 1320.25 2995.28 1326.14C2989.69 1332.03 2982.56 1336.04 2974.8 1337.66C2970.94 1338.47 2966.3 1338.47 2957 1338.47C2947.7 1338.47 2943.06 1338.47 2939.2 1337.66C2931.44 1336.04 2924.31 1332.03 2918.72 1326.14C2913.12 1320.25 2909.31 1312.75 2907.77 1304.58C2907 1300.52 2907 1295.63 2907 1285.84M3007 1285.84H3057M2907 1285.84H2857M2957 1233.21V1275.32M2987 1149L2967 1180.58M2927 1149L2947 1180.58M3037 1212.16V1222.68C3037 1231.06 3033.84 1239.09 3028.21 1245.01C3022.59 1250.94 3014.96 1254.26 3007 1254.26M3037 1349C3037 1340.62 3033.84 1332.59 3028.21 1326.67C3022.59 1320.75 3014.96 1317.42 3007 1317.42M2877 1212.16V1222.68C2877 1231.06 2880.16 1239.09 2885.79 1245.01C2891.41 1250.94 2899.04 1254.26 2907 1254.26M2877 1349C2877 1340.62 2880.16 1332.59 2885.79 1326.67C2891.41 1320.75 2899.04 1317.42 2907 1317.42M2927 1212.16C2927 1202.35 2927 1197.44 2928.52 1193.58C2929.53 1191.02 2931 1188.7 2932.86 1186.74C2934.72 1184.79 2936.92 1183.24 2939.35 1182.18C2943.02 1180.58 2947.68 1180.58 2957 1180.58C2966.32 1180.58 2970.98 1180.58 2974.65 1182.18C2977.08 1183.24 2979.28 1184.79 2981.14 1186.74C2983 1188.7 2984.47 1191.02 2985.48 1193.58C2987 1197.44 2987 1202.35 2987 1212.16V1233.21H2927V1212.16Z" stroke="#991100" stroke-width="10"/>
<path d="M3455 1188.33H3638.33L3546.67 1030L3455 1188.33ZM3483.92 1171.67L3546.67 1063.25L3609.42 1171.67H3483.92ZM3538.33 1146.67H3555V1163.33H3538.33V1146.67ZM3538.33 1096.67H3555V1130H3538.33V1096.67Z" fill="#FFFF00"/>
<path d="M3267.67 1432.67C3274.33 1439.33 3274.33 1450.17 3267.67 1456L3244.33 1479.33L3179.33 1414.33L3202.67 1391C3209.33 1384.33 3220.17 1384.33 3226 1391L3241 1406L3266 1381L3277.67 1392.67L3252.67 1417.67L3267.67 1432.67ZM3219.33 1481L3207.67 1469.33L3184.33 1492.67L3166.83 1475.17L3190.17 1451.83L3178.5 1440.17L3155.17 1463.5L3142.67 1451.83L3119.33 1475.17C3112.67 1481.83 3112.67 1492.67 3119.33 1498.5L3134.33 1513.5L3101 1546.83L3112.67 1558.5L3146 1525.17L3161 1540.17C3167.67 1546.83 3178.5 1546.83 3184.33 1540.17L3207.67 1516.83L3196 1505.17L3219.33 1481Z" fill="#910000"/>
<path d="M3245 1088C3189.29 1088 3145 1132.29 3145 1188C3145 1243.71 3189.29 1288 3245 1288C3300.71 1288 3345 1243.71 3345 1188C3345 1132.29 3300.71 1088 3245 1088ZM3283.57 1238L3245 1199.43L3206.43 1238L3195 1226.57L3233.57 1188L3195 1149.43L3206.43 1138L3245 1176.57L3283.57 1138L3295 1149.43L3256.43 1188L3295 1226.57L3283.57 1238Z" fill="#910000"/>
<path d="M6231 726.157C6231 723.553 6231.25 721.014 6231.75 718.538L6256.2 740.742L6283 710.266L6259.08 688.46C6262.31 687.538 6265.7 687 6269.23 687C6279.32 687.006 6288.99 691.097 6296.15 698.381C6303.31 705.665 6307.37 715.552 6307.45 725.888V726.157C6307.45 728.121 6307.31 730.041 6307.04 731.919L6336.85 758.963C6325.99 767.532 6317.35 778.7 6311.69 791.487L6280.78 763.458C6277.04 764.691 6273.15 765.318 6269.23 765.314C6259.09 765.307 6249.37 761.18 6242.2 753.838C6235.04 746.496 6231.01 736.54 6231 726.157ZM6492.77 888.701C6488.94 888.719 6485.28 889.269 6481.78 890.353L6452.93 864.18C6448.17 877.434 6440.37 889.32 6430.19 898.83L6455.1 921.431C6454.74 923.554 6454.56 925.704 6454.55 927.859C6454.56 933.959 6455.95 939.973 6458.63 945.422C6461.3 950.872 6465.18 955.606 6469.96 959.249C6474.74 962.891 6480.28 965.34 6486.14 966.402C6492.01 967.464 6498.03 967.108 6503.74 965.364L6478.84 942.699L6505.59 912.416L6530.35 934.952C6530.77 932.648 6530.99 930.283 6531 927.859V927.526C6530.92 917.197 6526.85 907.321 6519.69 900.049C6512.53 892.776 6502.86 888.698 6492.77 888.701ZM6450.31 791.487L6481.22 763.458C6484.88 764.648 6488.74 765.314 6492.77 765.314C6498.42 765.306 6504 764.018 6509.1 761.542C6514.2 759.066 6518.7 755.464 6522.29 750.993C6525.87 746.523 6528.44 741.296 6529.82 735.686C6531.19 730.077 6531.34 724.226 6530.25 718.551L6505.8 740.755L6479 710.279L6502.92 688.473C6499.62 687.512 6496.21 687.021 6492.77 687.013C6482.68 687.019 6473.01 691.11 6465.85 698.394C6458.69 705.678 6454.63 715.565 6454.55 725.901V726.17C6454.55 728.133 6454.69 730.054 6454.96 731.932L6425.15 758.976C6436.01 767.545 6444.65 778.713 6450.31 791.5V791.487ZM6309.06 864.18L6280.22 890.353C6274.54 888.601 6268.54 888.229 6262.69 889.266C6256.84 890.303 6251.31 892.721 6246.54 896.328C6241.76 899.935 6237.87 904.633 6235.17 910.048C6232.48 915.463 6231.05 921.447 6231 927.526V927.859C6231 930.283 6231.22 932.648 6231.65 934.952L6256.42 912.416L6283.17 942.699L6258.26 965.364C6263.97 967.108 6269.99 967.464 6275.86 966.402C6281.72 965.34 6287.26 962.891 6292.04 959.249C6296.82 955.606 6300.7 950.872 6303.37 945.422C6306.05 939.973 6307.44 933.959 6307.45 927.859C6307.44 925.704 6307.26 923.554 6306.9 921.431L6331.81 898.83C6321.62 889.321 6313.82 877.436 6309.06 864.18ZM6421.2 898.203C6422.4 900.072 6423.14 902.214 6423.36 904.443C6423.57 906.671 6423.25 908.92 6422.42 910.993C6421.6 913.067 6420.29 914.903 6418.62 916.342C6416.94 917.782 6414.95 918.781 6412.81 919.255C6410.68 919.728 6408.46 919.661 6406.35 919.058C6404.25 918.456 6402.32 917.337 6400.73 915.798C6399.14 914.26 6397.94 912.348 6397.24 910.228C6396.53 908.108 6396.35 905.844 6396.69 903.632H6394.29C6394.58 905.595 6394.46 907.601 6393.93 909.511C6393.39 911.421 6392.46 913.19 6391.2 914.698C6389.94 916.205 6388.37 917.415 6386.61 918.245C6384.85 919.074 6382.93 919.504 6380.99 919.504C6379.05 919.504 6377.14 919.074 6375.38 918.245C6373.61 917.415 6372.05 916.205 6370.79 914.698C6369.52 913.19 6368.59 911.421 6368.06 909.511C6367.53 907.601 6367.41 905.595 6367.7 903.632H6365.82C6366.07 905.615 6365.91 907.63 6365.34 909.544C6364.78 911.458 6363.82 913.227 6362.54 914.735C6361.26 916.242 6359.68 917.454 6357.9 918.291C6356.13 919.127 6354.2 919.569 6352.25 919.587C6344.7 919.587 6338.57 913.184 6338.57 905.309C6338.57 902.62 6339.29 900.123 6340.53 897.985C6321.86 883.362 6309.6 858.917 6309.6 831.233C6309.6 786.455 6341.59 750.153 6381.01 750.153C6420.44 750.153 6452.43 786.455 6452.43 831.233C6452.43 859.058 6440.04 883.618 6421.21 898.215L6421.2 898.203ZM6368.78 822.475C6367.08 819.17 6364.69 816.285 6361.79 814.024C6358.33 811.859 6354.36 810.691 6350.31 810.643C6348.97 810.65 6347.63 810.805 6346.32 811.104C6341.26 811.745 6336.99 815.291 6334.04 819.389C6331.45 822.68 6329.44 826.675 6329.39 830.977C6328.99 834.537 6329.69 838.097 6330.33 841.58C6331.15 845.703 6333.99 849.058 6337.2 851.491C6338.69 852.707 6340.82 854.385 6342.7 852.976C6343.95 851.26 6342.9 848.75 6344.04 846.855C6344.25 845.963 6344.65 845.129 6345.21 844.409C6345.76 843.688 6346.46 843.099 6347.26 842.681C6350.55 840.991 6353.85 839.326 6357.36 838.135C6360.21 837.277 6362.56 835.331 6364.99 833.666C6368.18 831.144 6370.29 826.521 6368.78 822.475ZM6381.22 852.246C6377.74 852.157 6373.35 868.086 6374.05 875.039C6376.24 884.258 6377.01 868.572 6381.22 868.56C6385.26 868.739 6384.66 884.63 6387.85 875.013C6388.82 868.611 6385.05 852.349 6381.22 852.246ZM6431.68 841.58C6432.31 838.097 6433.01 834.537 6432.61 830.977C6432.56 826.675 6430.55 822.68 6427.96 819.389C6425.01 815.291 6420.74 811.757 6415.68 811.104C6414.37 810.805 6413.03 810.65 6411.69 810.643C6407.69 810.631 6403.64 811.924 6400.21 814.024C6397.27 816.213 6394.96 819.223 6393.22 822.475C6391.71 826.521 6393.82 831.144 6397.01 833.666C6399.44 835.331 6401.79 837.277 6404.64 838.148C6408.14 839.326 6411.45 840.991 6414.74 842.681C6415.54 843.099 6416.24 843.688 6416.79 844.409C6417.35 845.129 6417.75 845.963 6417.96 846.855C6419.1 848.738 6418.05 851.26 6419.29 852.976C6421.18 854.385 6423.31 852.707 6424.79 851.491C6428.01 849.058 6430.85 845.703 6431.68 841.58Z" fill="#910000"/>
<path d="M255 726.157C255 723.553 255.25 721.014 255.75 718.538L280.2 740.742L307 710.266L283.075 688.46C286.312 687.538 289.7 687 293.225 687C303.316 687.006 312.995 691.097 320.155 698.381C327.314 705.665 331.374 715.552 331.45 725.888V726.157C331.45 728.121 331.312 730.041 331.038 731.919L360.85 758.963C349.991 767.532 341.35 778.7 335.688 791.487L304.775 763.458C301.043 764.691 297.146 765.318 293.225 765.314C283.089 765.307 273.37 761.18 266.203 753.838C259.036 746.496 255.007 736.54 255 726.157ZM516.775 888.701C512.942 888.719 509.275 889.269 505.775 890.353L476.925 864.18C472.174 877.434 464.375 889.32 454.188 898.83L479.1 921.431C478.741 923.554 478.557 925.704 478.55 927.859C478.556 933.959 479.953 939.973 482.628 945.422C485.304 950.872 489.184 955.606 493.961 959.249C498.738 962.891 504.279 965.34 510.143 966.402C516.007 967.464 522.031 967.108 527.737 965.364L502.837 942.699L529.587 912.416L554.35 934.952C554.775 932.648 554.992 930.283 555 927.859V927.526C554.918 917.197 550.854 907.321 543.694 900.049C536.533 892.776 526.858 888.698 516.775 888.701ZM474.312 791.487L505.225 763.458C508.875 764.648 512.737 765.314 516.775 765.314C522.421 765.306 527.995 764.018 533.098 761.542C538.2 759.066 542.704 755.464 546.287 750.993C549.869 746.523 552.441 741.296 553.818 735.686C555.195 730.077 555.342 724.226 554.25 718.551L529.8 740.755L503 710.279L526.925 688.473C523.623 687.512 520.208 687.021 516.775 687.013C506.684 687.019 497.005 691.11 489.845 698.394C482.686 705.678 478.626 715.565 478.55 725.901V726.17C478.55 728.133 478.688 730.054 478.962 731.932L449.15 758.976C460.009 767.545 468.65 778.713 474.312 791.5V791.487ZM333.062 864.18L304.225 890.353C298.542 888.601 292.54 888.229 286.692 889.266C280.845 890.303 275.314 892.721 270.537 896.328C265.76 899.935 261.869 904.633 259.173 910.048C256.476 915.463 255.047 921.447 255 927.526V927.859C255 930.283 255.217 932.648 255.65 934.952L280.425 912.416L307.175 942.699L282.263 965.364C287.969 967.108 293.993 967.464 299.857 966.402C305.721 965.34 311.262 962.891 316.039 959.249C320.816 955.606 324.696 950.872 327.372 945.422C330.047 939.973 331.444 933.959 331.45 927.859C331.443 925.704 331.259 923.554 330.9 921.431L355.812 898.83C345.62 889.321 337.817 877.436 333.062 864.18ZM445.2 898.203C446.404 900.072 447.144 902.214 447.358 904.443C447.571 906.671 447.251 908.92 446.425 910.993C445.599 913.067 444.292 914.903 442.618 916.342C440.943 917.782 438.951 918.781 436.814 919.255C434.677 919.728 432.46 919.661 430.355 919.058C428.249 918.456 426.319 917.337 424.73 915.798C423.142 914.26 421.944 912.348 421.239 910.228C420.535 908.108 420.345 905.844 420.688 903.632H418.287C418.582 905.595 418.459 907.601 417.926 909.511C417.394 911.421 416.464 913.19 415.202 914.698C413.939 916.205 412.373 917.415 410.611 918.245C408.849 919.074 406.933 919.504 404.994 919.504C403.055 919.504 401.138 919.074 399.377 918.245C397.615 917.415 396.049 916.205 394.786 914.698C393.523 913.19 392.594 911.421 392.061 909.511C391.528 907.601 391.405 905.595 391.7 903.632H389.825C390.074 905.615 389.91 907.63 389.344 909.544C388.777 911.458 387.821 913.227 386.538 914.735C385.255 916.242 383.675 917.454 381.902 918.291C380.128 919.127 378.202 919.569 376.25 919.587C368.7 919.587 362.575 913.184 362.575 905.309C362.575 902.62 363.287 900.123 364.525 897.985C345.863 883.362 333.6 858.917 333.6 831.233C333.6 786.455 365.588 750.153 405.013 750.153C444.438 750.153 476.425 786.455 476.425 831.233C476.425 859.058 464.038 883.618 445.212 898.215L445.2 898.203ZM392.775 822.475C391.075 819.17 388.691 816.285 385.788 814.024C382.329 811.859 378.365 810.691 374.312 810.643C372.971 810.65 371.634 810.805 370.325 811.104C365.262 811.745 360.988 815.291 358.037 819.389C355.45 822.68 353.438 826.675 353.387 830.977C352.987 834.537 353.688 838.097 354.325 841.58C355.15 845.703 357.988 849.058 361.2 851.491C362.688 852.707 364.825 854.385 366.7 852.976C367.95 851.26 366.9 848.75 368.038 846.855C368.251 845.963 368.65 845.129 369.206 844.409C369.763 843.688 370.464 843.099 371.262 842.681C374.55 840.991 377.85 839.326 381.363 838.135C384.213 837.277 386.562 835.331 388.988 833.666C392.175 831.144 394.288 826.521 392.775 822.475ZM405.225 852.246C401.738 852.157 397.35 868.086 398.05 875.039C400.238 884.258 401.012 868.572 405.225 868.56C409.262 868.739 408.663 884.63 411.85 875.013C412.825 868.611 409.05 852.349 405.225 852.246ZM455.675 841.58C456.313 838.097 457.012 834.537 456.613 830.977C456.562 826.675 454.55 822.68 451.962 819.389C449.012 815.291 444.738 811.757 439.675 811.104C438.366 810.805 437.029 810.65 435.688 810.643C431.688 810.631 427.637 811.924 424.212 814.024C421.275 816.213 418.962 819.223 417.225 822.475C415.712 826.521 417.825 831.144 421.012 833.666C423.438 835.331 425.787 837.277 428.637 838.148C432.137 839.326 435.45 840.991 438.738 842.681C439.536 843.099 440.237 843.688 440.794 844.409C441.35 845.129 441.749 845.963 441.962 846.855C443.1 848.738 442.05 851.26 443.287 852.976C445.175 854.385 447.312 852.707 448.788 851.491C452.012 849.058 454.85 845.703 455.675 841.58Z" fill="#910000"/>
</svg>
