<svg width="300" height="250" viewBox="0 0 300 250" fill="none" xmlns="http://www.w3.org/2000/svg">
<path d="M277.5 132.353C271.25 132.353 265.94 130.211 261.57 125.926C257.2 121.642 255.01 116.431 255 110.294V22.0589C255 15.9314 257.19 10.7255 261.57 6.44121C265.95 2.1569 271.26 0.00983734 277.5 3.34225e-05C283.74 -0.0097705 289.055 2.13729 293.445 6.44121C297.835 10.7451 300.02 15.951 300 22.0589V110.294C300 116.422 297.815 121.632 293.445 125.926C289.075 130.221 283.76 132.363 277.5 132.353ZM120 132.353C103.5 132.353 89.375 126.593 77.625 115.074C65.875 103.554 60 89.7059 60 73.5294C60 57.353 65.875 43.5049 77.625 31.9853C89.375 20.4657 103.5 14.7059 120 14.7059C136.5 14.7059 150.625 20.4657 162.375 31.9853C174.125 43.5049 180 57.353 180 73.5294C180 89.7059 174.125 103.554 162.375 115.074C150.625 126.593 136.5 132.353 120 132.353ZM0 250V208.824C0 200.49 2.125 192.833 6.375 185.853C10.625 178.873 16.5 173.539 24 169.853C39 162.5 54.565 156.863 70.695 152.941C86.825 149.02 103.26 147.059 120 147.059C136.74 147.059 153.18 149.02 169.32 152.941C185.46 156.863 201.02 162.5 216 169.853C223.5 173.529 229.375 178.863 233.625 185.853C237.875 192.843 240 200.5 240 208.824V250H0Z" fill="#910000"/>
</svg>
