<svg width="563" height="571" viewBox="0 0 563 571" fill="none" xmlns="http://www.w3.org/2000/svg">
<path d="M281.5 107.062C304.763 107.062 326.657 111.245 347.183 119.609C367.709 127.973 385.596 139.497 400.844 154.181C416.092 168.865 428.115 185.872 436.911 205.203C445.708 224.534 450.204 245.352 450.4 267.656C450.4 279.366 449.618 290.333 448.054 300.556C446.49 310.779 444.047 320.537 440.723 329.831C437.4 339.124 433.099 348.325 427.821 357.433C422.543 366.54 416.288 375.834 409.055 385.313C403.386 392.748 398.401 399.44 394.1 405.388C389.799 411.336 386.281 417.284 383.544 423.231C380.807 429.179 378.754 435.685 377.386 442.748C376.018 449.811 375.333 458.083 375.333 467.562V517.469C375.333 524.904 373.867 531.874 370.935 538.379C368.003 544.885 363.995 550.554 358.912 555.387C353.83 560.219 347.868 564.03 341.026 566.818C334.183 569.606 326.853 571 319.033 571H243.967C236.147 571 228.816 569.606 221.974 566.818C215.132 564.03 209.17 560.219 204.087 555.387C199.005 550.554 194.997 544.885 192.065 538.379C189.133 531.874 187.667 524.904 187.667 517.469V467.283C187.667 457.804 186.982 449.625 185.614 442.748C184.246 435.871 182.193 429.458 179.456 423.51C176.719 417.562 173.201 411.521 168.9 405.388C164.599 399.254 159.614 392.562 153.945 385.313C146.712 375.834 140.555 366.633 135.472 357.711C130.389 348.79 126.089 339.589 122.57 330.109C119.051 320.63 116.51 310.779 114.946 300.556C113.382 290.333 112.6 279.366 112.6 267.656C112.6 245.537 116.998 224.72 125.795 205.203C134.592 185.687 146.712 168.679 162.156 154.181C177.599 139.683 195.486 128.252 215.817 119.888C236.147 111.523 258.042 107.248 281.5 107.062ZM337.8 517.469V499.625H225.2V517.469C225.2 522.301 227.057 526.484 230.771 530.015C234.486 533.547 238.884 535.312 243.967 535.312H319.033C324.116 535.312 328.514 533.547 332.229 530.015C335.943 526.484 337.8 522.301 337.8 517.469ZM412.867 267.656C412.867 250.37 409.446 234.199 402.604 219.144C395.762 204.088 386.378 190.798 374.454 179.274C362.529 167.75 348.649 158.828 332.815 152.508C316.981 146.189 299.876 142.936 281.5 142.75C263.32 142.75 246.312 146.003 230.478 152.508C214.644 159.014 200.666 167.936 188.546 179.274C176.426 190.612 167.043 203.809 160.396 218.865C153.75 233.92 150.329 250.184 150.133 267.656C150.133 284.199 151.893 298.418 155.411 310.314C158.93 322.21 163.524 332.805 169.193 342.098C174.862 351.392 180.825 360.128 187.08 368.306C193.336 376.485 199.298 385.035 204.967 393.957C210.636 402.878 215.328 412.916 219.042 424.068C222.756 435.22 224.809 448.51 225.2 463.938H337.8C337.995 448.51 339.95 435.313 343.665 424.347C347.379 413.38 352.07 403.343 357.74 394.235C363.409 385.128 369.371 376.577 375.627 368.585C381.882 360.592 387.844 351.856 393.514 342.377C399.183 332.897 403.777 322.21 407.295 310.314C410.814 298.418 412.671 284.199 412.867 267.656ZM281.5 71.375C276.417 71.375 272.019 69.6092 268.305 66.0776C264.59 62.5461 262.733 58.3639 262.733 53.5312V17.8438C262.733 13.0111 264.59 8.82894 268.305 5.29736C272.019 1.76579 276.417 0 281.5 0C286.583 0 290.981 1.76579 294.695 5.29736C298.41 8.82894 300.267 13.0111 300.267 17.8438V53.5312C300.267 58.3639 298.41 62.5461 294.695 66.0776C290.981 69.6092 286.583 71.375 281.5 71.375ZM56.3 258.734H18.7667C13.684 258.734 9.28559 256.969 5.57135 253.437C1.85712 249.905 0 245.723 0 240.891C0 236.058 1.85712 231.876 5.57135 228.344C9.28559 224.813 13.684 223.047 18.7667 223.047H56.3C61.3826 223.047 65.7811 224.813 69.4953 228.344C73.2095 231.876 75.0667 236.058 75.0667 240.891C75.0667 245.723 73.2095 249.905 69.4953 253.437C65.7811 256.969 61.3826 258.734 56.3 258.734ZM71.8411 331.503C76.9238 331.503 81.3222 333.269 85.0365 336.801C88.7507 340.332 90.6078 344.607 90.6078 349.626C90.6078 353.343 89.5326 356.596 87.3823 359.384C85.2319 362.172 82.2996 364.403 78.5854 366.076C76.4351 367.005 73.5028 368.213 69.7885 369.7C66.0743 371.187 62.0668 372.767 57.7661 374.44C53.4654 376.113 49.5557 377.507 46.037 378.622C42.5182 379.737 39.3904 380.388 36.6536 380.574C31.571 380.574 27.1726 378.808 23.4583 375.276C19.7441 371.745 17.887 367.47 17.887 362.451C17.887 358.734 18.9622 355.481 21.1125 352.693C23.2628 349.905 26.1951 347.674 29.9094 346.001C32.0597 345.258 34.992 344.05 38.7062 342.377C42.4205 340.704 46.4279 339.124 50.7286 337.637C55.0293 336.15 58.9391 334.756 62.4578 333.455C65.9766 332.154 69.1043 331.503 71.8411 331.503ZM116.412 151.672C116.412 156.505 114.555 160.687 110.841 164.218C107.126 167.75 102.728 169.516 97.6453 169.516C94.1266 169.516 90.901 168.679 87.9687 167.006L56.0068 148.326C53.27 146.653 51.1196 144.516 49.5557 141.914C47.9918 139.311 47.1121 136.337 46.9167 132.992C46.9167 128.159 48.7738 123.977 52.488 120.445C56.2023 116.914 60.6007 115.148 65.6833 115.148C68.8111 115.148 72.0366 116.077 75.3599 117.936L107.615 136.337C110.352 137.824 112.502 139.962 114.066 142.75C115.63 145.538 116.412 148.512 116.412 151.672ZM140.75 49.0703C140.75 44.2376 142.607 40.0555 146.321 36.5239C150.036 32.9924 154.434 31.2266 159.517 31.2266C162.84 31.2266 165.968 32.063 168.9 33.7358C171.832 35.4087 174.178 37.6392 175.937 40.4272L194.118 71.6538C195.682 74.256 196.464 77.0441 196.464 80.0181C196.464 85.0366 194.606 89.3117 190.892 92.8433C187.178 96.3748 182.78 98.1406 177.697 98.1406C174.374 98.1406 171.246 97.3042 168.314 95.6313C165.381 93.9585 163.035 91.728 161.276 88.9399L143.096 57.7134C141.532 55.1112 140.75 52.2301 140.75 49.0703ZM544.233 223.047C549.316 223.047 553.714 224.813 557.429 228.344C561.143 231.876 563 236.058 563 240.891C563 245.723 561.143 249.905 557.429 253.437C553.714 256.969 549.316 258.734 544.233 258.734H506.7C501.617 258.734 497.219 256.969 493.505 253.437C489.79 249.905 487.933 245.723 487.933 240.891C487.933 236.058 489.79 231.876 493.505 228.344C497.219 224.813 501.617 223.047 506.7 223.047H544.233ZM544.82 362.73C544.82 367.563 542.963 371.745 539.248 375.276C535.534 378.808 531.136 380.574 526.053 380.574C523.903 380.574 520.97 380.016 517.256 378.901C513.542 377.786 509.535 376.299 505.234 374.44C500.933 372.581 497.023 371.001 493.505 369.7C489.986 368.399 486.956 367.098 484.415 365.797C480.896 364.31 478.061 362.079 475.911 359.105C473.761 356.132 472.588 352.786 472.392 349.068C472.392 344.05 474.249 339.868 477.964 336.522C481.678 333.176 486.174 331.41 491.452 331.225C493.798 331.225 496.828 331.875 500.542 333.176C504.256 334.477 508.166 335.964 512.271 337.637C516.377 339.31 520.286 340.983 524 342.656C527.715 344.329 530.745 345.537 533.091 346.28C536.609 347.767 539.444 349.905 541.594 352.693C543.745 355.481 544.82 358.827 544.82 362.73ZM465.355 169.516C460.272 169.516 455.874 167.75 452.159 164.218C448.445 160.687 446.588 156.505 446.588 151.672C446.588 148.512 447.37 145.538 448.934 142.75C450.498 139.962 452.648 137.824 455.385 136.337L487.64 117.936C490.963 116.077 494.189 115.148 497.317 115.148C502.399 115.148 506.798 116.914 510.512 120.445C514.226 123.977 516.083 128.159 516.083 132.992C516.083 136.152 515.301 139.033 513.737 141.635C512.174 144.237 509.925 146.467 506.993 148.326L475.031 167.006C472.099 168.679 468.873 169.516 465.355 169.516ZM366.536 80.0181C366.536 77.0441 367.318 74.256 368.882 71.6538L387.062 40.4272C388.626 37.6392 390.874 35.4087 393.807 33.7358C396.739 32.063 399.965 31.2266 403.483 31.2266C408.566 31.2266 412.964 32.9924 416.679 36.5239C420.393 40.0555 422.25 44.2376 422.25 49.0703C422.25 52.2301 421.468 55.1112 419.904 57.7134L401.724 88.9399C400.16 91.728 397.912 93.9585 394.98 95.6313C392.047 97.3042 388.822 98.1406 385.303 98.1406C380.22 98.1406 375.822 96.3748 372.108 92.8433C368.394 89.3117 366.536 85.0366 366.536 80.0181Z" fill="#910000"/>
</svg>
