<svg width="300" height="300" viewBox="0 0 300 300" fill="none" xmlns="http://www.w3.org/2000/svg">
<path d="M267.857 246.429H203.571C195.047 246.429 186.871 249.815 180.843 255.843C174.815 261.871 171.429 270.047 171.429 278.571V300H192.857V278.571C192.857 275.73 193.986 273.005 195.995 270.995C198.005 268.986 200.73 267.857 203.571 267.857H267.857C270.699 267.857 273.424 268.986 275.433 270.995C277.443 273.005 278.571 275.73 278.571 278.571V300H300V278.571C300 270.047 296.614 261.871 290.586 255.843C284.558 249.815 276.382 246.429 267.857 246.429ZM192.857 192.857C192.857 201.333 195.371 209.619 200.08 216.667C204.789 223.715 211.482 229.208 219.314 232.452C227.145 235.696 235.762 236.544 244.075 234.891C252.389 233.237 260.025 229.155 266.019 223.162C272.013 217.168 276.094 209.532 277.748 201.218C279.402 192.905 278.553 184.288 275.309 176.456C272.065 168.625 266.572 161.932 259.524 157.223C252.477 152.514 244.191 150 235.714 150C224.348 150 213.447 154.515 205.41 162.553C197.372 170.59 192.857 181.491 192.857 192.857ZM257.143 192.857C257.143 197.095 255.886 201.238 253.531 204.762C251.177 208.286 247.83 211.033 243.915 212.655C239.999 214.276 235.691 214.701 231.534 213.874C227.377 213.047 223.559 211.006 220.562 208.009C217.565 205.013 215.524 201.194 214.697 197.038C213.871 192.881 214.295 188.572 215.917 184.657C217.539 180.741 220.285 177.395 223.809 175.04C227.333 172.685 231.476 171.429 235.714 171.429C241.398 171.429 246.848 173.686 250.867 177.705C254.885 181.723 257.143 187.174 257.143 192.857ZM42.8571 203.571V192.857H21.4286V203.571C21.4286 223.463 29.3303 242.539 43.3956 256.604C57.4608 270.67 76.5373 278.571 96.4286 278.571H128.571V257.143H96.4286C82.2205 257.143 68.5944 251.499 58.5479 241.452C48.5013 231.406 42.8571 217.779 42.8571 203.571ZM182.143 85.7143H257.143V107.143H182.143V85.7143ZM182.143 42.8572H289.286V64.2857H182.143V42.8572ZM182.143 1.79865e-05H289.286V21.4286H182.143V1.79865e-05ZM96.4286 96.4286H32.1429C23.618 96.4286 15.4424 99.815 9.41443 105.843C3.38647 111.871 0 120.047 0 128.571V150H21.4286V128.571C21.4286 125.73 22.5574 123.005 24.5667 120.995C26.576 118.986 29.3013 117.857 32.1429 117.857H96.4286C99.2702 117.857 101.995 118.986 104.005 120.995C106.014 123.005 107.143 125.73 107.143 128.571V150H128.571V128.571C128.571 120.047 125.185 111.871 119.157 105.843C113.129 99.815 104.953 96.4286 96.4286 96.4286ZM64.2857 85.7143C72.7621 85.7143 81.048 83.2008 88.0959 78.4916C95.1437 73.7824 100.637 67.089 103.881 59.2579C107.124 51.4268 107.973 42.8096 106.319 34.4961C104.666 26.1827 100.584 18.5463 94.5903 12.5526C88.5966 6.55891 80.9602 2.47716 72.6467 0.823507C64.3333 -0.830145 55.7161 0.0185692 47.885 3.26232C40.0539 6.50608 33.3605 11.9992 28.6513 19.047C23.9421 26.0948 21.4286 34.3808 21.4286 42.8572C21.4286 54.2236 25.9439 65.1245 33.9811 73.1617C42.0184 81.199 52.9193 85.7143 64.2857 85.7143ZM64.2857 21.4286C68.5239 21.4286 72.6669 22.6854 76.1908 25.04C79.7147 27.3946 82.4613 30.7412 84.0831 34.6568C85.705 38.5724 86.1294 42.8809 85.3025 47.0377C84.4757 51.1944 82.4348 55.0126 79.438 58.0094C76.4412 61.0063 72.623 63.0472 68.4662 63.874C64.3095 64.7008 60.0009 64.2765 56.0854 62.6546C52.1698 61.0327 48.8231 58.2861 46.4685 54.7622C44.1139 51.2383 42.8571 47.0953 42.8571 42.8572C42.8571 37.174 45.1148 31.7235 49.1334 27.7049C53.1521 23.6862 58.6025 21.4286 64.2857 21.4286Z" fill="#910000"/>
</svg>
