<svg width="1117" height="300" viewBox="0 0 1117 300" fill="none" xmlns="http://www.w3.org/2000/svg">
<path d="M295.734 74.0085V166.377C247.91 105.016 212.725 77.2261 156.626 22.3767C154.74 19.0597 190.139 -1.71295 223.587 0.113506L295.734 74.0085Z" fill="#910000"/>
<path d="M225.879 291.681L133.926 291.385C195.164 243.541 222.942 208.286 277.724 152.11C281.032 150.226 301.598 185.852 299.672 219.445L225.879 291.681Z" fill="#910000"/>
<path d="M4.75957 225.945L4.79044 133.576C52.5945 194.953 87.7705 222.755 143.851 277.623C145.736 280.941 110.33 301.702 76.8827 299.864L4.75957 225.945Z" fill="#910000"/>
<path d="M73.6753 7.74836L165.628 7.57463C104.633 55.7307 77.0346 91.1273 22.5376 147.583C19.2391 149.484 -1.50669 113.964 0.248641 80.3612L73.6753 7.74836Z" fill="#910000"/>
<path d="M360 166V165.25L389.375 68.5H422.25L451.75 165.25V166H430.25L406.625 84.75H403.625L379.75 166H360ZM384.375 141.625L388.75 125.875H421.5L425.875 141.625H384.375ZM462.25 166V68.5H503.625C511.958 68.5 518.708 69.7083 523.875 72.125C529.125 74.4583 532.958 77.7083 535.375 81.875C537.875 85.9583 539.125 90.7083 539.125 96.125C539.125 102.292 537.5 107.625 534.25 112.125C531 116.625 526.208 119.833 519.875 121.75L541.75 165.25V166H519.5L499.625 124.75H483V166H462.25ZM483 109.5H500.625C506.042 109.5 510.25 108.583 513.25 106.75C516.333 104.917 517.875 101.625 517.875 96.875C517.875 92.0417 516.333 88.75 513.25 87C510.167 85.1667 505.958 84.25 500.625 84.25H483V109.5ZM592.385 167.875C578.218 167.875 567.218 163.417 559.385 154.5C551.635 145.583 547.76 133.167 547.76 117.25C547.76 101.5 551.593 89.125 559.26 80.125C566.926 71.125 577.926 66.625 592.26 66.625C600.843 66.625 608.176 68.25 614.26 71.5C620.343 74.6667 625.093 79.0833 628.51 84.75C631.926 90.4167 633.926 96.9167 634.51 104.25H613.635C612.968 97.4167 610.76 92.0833 607.01 88.25C603.26 84.3333 598.385 82.375 592.385 82.375C584.801 82.375 579.093 85.4167 575.26 91.5C571.426 97.5833 569.51 106.208 569.51 117.375C569.51 128.958 571.468 137.667 575.385 143.5C579.385 149.25 585.01 152.125 592.26 152.125C598.51 152.125 603.468 150.125 607.135 146.125C610.885 142.125 613.051 136.833 613.635 130.25H634.51C633.926 137.583 631.926 144.083 628.51 149.75C625.093 155.417 620.343 159.875 614.26 163.125C608.26 166.292 600.968 167.875 592.385 167.875ZM687.76 167.75C677.426 167.75 668.801 165.708 661.885 161.625C655.051 157.458 649.926 151.583 646.51 144C643.176 136.417 641.51 127.5 641.51 117.25C641.51 106.917 643.176 98 646.51 90.5C649.926 82.9167 655.051 77.0833 661.885 73C668.801 68.8333 677.426 66.75 687.76 66.75C698.176 66.75 706.801 68.8333 713.635 73C720.468 77.0833 725.551 82.9167 728.885 90.5C732.301 98 734.01 106.917 734.01 117.25C734.01 127.5 732.301 136.417 728.885 144C725.551 151.583 720.468 157.458 713.635 161.625C706.801 165.708 698.176 167.75 687.76 167.75ZM687.76 152C696.176 152 702.343 149 706.26 143C710.26 136.917 712.26 128.333 712.26 117.25C712.26 106.083 710.26 97.5 706.26 91.5C702.343 85.5 696.176 82.5 687.76 82.5C679.343 82.5 673.135 85.5 669.135 91.5C665.218 97.5 663.26 106.083 663.26 117.25C663.26 128.333 665.218 136.917 669.135 143C673.135 149 679.343 152 687.76 152ZM747.309 166V68.5H783.559L813.809 149.5H816.809V68.5H835.809V166H799.309L769.184 85H766.309V166H747.309ZM895.328 167.75C884.995 167.75 876.37 165.708 869.453 161.625C862.62 157.458 857.495 151.583 854.078 144C850.745 136.417 849.078 127.5 849.078 117.25C849.078 106.917 850.745 98 854.078 90.5C857.495 82.9167 862.62 77.0833 869.453 73C876.37 68.8333 884.995 66.75 895.328 66.75C905.745 66.75 914.37 68.8333 921.203 73C928.036 77.0833 933.12 82.9167 936.453 90.5C939.87 98 941.578 106.917 941.578 117.25C941.578 127.5 939.87 136.417 936.453 144C933.12 151.583 928.036 157.458 921.203 161.625C914.37 165.708 905.745 167.75 895.328 167.75ZM895.328 152C903.745 152 909.911 149 913.828 143C917.828 136.917 919.828 128.333 919.828 117.25C919.828 106.083 917.828 97.5 913.828 91.5C909.911 85.5 903.745 82.5 895.328 82.5C886.911 82.5 880.703 85.5 876.703 91.5C872.786 97.5 870.828 106.083 870.828 117.25C870.828 128.333 872.786 136.917 876.703 143C880.703 149 886.911 152 895.328 152ZM943.568 166V165.25L972.318 114.25L947.693 69.25V68.5H970.068L987.693 101.125H990.693L1007.82 68.5H1029.32V69.25L1004.82 114.25L1033.32 165.25V166H1010.07L989.568 127.375H986.568L965.818 166H943.568Z" fill="white"/>
<path d="M603.125 222.938C596.208 222.938 590.833 220.708 587 216.25C583.167 211.792 581.25 205.583 581.25 197.625C581.25 189.667 583.146 183.458 586.938 179C590.771 174.542 596.146 172.312 603.063 172.312C607.146 172.312 610.667 173.083 613.625 174.625C616.583 176.167 618.896 178.312 620.563 181.062C622.271 183.812 623.292 187 623.625 190.625H614.813C614.438 187.083 613.208 184.271 611.125 182.187C609.083 180.104 606.396 179.063 603.063 179.063C598.896 179.063 595.708 180.688 593.5 183.938C591.333 187.187 590.25 191.771 590.25 197.687C590.25 203.687 591.354 208.271 593.563 211.438C595.813 214.604 598.958 216.187 603 216.187C606.5 216.187 609.271 215.104 611.313 212.937C613.354 210.771 614.521 208 614.813 204.625H623.625C623.292 208.208 622.271 211.396 620.563 214.187C618.896 216.937 616.583 219.083 613.625 220.625C610.708 222.167 607.208 222.938 603.125 222.938ZM632.645 234.5V234.25C633.77 232.5 634.957 230.437 636.207 228.063C637.499 225.688 638.645 223.354 639.645 221.062L626.457 184.875V184.5H634.832L640.27 199.5C640.77 200.917 641.27 202.437 641.77 204.062C642.311 205.687 642.853 207.708 643.395 210.125H644.895C645.395 207.708 645.895 205.687 646.395 204.062C646.936 202.437 647.457 200.917 647.957 199.5L653.395 184.5H661.27V184.875L649.082 217.75C647.707 221.5 646.332 224.813 644.957 227.688C643.624 230.604 642.457 232.875 641.457 234.5H632.645ZM686.817 222.812C683.984 222.812 681.713 222.25 680.005 221.125C678.338 220 677.109 218.667 676.317 217.125H674.817V222H667.13V172H675.567V188.812H677.067C677.942 187.229 679.172 185.979 680.755 185.062C682.338 184.146 684.38 183.688 686.88 183.688C690.13 183.688 692.859 184.5 695.067 186.125C697.317 187.75 699.005 190.021 700.13 192.937C701.297 195.854 701.88 199.271 701.88 203.188C701.88 207.063 701.297 210.479 700.13 213.437C699.005 216.396 697.317 218.708 695.067 220.375C692.859 222 690.109 222.812 686.817 222.812ZM684.755 216.437C687.422 216.437 689.484 215.312 690.942 213.062C692.401 210.812 693.13 207.542 693.13 203.25C693.13 198.958 692.401 195.687 690.942 193.438C689.484 191.187 687.422 190.062 684.755 190.062C681.922 190.062 679.672 191.271 678.005 193.688C676.338 196.062 675.505 199.25 675.505 203.25C675.505 207.25 676.338 210.458 678.005 212.875C679.672 215.25 681.922 216.437 684.755 216.437ZM724.317 222.938C718.609 222.938 714.255 221.167 711.255 217.625C708.255 214.042 706.755 209.229 706.755 203.188C706.755 199.187 707.422 195.729 708.755 192.812C710.088 189.896 712.047 187.625 714.63 186C717.255 184.375 720.442 183.563 724.192 183.563C729.567 183.563 733.672 185.25 736.505 188.625C739.338 191.958 740.755 196.854 740.755 203.312V205.312H715.005C715.213 208.729 716.088 211.479 717.63 213.562C719.213 215.646 721.442 216.688 724.317 216.688C726.484 216.688 728.213 216.062 729.505 214.812C730.838 213.562 731.755 211.958 732.255 210H740.317C739.859 212.417 738.984 214.604 737.692 216.562C736.442 218.479 734.713 220.021 732.505 221.188C730.297 222.354 727.567 222.938 724.317 222.938ZM715.067 199.687H732.505C732.338 196.479 731.526 194 730.067 192.25C728.651 190.5 726.672 189.625 724.13 189.625C721.505 189.625 719.422 190.479 717.88 192.187C716.338 193.896 715.401 196.396 715.067 199.687ZM748.063 222V184.5H755.688V191.125H757.187C757.438 190 757.896 188.896 758.563 187.812C759.229 186.729 760.25 185.854 761.625 185.187C763.042 184.479 764.958 184.125 767.375 184.125H769V191.875H766.687C763.063 191.875 760.458 192.812 758.875 194.687C757.292 196.562 756.5 199.417 756.5 203.25V222H748.063ZM789.02 222.938C785.186 222.938 782.082 222.313 779.707 221.062C777.374 219.771 775.624 218.125 774.457 216.125C773.332 214.125 772.707 212.083 772.582 210H780.707C780.874 211.167 781.29 212.271 781.957 213.312C782.665 214.354 783.624 215.187 784.832 215.812C786.04 216.437 787.561 216.75 789.395 216.75C791.478 216.75 793.04 216.354 794.082 215.562C795.124 214.729 795.645 213.646 795.645 212.313C795.645 211.187 795.207 210.229 794.332 209.437C793.457 208.604 792.082 207.854 790.207 207.187L785.707 205.687C783.624 204.937 781.707 204.125 779.957 203.25C778.249 202.333 776.874 201.187 775.832 199.812C774.832 198.396 774.332 196.604 774.332 194.437C774.332 191.187 775.54 188.562 777.957 186.562C780.374 184.562 783.749 183.563 788.082 183.563C791.207 183.563 793.77 184.083 795.77 185.125C797.811 186.125 799.353 187.5 800.395 189.25C801.436 190.958 802.04 192.875 802.207 195H794.395C794.186 193.458 793.54 192.167 792.457 191.125C791.415 190.083 789.853 189.562 787.77 189.562C785.978 189.562 784.603 189.937 783.645 190.687C782.728 191.437 782.27 192.437 782.27 193.688C782.27 194.937 782.728 195.979 783.645 196.812C784.603 197.604 786.04 198.333 787.957 199L792.395 200.438C794.478 201.146 796.374 201.958 798.082 202.875C799.79 203.75 801.124 204.896 802.082 206.312C803.082 207.687 803.582 209.458 803.582 211.625C803.582 215 802.332 217.729 799.832 219.812C797.374 221.896 793.77 222.938 789.02 222.938ZM825.611 222.938C819.903 222.938 815.549 221.167 812.549 217.625C809.549 214.042 808.049 209.229 808.049 203.188C808.049 199.187 808.715 195.729 810.049 192.812C811.382 189.896 813.34 187.625 815.924 186C818.549 184.375 821.736 183.563 825.486 183.563C830.861 183.563 834.965 185.25 837.799 188.625C840.632 191.958 842.049 196.854 842.049 203.312V205.312H816.299C816.507 208.729 817.382 211.479 818.924 213.562C820.507 215.646 822.736 216.688 825.611 216.688C827.778 216.688 829.507 216.062 830.799 214.812C832.132 213.562 833.049 211.958 833.549 210H841.611C841.153 212.417 840.278 214.604 838.986 216.562C837.736 218.479 836.007 220.021 833.799 221.188C831.59 222.354 828.861 222.938 825.611 222.938ZM816.361 199.687H833.799C833.632 196.479 832.82 194 831.361 192.25C829.945 190.5 827.965 189.625 825.424 189.625C822.799 189.625 820.715 190.479 819.174 192.187C817.632 193.896 816.695 196.396 816.361 199.687ZM863.919 222.938C858.294 222.938 854.023 221.167 851.106 217.625C848.231 214.042 846.794 209.25 846.794 203.25C846.794 197.042 848.294 192.208 851.294 188.75C854.336 185.292 858.565 183.563 863.981 183.563C868.648 183.563 872.356 184.833 875.106 187.375C877.856 189.917 879.523 193.437 880.106 197.937H871.794C871.461 195.396 870.627 193.417 869.294 192C868.002 190.583 866.273 189.875 864.106 189.875C861.231 189.875 859.086 191.062 857.669 193.438C856.252 195.771 855.544 199.042 855.544 203.25C855.544 207.458 856.252 210.75 857.669 213.125C859.086 215.458 861.211 216.625 864.044 216.625C866.252 216.625 868.002 215.917 869.294 214.5C870.627 213.083 871.461 211.104 871.794 208.562H880.106C879.481 213.062 877.773 216.583 874.981 219.125C872.231 221.667 868.544 222.938 863.919 222.938ZM899.212 222.938C894.92 222.938 891.754 221.604 889.712 218.937C887.67 216.271 886.649 212.771 886.649 208.437V184.5H895.087V206.875C895.087 209.75 895.608 211.979 896.649 213.562C897.691 215.146 899.337 215.937 901.587 215.937C904.379 215.937 906.524 214.854 908.024 212.687C909.524 210.521 910.274 207.875 910.274 204.75V184.5H918.712V222H911.149V216.375H909.649C908.983 218.333 907.795 219.917 906.087 221.125C904.379 222.333 902.087 222.938 899.212 222.938ZM928.678 222V184.5H936.303V191.125H937.803C938.053 190 938.511 188.896 939.178 187.812C939.844 186.729 940.865 185.854 942.24 185.187C943.657 184.479 945.574 184.125 947.99 184.125H949.615V191.875H947.303C943.678 191.875 941.074 192.812 939.49 194.687C937.907 196.562 937.115 199.417 937.115 203.25V222H928.678ZM956.51 222V184.5H964.947V222H956.51ZM960.76 179.75C959.218 179.75 958.031 179.333 957.197 178.5C956.364 177.625 955.947 176.5 955.947 175.125C955.947 173.75 956.364 172.646 957.197 171.812C958.031 170.937 959.218 170.5 960.76 170.5C962.343 170.5 963.531 170.937 964.322 171.812C965.156 172.646 965.572 173.75 965.572 175.125C965.572 176.5 965.156 177.625 964.322 178.5C963.531 179.333 962.343 179.75 960.76 179.75ZM980.092 222C979.133 220.875 978.363 219.521 977.779 217.937C977.238 216.354 976.967 213.979 976.967 210.812V190.687H971.842V184.5H977.092V175.125H985.342V184.5H991.529V190.687H985.404V209.75C985.404 213.083 985.758 215.625 986.467 217.375C987.217 219.083 988.113 220.5 989.154 221.625V222H980.092ZM1000.47 234.5V234.25C1001.59 232.5 1002.78 230.437 1004.03 228.063C1005.32 225.688 1006.47 223.354 1007.47 221.062L994.279 184.875V184.5H1002.65L1008.09 199.5C1008.59 200.917 1009.09 202.437 1009.59 204.062C1010.13 205.687 1010.68 207.708 1011.22 210.125H1012.72C1013.22 207.708 1013.72 205.687 1014.22 204.062C1014.76 202.437 1015.28 200.917 1015.78 199.5L1021.22 184.5H1029.09V184.875L1016.9 217.75C1015.53 221.5 1014.15 224.813 1012.78 227.688C1011.45 230.604 1010.28 232.875 1009.28 234.5H1000.47Z" fill="#910000"/>
</svg>
