<svg width="477" height="479" viewBox="0 0 477 479" fill="none" xmlns="http://www.w3.org/2000/svg">
<path d="M155.833 218.333C183.46 218.333 209.955 207.359 229.49 187.824C249.025 168.289 260 141.793 260 114.167C260 86.54 249.025 60.0448 229.49 40.5097C209.955 20.9747 183.46 10 155.833 10C128.207 10 101.711 20.9747 82.1764 40.5097C62.6413 60.0448 51.6667 86.54 51.6667 114.167C51.6667 141.793 62.6413 168.289 82.1764 187.824C101.711 207.359 128.207 218.333 155.833 218.333ZM155.833 218.333C197.771 218.333 234.417 234.167 260.479 260.479C275.931 276.145 287.491 295.219 294.229 316.167M155.833 218.333C72.5 218.333 10 280.833 10 364.167V468.333H218.333M239.167 381.333L326.458 447.5L468.333 260" stroke="#910000" stroke-width="20"/>
</svg>
