<svg width="300" height="300" viewBox="0 0 300 300" fill="none" xmlns="http://www.w3.org/2000/svg">
<path fill-rule="evenodd" clip-rule="evenodd" d="M23.1697 149.816H56.6798C59.4297 149.816 62.0669 150.944 64.0113 152.95C65.9557 154.957 67.0481 157.679 67.0481 160.517V246.126C67.0481 248.965 65.9557 251.686 64.0113 253.693C62.0669 255.7 59.4297 256.828 56.6798 256.828H15.2069C12.7802 256.828 10.4301 255.951 8.56582 254.347C6.70158 252.744 5.44132 250.516 5.00451 248.053C-2.1081 207.709 -3.84997 146.713 14.8336 95.2402C24.2272 69.3434 38.9709 45.3729 61.2211 27.93C83.5751 10.3801 112.772 0 149.994 0C187.237 0 216.434 10.4015 238.788 27.93C261.038 45.3943 275.782 69.322 285.175 95.2402C303.859 146.713 302.096 207.709 295.004 248.053C294.568 250.516 293.307 252.744 291.443 254.347C289.579 255.951 287.229 256.828 284.802 256.828H265.185C234.516 294.025 188.191 301.944 159.968 299.632H139.626C136.876 299.632 134.239 298.505 132.294 296.498C130.35 294.491 129.258 291.769 129.258 288.931V267.529C129.258 264.691 130.35 261.969 132.294 259.962C134.239 257.955 136.876 256.828 139.626 256.828H160.362C163.112 256.828 165.749 257.955 167.694 259.962C169.638 261.969 170.731 264.691 170.731 267.529V278.594C190.721 278.337 216.641 272.28 237.44 254.944C236.053 253.961 234.919 252.645 234.135 251.109C233.351 249.573 232.941 247.863 232.94 246.126V160.517C232.94 157.679 234.032 154.957 235.977 152.95C237.921 150.944 240.558 149.816 243.308 149.816H276.798C274.724 133.722 271.178 117.713 265.745 102.731C257.347 79.6166 244.594 59.3914 226.201 44.9662C207.932 30.6267 183.297 21.4023 149.994 21.4023C116.691 21.4023 92.077 30.6053 73.7667 44.9662C55.3734 59.3914 42.662 79.5951 34.243 102.752C28.8384 117.957 25.1235 133.746 23.1697 149.816Z" fill="#910000"/>
</svg>
