<svg width="520" height="616" viewBox="0 0 520 616" fill="none" xmlns="http://www.w3.org/2000/svg">
<path d="M285.543 15.1001L285.543 15.1007C309.893 38.3074 345.191 52.3279 382.527 59.6802C419.567 66.9636 454.843 66.8913 474.783 64.7669L474.788 64.7663C479.82 64.2355 484.916 64.7216 489.745 66.1961C494.574 67.6707 499.039 70.1041 502.843 73.3507C506.648 76.5978 509.708 80.5876 511.809 85.0688C513.91 89.5508 515 94.4158 515 99.3432V367.392C515 407.682 496.533 443.02 473.124 471.667C449.64 500.448 419.243 525.004 390.346 544.684L390.335 544.691L390.325 544.698C364.962 561.788 338.422 577.231 310.886 590.923C300.381 596.157 289.737 601.133 278.965 605.846L278.999 605.922L275.057 607.526L274.561 607.727L274.546 607.734L274.498 607.757L274.497 607.754L274.198 607.876C269.7 609.707 264.867 610.645 259.991 610.639C255.455 610.634 250.96 609.812 246.739 608.215H246.464L245.444 607.73L245.355 607.687L244.893 607.492L244.882 607.487L244.87 607.482C204.454 590.118 165.879 569.094 129.675 544.698L129.664 544.691L129.654 544.684C100.755 525.002 70.3597 500.417 46.8776 471.669L46.8767 471.668C23.4689 442.993 5 407.684 5 367.392V99.3436C5 99.3435 5 99.3434 5 99.3432C4.9997 94.4156 6.09017 89.5508 8.1914 85.0688C10.2923 80.5876 13.3523 76.5979 17.157 73.3507C20.961 70.1041 25.426 67.6707 30.2553 66.1961C35.0843 64.7216 40.1796 64.2355 45.212 64.7663L45.2172 64.7669C65.1567 66.8913 100.432 66.9636 137.471 59.6805L285.543 15.1001ZM285.543 15.1001C278.728 8.60767 269.537 5 260 5C250.463 5 241.271 8.60767 234.457 15.1001L234.457 15.1007M285.543 15.1001L234.457 15.1007M234.457 15.1007C210.107 38.3074 174.809 52.3279 137.473 59.6802L234.457 15.1007Z" fill="#910000" stroke="#910000" stroke-width="10"/>
</svg>
