<svg width="3246" height="1772" viewBox="0 0 3246 1772" fill="none" xmlns="http://www.w3.org/2000/svg">
<path d="M955 772L1388.01 1022V1522L955 1772L521.987 1522V1022L955 772Z" fill="#910000" fill-opacity="0.4"/>
<path d="M1849 772L2282.01 1022V1522L1849 1772L1415.99 1522V1022L1849 772Z" fill="#910000" fill-opacity="0.4"/>
<path d="M2746 772L3179.01 1022V1522L2746 1772L2312.99 1522V1022L2746 772Z" fill="#910000" fill-opacity="0.4"/>
<path d="M2292 0L2725.01 250V750L2292 1000L1858.99 750V250L2292 0Z" fill="#910000" fill-opacity="0.4"/>
<path d="M1398 0L1831.01 250V750L1398 1000L964.987 750V250L1398 0Z" fill="#910000" fill-opacity="0.4"/>
<path d="M500 0L933.013 250V750L500 1000L66.9873 750V250L500 0Z" fill="#910000" fill-opacity="0.4"/>
<path d="M570.283 319.077C586.138 297.604 593.239 270.98 590.166 244.533C587.093 218.086 574.072 193.766 553.708 176.438C533.344 159.111 507.139 150.053 480.336 151.078C453.532 152.103 428.107 163.135 409.147 181.967C390.187 200.798 379.09 226.041 378.076 252.644C377.062 279.247 386.207 305.25 403.68 325.449C421.153 345.648 445.666 358.554 472.315 361.585C498.964 364.616 525.783 357.549 547.408 341.797H547.391C547.872 342.447 548.407 343.07 548.996 343.666L612.037 406.235C615.108 409.284 619.273 410.998 623.617 411C627.96 411.002 632.126 409.29 635.199 406.243C638.271 403.196 639.998 399.062 640 394.751C640.002 390.44 638.277 386.305 635.207 383.255L572.166 320.686C571.581 320.098 570.951 319.571 570.283 319.077ZM574.507 256.606C574.507 268.344 572.178 279.967 567.652 290.812C563.126 301.656 556.492 311.51 548.13 319.81C539.767 328.11 529.839 334.694 518.912 339.186C507.986 343.678 496.275 345.99 484.448 345.99C472.621 345.99 460.911 343.678 449.984 339.186C439.058 334.694 429.13 328.11 420.767 319.81C412.404 311.51 405.77 301.656 401.244 290.812C396.719 279.967 394.389 268.344 394.389 256.606C394.389 232.9 403.877 210.164 420.767 193.402C437.656 176.639 460.563 167.222 484.448 167.222C508.333 167.222 531.24 176.639 548.13 193.402C565.019 210.164 574.507 232.9 574.507 256.606Z" fill="white"/>
<path d="M520.791 265.945V254.54C520.791 246.014 520.791 241.752 519.036 238.577C517.886 236.497 516.232 234.77 514.241 233.569C511.202 231.735 507.121 231.735 498.96 231.735H477.122C468.961 231.735 464.88 231.735 461.841 233.569C459.85 234.77 458.196 236.497 457.046 238.577C455.291 241.752 455.291 246.014 455.291 254.54V265.945M520.791 265.945C520.791 272.309 520.791 275.483 520.287 278.124C519.276 283.434 516.78 288.311 513.116 292.139C509.452 295.967 504.783 298.573 499.7 299.629C497.172 300.156 494.133 300.156 488.041 300.156C481.95 300.156 478.91 300.156 476.382 299.629C471.299 298.573 466.63 295.967 462.966 292.139C459.302 288.311 456.806 283.434 455.795 278.124C455.291 275.483 455.291 272.309 455.291 265.945M520.791 265.945H553.541M455.291 265.945H422.541M488.041 231.735V259.103M507.691 176.998L494.591 197.524M468.391 176.998L481.491 197.524M540.441 218.051V224.893C540.441 230.337 538.371 235.558 534.686 239.407C531.001 243.257 526.003 245.419 520.791 245.419M540.441 306.998C540.441 301.554 538.371 296.333 534.686 292.484C531.001 288.634 526.003 286.472 520.791 286.472M435.641 218.051V224.893C435.641 230.337 437.711 235.558 441.396 239.407C445.081 243.257 450.08 245.419 455.291 245.419M435.641 306.998C435.641 301.554 437.711 296.333 441.396 292.484C445.081 288.634 450.08 286.472 455.291 286.472M468.391 218.051C468.391 211.674 468.391 208.485 469.387 205.974C470.045 204.313 471.01 202.803 472.228 201.532C473.445 200.26 474.89 199.252 476.48 198.564C478.884 197.524 481.936 197.524 488.041 197.524C494.146 197.524 497.198 197.524 499.602 198.564C501.192 199.252 502.637 200.26 503.855 201.532C505.072 202.803 506.037 204.313 506.695 205.974C507.691 208.485 507.691 211.674 507.691 218.051V231.735H468.391V218.051Z" stroke="white" stroke-width="2"/>
<path d="M1765.67 975.947C1765.67 996.886 1774.45 1016.97 1790.08 1031.77C1805.7 1046.58 1826.9 1054.89 1849 1054.89C1871.1 1054.89 1892.3 1046.58 1907.93 1031.77C1923.55 1016.97 1932.33 996.886 1932.33 975.947C1932.33 955.009 1923.55 934.929 1907.93 920.123C1892.3 905.318 1871.1 897 1849 897C1826.9 897 1805.7 905.318 1790.08 920.123C1774.45 934.929 1765.67 955.009 1765.67 975.947Z" stroke="white" stroke-width="9" stroke-linecap="round" stroke-linejoin="round"/>
<path d="M1849 1054.89C1867.51 1050.51 1876.78 1048.32 1876.78 975.947C1876.78 927.702 1867.52 901.386 1849 897C1830.48 901.386 1821.22 927.702 1821.22 975.947C1821.22 1048.32 1830.49 1050.51 1849 1054.89ZM1849 1054.89V1094.37M1765.67 975.947H1932.33M1724 1120.68H1821.22M1821.22 1120.68C1821.22 1127.66 1824.15 1134.36 1829.36 1139.29C1834.57 1144.23 1841.63 1147 1849 1147C1856.37 1147 1863.43 1144.23 1868.64 1139.29C1873.85 1134.36 1876.78 1127.66 1876.78 1120.68M1821.22 1120.68C1821.22 1113.7 1824.15 1107.01 1829.36 1102.08C1834.57 1097.14 1841.63 1094.37 1849 1094.37M1876.78 1120.68H1974M1876.78 1120.68C1876.78 1113.7 1873.85 1107.01 1868.64 1102.08C1863.43 1097.14 1856.37 1094.37 1849 1094.37" stroke="white" stroke-width="9" stroke-linecap="round" stroke-linejoin="round"/>
<path d="M2865.09 1060H2862.82V1042C2862.76 1022.33 2855.72 1003.17 2842.68 987.195C2829.64 971.22 2811.25 959.23 2790.09 952.9V946C2790.09 942.287 2788.41 938.726 2785.43 936.101C2782.45 933.475 2778.4 932 2774.18 932H2737.82C2733.6 932 2729.55 933.475 2726.57 936.101C2723.59 938.726 2721.91 942.287 2721.91 946V952.9C2700.75 959.23 2682.36 971.22 2669.32 987.195C2656.28 1003.17 2649.24 1022.33 2649.18 1042V1060H2646.91C2642.69 1060 2638.64 1061.48 2635.66 1064.1C2632.68 1066.73 2631 1070.29 2631 1074V1098C2631 1101.71 2632.68 1105.27 2635.66 1107.9C2638.64 1110.52 2642.69 1112 2646.91 1112H2865.09C2869.31 1112 2873.36 1110.52 2876.34 1107.9C2879.32 1105.27 2881 1101.71 2881 1098V1074C2881 1070.29 2879.32 1066.73 2876.34 1064.1C2873.36 1061.48 2869.31 1060 2865.09 1060ZM2849.18 1042V1060H2790.09V965.68C2807.48 971.745 2822.41 982.258 2832.94 995.862C2843.48 1009.47 2849.13 1025.54 2849.18 1042ZM2737.82 944H2774.18C2774.78 944 2775.36 944.211 2775.79 944.586C2776.22 944.961 2776.45 945.47 2776.45 946V1060H2735.55V946C2735.55 945.47 2735.78 944.961 2736.21 944.586C2736.64 944.211 2737.22 944 2737.82 944ZM2662.82 1042C2662.87 1025.54 2668.52 1009.47 2679.06 995.862C2689.59 982.258 2704.52 971.745 2721.91 965.68V1060H2662.82V1042ZM2867.36 1098C2867.36 1098.53 2867.12 1099.04 2866.7 1099.41C2866.27 1099.79 2865.69 1100 2865.09 1100H2646.91C2646.31 1100 2645.73 1099.79 2645.3 1099.41C2644.88 1099.04 2644.64 1098.53 2644.64 1098V1074C2644.64 1073.47 2644.88 1072.96 2645.3 1072.59C2645.73 1072.21 2646.31 1072 2646.91 1072H2865.09C2865.69 1072 2866.27 1072.21 2866.7 1072.59C2867.12 1072.96 2867.36 1073.47 2867.36 1074V1098Z" fill="white"/>
<path d="M365.167 707L376 642H390L385.917 666.75H411.917L416 642H430L419.167 707H405.167L410 678.083H384L379.167 707H365.167ZM460.699 708.167C454.644 708.167 449.588 706.972 445.533 704.583C441.477 702.139 438.588 698.722 436.866 694.333C435.144 689.889 434.783 684.722 435.783 678.833L441.949 642H456.116L449.699 680.5C449.421 682.167 449.366 683.944 449.533 685.833C449.699 687.722 450.171 689.5 450.949 691.167C451.783 692.778 453.005 694.111 454.616 695.167C456.283 696.167 458.421 696.667 461.033 696.667C463.033 696.667 464.838 696.306 466.449 695.583C468.116 694.861 469.533 693.806 470.699 692.417C471.921 691.028 472.949 689.306 473.783 687.25C474.616 685.139 475.255 682.75 475.699 680.083L482.033 642H495.866L489.366 680.5C488.755 684.167 487.894 687.472 486.783 690.417C485.671 693.361 484.283 695.944 482.616 698.167C481.005 700.389 479.116 702.25 476.949 703.75C474.783 705.194 472.338 706.278 469.616 707C466.949 707.778 463.977 708.167 460.699 708.167ZM496.905 707L507.738 642H531.238L541.405 696H543.405L552.405 642H565.072L554.238 707H530.572L520.572 653H518.572L509.572 707H496.905ZM581.508 707L590.508 653H571.091L572.924 642H625.758L623.924 653H604.508L595.508 707H581.508Z" fill="white"/>
<path d="M703.065 1314L713.898 1249H727.898L717.065 1314H703.065ZM745.642 1314.83C740.92 1314.83 737.114 1313.14 734.225 1309.75C731.336 1306.36 729.892 1301.47 729.892 1295.08C729.892 1291.36 730.392 1287.61 731.392 1283.83C732.392 1280.06 733.892 1276.61 735.892 1273.5C737.892 1270.33 740.364 1267.81 743.309 1265.92C746.309 1263.97 749.753 1263 753.642 1263C756.92 1263 759.392 1263.58 761.059 1264.75C762.725 1265.92 763.975 1267.17 764.809 1268.5H766.809L769.809 1247.33H783.309L774.392 1301C774.17 1302.5 773.947 1303.97 773.725 1305.42C773.559 1306.81 773.42 1308.22 773.309 1309.67C773.253 1311.06 773.225 1312.5 773.225 1314H760.225C760.336 1312.89 760.475 1311.64 760.642 1310.25C760.864 1308.86 761.086 1307.61 761.309 1306.5H759.309C758.253 1308.5 756.642 1310.39 754.475 1312.17C752.364 1313.94 749.42 1314.83 745.642 1314.83ZM750.475 1304.83C752.809 1304.83 754.836 1303.83 756.559 1301.83C758.336 1299.83 759.809 1297.28 760.975 1294.17C762.197 1291.06 763.086 1287.83 763.642 1284.5L765.225 1275C764.225 1274.28 763.086 1273.69 761.809 1273.25C760.586 1272.75 759.17 1272.5 757.559 1272.5C754.67 1272.5 752.17 1273.53 750.059 1275.58C747.947 1277.58 746.309 1280.28 745.142 1283.67C743.975 1287 743.392 1290.64 743.392 1294.58C743.392 1298.19 744.059 1300.81 745.392 1302.42C746.781 1304.03 748.475 1304.83 750.475 1304.83ZM805.622 1315.25C799.289 1315.25 794.234 1313.39 790.456 1309.67C786.678 1305.94 784.789 1300.47 784.789 1293.25C784.789 1289.92 785.234 1286.47 786.122 1282.92C787.067 1279.36 788.539 1276.06 790.539 1273C792.595 1269.94 795.234 1267.47 798.456 1265.58C801.734 1263.69 805.678 1262.75 810.289 1262.75C814.511 1262.75 818.206 1263.69 821.372 1265.58C824.595 1267.42 826.956 1270.28 828.456 1274.17C829.956 1278.06 830.206 1283.03 829.206 1289.08L828.706 1292.17H794.622V1283.67H816.622C817.345 1279.5 816.956 1276.47 815.456 1274.58C813.956 1272.69 812.067 1271.75 809.789 1271.75C807.4 1271.75 805.428 1272.58 803.872 1274.25C802.372 1275.86 801.206 1277.92 800.372 1280.42C799.539 1282.86 798.956 1285.36 798.622 1287.92C798.289 1290.42 798.122 1292.58 798.122 1294.42C798.122 1298.31 798.845 1301.17 800.289 1303C801.734 1304.83 803.65 1305.75 806.039 1305.75C807.761 1305.75 809.234 1305.36 810.456 1304.58C811.734 1303.75 812.845 1302.67 813.789 1301.33C814.734 1300 815.539 1298.53 816.206 1296.92L826.539 1303.67C825.261 1305.83 823.65 1307.81 821.706 1309.58C819.761 1311.31 817.456 1312.69 814.789 1313.75C812.122 1314.75 809.067 1315.25 805.622 1315.25ZM833.66 1314L839.993 1276C840.438 1273.5 840.799 1271.14 841.077 1268.92C841.355 1266.64 841.493 1265 841.493 1264H853.493C853.493 1265.17 853.41 1266.39 853.243 1267.67C853.132 1268.89 852.966 1270.17 852.743 1271.5H854.743C856.021 1269 857.688 1266.92 859.743 1265.25C861.799 1263.58 864.66 1262.75 868.327 1262.75C871.882 1262.75 874.799 1263.56 877.077 1265.17C879.41 1266.78 881.021 1269 881.91 1271.83C882.855 1274.61 883.021 1277.86 882.41 1281.58L876.993 1314H863.493L868.577 1283.5C869.188 1280.06 869.049 1277.42 868.16 1275.58C867.271 1273.75 865.688 1272.83 863.41 1272.83C861.299 1272.83 859.41 1273.61 857.743 1275.17C856.077 1276.72 854.688 1278.81 853.577 1281.42C852.521 1284.03 851.716 1286.89 851.16 1290L847.16 1314H833.66ZM894.807 1314C893.863 1312.39 893.196 1310.53 892.807 1308.42C892.474 1306.31 892.641 1303.19 893.307 1299.08L897.557 1273.5H891.724L893.307 1264H899.474L901.557 1251.5H914.391L912.307 1264H919.974L918.391 1273.5H911.057L906.974 1297.67C906.307 1301.72 906.224 1304.94 906.724 1307.33C907.224 1309.67 908.085 1311.72 909.307 1313.5V1314H894.807ZM920.281 1314L928.615 1264H942.115L933.781 1314H920.281ZM936.781 1258.25C934.67 1258.25 933.031 1257.72 931.865 1256.67C930.753 1255.56 930.198 1254.08 930.198 1252.25C930.198 1249.97 930.92 1248.17 932.365 1246.83C933.809 1245.44 935.726 1244.75 938.115 1244.75C940.226 1244.75 941.837 1245.31 942.948 1246.42C944.115 1247.47 944.698 1248.89 944.698 1250.67C944.698 1252.89 943.976 1254.72 942.531 1256.17C941.142 1257.56 939.226 1258.25 936.781 1258.25ZM947.743 1322.33L955.91 1273.5H949.243L950.827 1264H957.66L958.16 1261C958.605 1258.5 959.327 1256.17 960.327 1254C961.382 1251.83 963.021 1250.11 965.243 1248.83C967.521 1247.5 970.632 1246.83 974.577 1246.83C975.688 1246.83 976.688 1246.89 977.577 1247C978.466 1247.11 979.188 1247.22 979.743 1247.33L978.243 1256.33C977.91 1256.28 977.605 1256.25 977.327 1256.25C977.105 1256.19 976.716 1256.17 976.16 1256.17C974.438 1256.17 973.188 1256.67 972.41 1257.67C971.688 1258.61 971.16 1260.06 970.827 1262L970.493 1264H977.493L975.91 1273.5H969.077L960.91 1322.33H947.743ZM978.301 1330.67V1330.17C980.301 1327.67 982.329 1324.86 984.384 1321.75C986.44 1318.69 988.162 1315.69 989.551 1312.75L980.634 1264H993.634L996.884 1284.08C997.162 1285.81 997.44 1287.64 997.717 1289.58C998.051 1291.53 998.245 1294 998.301 1297H1000.3C1001.19 1294 1002.02 1291.44 1002.8 1289.33C1003.63 1287.22 1004.38 1285.44 1005.05 1284L1014.3 1264H1027.47L1007.8 1304.5C1004.8 1310.67 1001.94 1316 999.217 1320.5C996.551 1325.06 994.412 1328.44 992.801 1330.67H978.301ZM1062.24 1315C1057.52 1315 1053.72 1313.28 1050.83 1309.83C1047.94 1306.39 1046.49 1301.47 1046.49 1295.08C1046.49 1291.36 1046.99 1287.61 1047.99 1283.83C1049.05 1280.06 1050.6 1276.61 1052.66 1273.5C1054.72 1270.33 1057.24 1267.81 1060.24 1265.92C1063.24 1263.97 1066.74 1263 1070.74 1263C1074.08 1263 1076.63 1263.61 1078.41 1264.83C1080.19 1266 1081.49 1267.39 1082.33 1269H1084.33L1085.16 1264H1097.16L1090.99 1301C1090.77 1302.5 1090.55 1303.97 1090.33 1305.42C1090.16 1306.81 1090.02 1308.22 1089.91 1309.67C1089.85 1311.06 1089.83 1312.5 1089.83 1314H1076.83C1076.94 1312.89 1077.08 1311.64 1077.24 1310.25C1077.47 1308.86 1077.69 1307.61 1077.91 1306.5H1075.91C1074.85 1308.5 1073.24 1310.42 1071.08 1312.25C1068.97 1314.08 1066.02 1315 1062.24 1315ZM1067.08 1305C1069.41 1305 1071.44 1304 1073.16 1302C1074.94 1299.94 1076.41 1297.36 1077.58 1294.25C1078.8 1291.08 1079.69 1287.83 1080.24 1284.5L1081.83 1275C1080.83 1274.28 1079.69 1273.69 1078.41 1273.25C1077.19 1272.75 1075.77 1272.5 1074.16 1272.5C1071.27 1272.5 1068.77 1273.53 1066.66 1275.58C1064.55 1277.58 1062.91 1280.28 1061.74 1283.67C1060.58 1287 1059.99 1290.64 1059.99 1294.58C1059.99 1298.19 1060.66 1300.83 1061.99 1302.5C1063.38 1304.17 1065.08 1305 1067.08 1305ZM1101.14 1314L1107.47 1276C1107.92 1273.5 1108.28 1271.14 1108.56 1268.92C1108.84 1266.64 1108.97 1265 1108.97 1264H1120.97C1120.97 1265.17 1120.89 1266.39 1120.72 1267.67C1120.61 1268.89 1120.45 1270.17 1120.22 1271.5H1122.22C1123.5 1269 1125.17 1266.92 1127.22 1265.25C1129.28 1263.58 1132.14 1262.75 1135.81 1262.75C1139.36 1262.75 1142.28 1263.56 1144.56 1265.17C1146.89 1266.78 1148.5 1269 1149.39 1271.83C1150.34 1274.61 1150.5 1277.86 1149.89 1281.58L1144.47 1314H1130.97L1136.06 1283.5C1136.67 1280.06 1136.53 1277.42 1135.64 1275.58C1134.75 1273.75 1133.17 1272.83 1130.89 1272.83C1128.78 1272.83 1126.89 1273.61 1125.22 1275.17C1123.56 1276.72 1122.17 1278.81 1121.06 1281.42C1120 1284.03 1119.2 1286.89 1118.64 1290L1114.64 1314H1101.14ZM1172.2 1314.83C1167.48 1314.83 1163.68 1313.14 1160.79 1309.75C1157.9 1306.36 1156.45 1301.47 1156.45 1295.08C1156.45 1291.36 1156.95 1287.61 1157.95 1283.83C1158.95 1280.06 1160.45 1276.61 1162.45 1273.5C1164.45 1270.33 1166.93 1267.81 1169.87 1265.92C1172.87 1263.97 1176.32 1263 1180.2 1263C1183.48 1263 1185.95 1263.58 1187.62 1264.75C1189.29 1265.92 1190.54 1267.17 1191.37 1268.5H1193.37L1196.37 1247.33H1209.87L1200.95 1301C1200.73 1302.5 1200.51 1303.97 1200.29 1305.42C1200.12 1306.81 1199.98 1308.22 1199.87 1309.67C1199.82 1311.06 1199.79 1312.5 1199.79 1314H1186.79C1186.9 1312.89 1187.04 1311.64 1187.2 1310.25C1187.43 1308.86 1187.65 1307.61 1187.87 1306.5H1185.87C1184.82 1308.5 1183.2 1310.39 1181.04 1312.17C1178.93 1313.94 1175.98 1314.83 1172.2 1314.83ZM1177.04 1304.83C1179.37 1304.83 1181.4 1303.83 1183.12 1301.83C1184.9 1299.83 1186.37 1297.28 1187.54 1294.17C1188.76 1291.06 1189.65 1287.83 1190.2 1284.5L1191.79 1275C1190.79 1274.28 1189.65 1273.69 1188.37 1273.25C1187.15 1272.75 1185.73 1272.5 1184.12 1272.5C1181.23 1272.5 1178.73 1273.53 1176.62 1275.58C1174.51 1277.58 1172.87 1280.28 1171.7 1283.67C1170.54 1287 1169.95 1290.64 1169.95 1294.58C1169.95 1298.19 1170.62 1300.81 1171.95 1302.42C1173.34 1304.03 1175.04 1304.83 1177.04 1304.83ZM751.629 1439L757.962 1401C758.407 1398.5 758.768 1396.14 759.046 1393.92C759.323 1391.64 759.462 1390 759.462 1389H771.462C771.462 1390.17 771.379 1391.56 771.212 1393.17C771.046 1394.72 770.823 1396.17 770.546 1397.5H772.546C773.101 1396.06 773.907 1394.64 774.962 1393.25C776.018 1391.86 777.462 1390.72 779.296 1389.83C781.129 1388.94 783.462 1388.5 786.296 1388.5H789.462L787.462 1400.67H783.296C780.184 1400.67 777.712 1401.08 775.879 1401.92C774.046 1402.75 772.629 1404.14 771.629 1406.08C770.629 1408.03 769.851 1410.67 769.296 1414L765.129 1439H751.629ZM809.333 1440.25C803 1440.25 797.944 1438.39 794.167 1434.67C790.389 1430.94 788.5 1425.47 788.5 1418.25C788.5 1414.92 788.944 1411.47 789.833 1407.92C790.778 1404.36 792.25 1401.06 794.25 1398C796.306 1394.94 798.944 1392.47 802.167 1390.58C805.444 1388.69 809.389 1387.75 814 1387.75C818.222 1387.75 821.917 1388.69 825.083 1390.58C828.306 1392.42 830.667 1395.28 832.167 1399.17C833.667 1403.06 833.917 1408.03 832.917 1414.08L832.417 1417.17H798.333V1408.67H820.333C821.056 1404.5 820.667 1401.47 819.167 1399.58C817.667 1397.69 815.778 1396.75 813.5 1396.75C811.111 1396.75 809.139 1397.58 807.583 1399.25C806.083 1400.86 804.917 1402.92 804.083 1405.42C803.25 1407.86 802.667 1410.36 802.333 1412.92C802 1415.42 801.833 1417.58 801.833 1419.42C801.833 1423.31 802.556 1426.17 804 1428C805.444 1429.83 807.361 1430.75 809.75 1430.75C811.472 1430.75 812.944 1430.36 814.167 1429.58C815.444 1428.75 816.556 1427.67 817.5 1426.33C818.444 1425 819.25 1423.53 819.917 1421.92L830.25 1428.67C828.972 1430.83 827.361 1432.81 825.417 1434.58C823.472 1436.31 821.167 1437.69 818.5 1438.75C815.833 1439.75 812.778 1440.25 809.333 1440.25ZM837.371 1439L843.704 1401C844.149 1398.5 844.51 1396.14 844.788 1393.92C845.066 1391.64 845.204 1390 845.204 1389H857.204C857.204 1390.17 857.121 1391.39 856.954 1392.67C856.843 1393.89 856.677 1395.17 856.454 1396.5H858.454C859.732 1394 861.399 1391.92 863.454 1390.25C865.51 1388.58 868.371 1387.75 872.038 1387.75C875.149 1387.75 877.732 1388.56 879.788 1390.17C881.899 1391.72 883.288 1393.83 883.954 1396.5H885.954C887.232 1394 888.899 1391.92 890.954 1390.25C893.01 1388.58 895.871 1387.75 899.538 1387.75C903.093 1387.75 906.01 1388.56 908.288 1390.17C910.621 1391.78 912.232 1394 913.121 1396.83C914.066 1399.61 914.232 1402.86 913.621 1406.58L908.204 1439H894.704L899.788 1408.5C900.399 1405.06 900.288 1402.42 899.454 1400.58C898.677 1398.69 897.288 1397.75 895.288 1397.75C893.343 1397.75 891.566 1398.56 889.954 1400.17C888.399 1401.72 887.066 1403.81 885.954 1406.42C884.899 1409.03 884.093 1411.89 883.538 1415L879.538 1439H866.038L871.121 1408.5C871.732 1405.06 871.621 1402.42 870.788 1400.58C869.954 1398.69 868.538 1397.75 866.538 1397.75C864.593 1397.75 862.843 1398.56 861.288 1400.17C859.732 1401.72 858.399 1403.81 857.288 1406.42C856.232 1409.03 855.427 1411.89 854.871 1415L850.871 1439H837.371ZM919.891 1439L928.224 1389H941.724L933.391 1439H919.891ZM936.391 1383.25C934.28 1383.25 932.641 1382.72 931.474 1381.67C930.363 1380.56 929.807 1379.08 929.807 1377.25C929.807 1374.97 930.53 1373.17 931.974 1371.83C933.418 1370.44 935.335 1369.75 937.724 1369.75C939.835 1369.75 941.446 1370.31 942.557 1371.42C943.724 1372.47 944.307 1373.89 944.307 1375.67C944.307 1377.89 943.585 1379.72 942.141 1381.17C940.752 1382.56 938.835 1383.25 936.391 1383.25ZM961.853 1439.83C957.131 1439.83 953.325 1438.14 950.436 1434.75C947.547 1431.36 946.103 1426.47 946.103 1420.08C946.103 1416.36 946.603 1412.61 947.603 1408.83C948.603 1405.06 950.103 1401.61 952.103 1398.5C954.103 1395.33 956.575 1392.81 959.52 1390.92C962.52 1388.97 965.964 1388 969.853 1388C973.131 1388 975.603 1388.58 977.27 1389.75C978.936 1390.92 980.186 1392.17 981.02 1393.5H983.02L986.02 1372.33H999.52L990.603 1426C990.381 1427.5 990.158 1428.97 989.936 1430.42C989.77 1431.81 989.631 1433.22 989.52 1434.67C989.464 1436.06 989.436 1437.5 989.436 1439H976.436C976.547 1437.89 976.686 1436.64 976.853 1435.25C977.075 1433.86 977.297 1432.61 977.52 1431.5H975.52C974.464 1433.5 972.853 1435.39 970.686 1437.17C968.575 1438.94 965.631 1439.83 961.853 1439.83ZM966.686 1429.83C969.02 1429.83 971.047 1428.83 972.77 1426.83C974.547 1424.83 976.02 1422.28 977.186 1419.17C978.408 1416.06 979.297 1412.83 979.853 1409.5L981.436 1400C980.436 1399.28 979.297 1398.69 978.02 1398.25C976.797 1397.75 975.381 1397.5 973.77 1397.5C970.881 1397.5 968.381 1398.53 966.27 1400.58C964.158 1402.58 962.52 1405.28 961.353 1408.67C960.186 1412 959.603 1415.64 959.603 1419.58C959.603 1423.19 960.27 1425.81 961.603 1427.42C962.992 1429.03 964.686 1429.83 966.686 1429.83ZM1000.75 1439L1009.08 1389H1022.58L1014.25 1439H1000.75ZM1017.25 1383.25C1015.14 1383.25 1013.5 1382.72 1012.33 1381.67C1011.22 1380.56 1010.67 1379.08 1010.67 1377.25C1010.67 1374.97 1011.39 1373.17 1012.83 1371.83C1014.28 1370.44 1016.19 1369.75 1018.58 1369.75C1020.69 1369.75 1022.31 1370.31 1023.42 1371.42C1024.58 1372.47 1025.17 1373.89 1025.17 1375.67C1025.17 1377.89 1024.44 1379.72 1023 1381.17C1021.61 1382.56 1019.69 1383.25 1017.25 1383.25ZM1042.71 1440C1037.99 1440 1034.18 1438.28 1031.3 1434.83C1028.41 1431.39 1026.96 1426.47 1026.96 1420.08C1026.96 1416.36 1027.46 1412.61 1028.46 1408.83C1029.52 1405.06 1031.07 1401.61 1033.13 1398.5C1035.18 1395.33 1037.71 1392.81 1040.71 1390.92C1043.71 1388.97 1047.21 1388 1051.21 1388C1054.55 1388 1057.1 1388.61 1058.88 1389.83C1060.66 1391 1061.96 1392.39 1062.8 1394H1064.8L1065.63 1389H1077.63L1071.46 1426C1071.24 1427.5 1071.02 1428.97 1070.8 1430.42C1070.63 1431.81 1070.49 1433.22 1070.38 1434.67C1070.32 1436.06 1070.3 1437.5 1070.3 1439H1057.3C1057.41 1437.89 1057.55 1436.64 1057.71 1435.25C1057.93 1433.86 1058.16 1432.61 1058.38 1431.5H1056.38C1055.32 1433.5 1053.71 1435.42 1051.55 1437.25C1049.43 1439.08 1046.49 1440 1042.71 1440ZM1047.55 1430C1049.88 1430 1051.91 1429 1053.63 1427C1055.41 1424.94 1056.88 1422.36 1058.05 1419.25C1059.27 1416.08 1060.16 1412.83 1060.71 1409.5L1062.3 1400C1061.3 1399.28 1060.16 1398.69 1058.88 1398.25C1057.66 1397.75 1056.24 1397.5 1054.63 1397.5C1051.74 1397.5 1049.24 1398.53 1047.13 1400.58C1045.02 1402.58 1043.38 1405.28 1042.21 1408.67C1041.05 1412 1040.46 1415.64 1040.46 1419.58C1040.46 1423.19 1041.13 1425.83 1042.46 1427.5C1043.85 1429.17 1045.55 1430 1047.55 1430ZM1087.78 1439C1086.83 1437.39 1086.16 1435.53 1085.78 1433.42C1085.44 1431.31 1085.61 1428.19 1086.28 1424.08L1090.53 1398.5H1084.69L1086.28 1389H1092.44L1094.53 1376.5H1107.36L1105.28 1389H1112.94L1111.36 1398.5H1104.03L1099.94 1422.67C1099.28 1426.72 1099.19 1429.94 1099.69 1432.33C1100.19 1434.67 1101.05 1436.72 1102.28 1438.5V1439H1087.78ZM1134.33 1440.25C1128 1440.25 1122.94 1438.39 1119.17 1434.67C1115.39 1430.94 1113.5 1425.47 1113.5 1418.25C1113.5 1414.92 1113.94 1411.47 1114.83 1407.92C1115.78 1404.36 1117.25 1401.06 1119.25 1398C1121.31 1394.94 1123.94 1392.47 1127.17 1390.58C1130.44 1388.69 1134.39 1387.75 1139 1387.75C1143.22 1387.75 1146.92 1388.69 1150.08 1390.58C1153.31 1392.42 1155.67 1395.28 1157.17 1399.17C1158.67 1403.06 1158.92 1408.03 1157.92 1414.08L1157.42 1417.17H1123.33V1408.67H1145.33C1146.06 1404.5 1145.67 1401.47 1144.17 1399.58C1142.67 1397.69 1140.78 1396.75 1138.5 1396.75C1136.11 1396.75 1134.14 1397.58 1132.58 1399.25C1131.08 1400.86 1129.92 1402.92 1129.08 1405.42C1128.25 1407.86 1127.67 1410.36 1127.33 1412.92C1127 1415.42 1126.83 1417.58 1126.83 1419.42C1126.83 1423.31 1127.56 1426.17 1129 1428C1130.44 1429.83 1132.36 1430.75 1134.75 1430.75C1136.47 1430.75 1137.94 1430.36 1139.17 1429.58C1140.44 1428.75 1141.56 1427.67 1142.5 1426.33C1143.44 1425 1144.25 1423.53 1144.92 1421.92L1155.25 1428.67C1153.97 1430.83 1152.36 1432.81 1150.42 1434.58C1148.47 1436.31 1146.17 1437.69 1143.5 1438.75C1140.83 1439.75 1137.78 1440.25 1134.33 1440.25ZM685.365 1564L679.698 1514.08V1514H692.531L696.448 1553H698.448L714.615 1514H727.698V1514.08L706.198 1564H685.365ZM742.115 1565.25C737.226 1565.25 733.503 1563.69 730.948 1560.58C728.448 1557.42 727.698 1552.89 728.698 1547L734.198 1514H747.698L742.281 1546.5C741.892 1549 742.142 1551.08 743.031 1552.75C743.92 1554.42 745.476 1555.25 747.698 1555.25C749.92 1555.25 751.837 1554.47 753.448 1552.92C755.115 1551.31 756.503 1549.19 757.615 1546.58C758.726 1543.97 759.531 1541.11 760.031 1538L764.031 1514H777.531L771.365 1551C770.976 1553.22 770.67 1555.39 770.448 1557.5C770.281 1559.61 770.198 1561.78 770.198 1564H757.198C757.309 1562.89 757.448 1561.64 757.615 1560.25C757.837 1558.86 758.059 1557.61 758.281 1556.5H756.281C754.67 1559 752.809 1561.08 750.698 1562.75C748.642 1564.42 745.781 1565.25 742.115 1565.25ZM784.012 1564C783.512 1561.89 783.234 1559.69 783.178 1557.42C783.178 1555.08 783.456 1552.31 784.012 1549.08L792.595 1497.33H806.095L797.762 1547.5C797.095 1551.56 796.817 1554.83 796.928 1557.33C797.095 1559.83 797.456 1561.89 798.012 1563.5V1564H784.012ZM807.391 1564L813.724 1526C814.168 1523.5 814.53 1521.14 814.807 1518.92C815.085 1516.64 815.224 1515 815.224 1514H827.224C827.224 1515.17 827.141 1516.39 826.974 1517.67C826.863 1518.89 826.696 1520.17 826.474 1521.5H828.474C829.752 1519 831.418 1516.92 833.474 1515.25C835.53 1513.58 838.391 1512.75 842.057 1512.75C845.613 1512.75 848.53 1513.56 850.807 1515.17C853.141 1516.78 854.752 1519 855.641 1521.83C856.585 1524.61 856.752 1527.86 856.141 1531.58L850.724 1564H837.224L842.307 1533.5C842.918 1530.06 842.78 1527.42 841.891 1525.58C841.002 1523.75 839.418 1522.83 837.141 1522.83C835.03 1522.83 833.141 1523.61 831.474 1525.17C829.807 1526.72 828.418 1528.81 827.307 1531.42C826.252 1534.03 825.446 1536.89 824.891 1540L820.891 1564H807.391ZM878.454 1565C873.732 1565 869.927 1563.28 867.038 1559.83C864.149 1556.39 862.704 1551.47 862.704 1545.08C862.704 1541.36 863.204 1537.61 864.204 1533.83C865.26 1530.06 866.816 1526.61 868.871 1523.5C870.927 1520.33 873.454 1517.81 876.454 1515.92C879.454 1513.97 882.954 1513 886.954 1513C890.288 1513 892.843 1513.61 894.621 1514.83C896.399 1516 897.704 1517.39 898.538 1519H900.538L901.371 1514H913.371L907.204 1551C906.982 1552.5 906.76 1553.97 906.538 1555.42C906.371 1556.81 906.232 1558.22 906.121 1559.67C906.066 1561.06 906.038 1562.5 906.038 1564H893.038C893.149 1562.89 893.288 1561.64 893.454 1560.25C893.677 1558.86 893.899 1557.61 894.121 1556.5H892.121C891.066 1558.5 889.454 1560.42 887.288 1562.25C885.177 1564.08 882.232 1565 878.454 1565ZM883.288 1555C885.621 1555 887.649 1554 889.371 1552C891.149 1549.94 892.621 1547.36 893.788 1544.25C895.01 1541.08 895.899 1537.83 896.454 1534.5L898.038 1525C897.038 1524.28 895.899 1523.69 894.621 1523.25C893.399 1522.75 891.982 1522.5 890.371 1522.5C887.482 1522.5 884.982 1523.53 882.871 1525.58C880.76 1527.58 879.121 1530.28 877.954 1533.67C876.788 1537 876.204 1540.64 876.204 1544.58C876.204 1548.19 876.871 1550.83 878.204 1552.5C879.593 1554.17 881.288 1555 883.288 1555ZM917.352 1564L923.685 1526C924.129 1523.5 924.49 1521.14 924.768 1518.92C925.046 1516.64 925.185 1515 925.185 1514H937.185C937.185 1515.17 937.102 1516.56 936.935 1518.17C936.768 1519.72 936.546 1521.17 936.268 1522.5H938.268C938.824 1521.06 939.629 1519.64 940.685 1518.25C941.74 1516.86 943.185 1515.72 945.018 1514.83C946.852 1513.94 949.185 1513.5 952.018 1513.5H955.185L953.185 1525.67H949.018C945.907 1525.67 943.435 1526.08 941.602 1526.92C939.768 1527.75 938.352 1529.14 937.352 1531.08C936.352 1533.03 935.574 1535.67 935.018 1539L930.852 1564H917.352ZM981.185 1565C977.796 1565 975.213 1564.39 973.435 1563.17C971.713 1561.94 970.463 1560.56 969.685 1559H967.685L966.852 1564H954.852L965.935 1497.33H979.435L974.768 1520.5H976.768C977.268 1519.5 978.046 1518.44 979.102 1517.33C980.213 1516.17 981.629 1515.19 983.352 1514.42C985.129 1513.58 987.268 1513.17 989.768 1513.17C994.49 1513.17 998.296 1514.86 1001.18 1518.25C1004.07 1521.64 1005.52 1526.53 1005.52 1532.92C1005.52 1536.64 1004.99 1540.39 1003.93 1544.17C1002.93 1547.94 1001.41 1551.42 999.352 1554.58C997.352 1557.69 994.824 1560.22 991.768 1562.17C988.768 1564.06 985.24 1565 981.185 1565ZM977.852 1555.5C980.74 1555.5 983.24 1554.5 985.352 1552.5C987.463 1550.44 989.102 1547.75 990.268 1544.42C991.435 1541.03 992.018 1537.36 992.018 1533.42C992.018 1529.81 991.324 1527.19 989.935 1525.58C988.602 1523.97 986.935 1523.17 984.935 1523.17C982.657 1523.17 980.629 1524.17 978.852 1526.17C977.074 1528.17 975.574 1530.72 974.352 1533.83C973.185 1536.94 972.324 1540.17 971.768 1543.5L970.185 1553C971.185 1553.72 972.324 1554.33 973.602 1554.83C974.879 1555.28 976.296 1555.5 977.852 1555.5ZM1009.83 1564L1018.17 1514H1031.67L1023.33 1564H1009.83ZM1026.33 1508.25C1024.22 1508.25 1022.58 1507.72 1021.42 1506.67C1020.3 1505.56 1019.75 1504.08 1019.75 1502.25C1019.75 1499.97 1020.47 1498.17 1021.92 1496.83C1023.36 1495.44 1025.28 1494.75 1027.67 1494.75C1029.78 1494.75 1031.39 1495.31 1032.5 1496.42C1033.67 1497.47 1034.25 1498.89 1034.25 1500.67C1034.25 1502.89 1033.53 1504.72 1032.08 1506.17C1030.69 1507.56 1028.78 1508.25 1026.33 1508.25ZM1038.21 1564C1037.71 1561.89 1037.43 1559.69 1037.38 1557.42C1037.38 1555.08 1037.66 1552.31 1038.21 1549.08L1046.79 1497.33H1060.29L1051.96 1547.5C1051.29 1551.56 1051.02 1554.83 1051.13 1557.33C1051.29 1559.83 1051.66 1561.89 1052.21 1563.5V1564H1038.21ZM1061.59 1564L1069.92 1514H1083.42L1075.09 1564H1061.59ZM1078.09 1508.25C1075.98 1508.25 1074.34 1507.72 1073.17 1506.67C1072.06 1505.56 1071.51 1504.08 1071.51 1502.25C1071.51 1499.97 1072.23 1498.17 1073.67 1496.83C1075.12 1495.44 1077.03 1494.75 1079.42 1494.75C1081.53 1494.75 1083.15 1495.31 1084.26 1496.42C1085.42 1497.47 1086.01 1498.89 1086.01 1500.67C1086.01 1502.89 1085.28 1504.72 1083.84 1506.17C1082.45 1507.56 1080.53 1508.25 1078.09 1508.25ZM1093.64 1564C1092.69 1562.39 1092.02 1560.53 1091.64 1558.42C1091.3 1556.31 1091.47 1553.19 1092.14 1549.08L1096.39 1523.5H1090.55L1092.14 1514H1098.3L1100.39 1501.5H1113.22L1111.14 1514H1118.8L1117.22 1523.5H1109.89L1105.8 1547.67C1105.14 1551.72 1105.05 1554.94 1105.55 1557.33C1106.05 1559.67 1106.91 1561.72 1108.14 1563.5V1564H1093.64ZM1119.11 1564L1127.44 1514H1140.94L1132.61 1564H1119.11ZM1135.61 1508.25C1133.5 1508.25 1131.86 1507.72 1130.69 1506.67C1129.58 1505.56 1129.03 1504.08 1129.03 1502.25C1129.03 1499.97 1129.75 1498.17 1131.19 1496.83C1132.64 1495.44 1134.55 1494.75 1136.94 1494.75C1139.05 1494.75 1140.66 1495.31 1141.78 1496.42C1142.94 1497.47 1143.53 1498.89 1143.53 1500.67C1143.53 1502.89 1142.8 1504.72 1141.36 1506.17C1139.97 1507.56 1138.05 1508.25 1135.61 1508.25ZM1166.07 1565.25C1159.74 1565.25 1154.68 1563.39 1150.9 1559.67C1147.13 1555.94 1145.24 1550.47 1145.24 1543.25C1145.24 1539.92 1145.68 1536.47 1146.57 1532.92C1147.52 1529.36 1148.99 1526.06 1150.99 1523C1153.04 1519.94 1155.68 1517.47 1158.9 1515.58C1162.18 1513.69 1166.13 1512.75 1170.74 1512.75C1174.96 1512.75 1178.65 1513.69 1181.82 1515.58C1185.04 1517.42 1187.4 1520.28 1188.9 1524.17C1190.4 1528.06 1190.65 1533.03 1189.65 1539.08L1189.15 1542.17H1155.07V1533.67H1177.07C1177.79 1529.5 1177.4 1526.47 1175.9 1524.58C1174.4 1522.69 1172.52 1521.75 1170.24 1521.75C1167.85 1521.75 1165.88 1522.58 1164.32 1524.25C1162.82 1525.86 1161.65 1527.92 1160.82 1530.42C1159.99 1532.86 1159.4 1535.36 1159.07 1537.92C1158.74 1540.42 1158.57 1542.58 1158.57 1544.42C1158.57 1548.31 1159.29 1551.17 1160.74 1553C1162.18 1554.83 1164.1 1555.75 1166.49 1555.75C1168.21 1555.75 1169.68 1555.36 1170.9 1554.58C1172.18 1553.75 1173.29 1552.67 1174.24 1551.33C1175.18 1550 1175.99 1548.53 1176.65 1546.92L1186.99 1553.67C1185.71 1555.83 1184.1 1557.81 1182.15 1559.58C1180.21 1561.31 1177.9 1562.69 1175.24 1563.75C1172.57 1564.75 1169.52 1565.25 1166.07 1565.25ZM1211.94 1565.25C1206.11 1565.25 1201.41 1563.78 1197.86 1560.83C1194.36 1557.83 1192.47 1554.06 1192.19 1549.5L1204.19 1546.58C1204.47 1549.53 1205.41 1551.81 1207.03 1553.42C1208.69 1554.97 1210.75 1555.75 1213.19 1555.75C1215.03 1555.75 1216.5 1555.28 1217.61 1554.33C1218.78 1553.39 1219.36 1552.22 1219.36 1550.83C1219.36 1549.39 1218.83 1548.22 1217.78 1547.33C1216.78 1546.39 1215.5 1545.58 1213.94 1544.92L1209.69 1543.08C1208.14 1542.42 1206.39 1541.56 1204.44 1540.5C1202.55 1539.39 1200.91 1537.92 1199.53 1536.08C1198.14 1534.19 1197.44 1531.75 1197.44 1528.75C1197.44 1525.81 1198.19 1523.14 1199.69 1520.75C1201.19 1518.31 1203.36 1516.36 1206.19 1514.92C1209.08 1513.47 1212.53 1512.75 1216.53 1512.75C1221.75 1512.75 1225.89 1514.03 1228.94 1516.58C1232 1519.08 1233.64 1522.47 1233.86 1526.75L1221.86 1529.67C1221.86 1527.17 1221.33 1525.22 1220.28 1523.83C1219.22 1522.44 1217.64 1521.75 1215.53 1521.75C1213.69 1521.75 1212.3 1522.25 1211.36 1523.25C1210.41 1524.25 1209.94 1525.42 1209.94 1526.75C1209.94 1528.08 1210.36 1529.19 1211.19 1530.08C1212.03 1530.92 1213.05 1531.58 1214.28 1532.08L1218.28 1533.75C1220.5 1534.64 1222.64 1535.69 1224.69 1536.92C1226.8 1538.08 1228.53 1539.61 1229.86 1541.5C1231.19 1543.33 1231.86 1545.72 1231.86 1548.67C1231.86 1551.67 1231.05 1554.44 1229.44 1557C1227.89 1559.5 1225.61 1561.5 1222.61 1563C1219.66 1564.5 1216.11 1565.25 1211.94 1565.25Z" fill="white"/>
<path d="M1879.62 697L1890.45 632H1914.03C1920.98 632 1926.34 633.639 1930.12 636.917C1933.89 640.139 1935.78 644.611 1935.78 650.333C1935.78 654.333 1934.84 657.917 1932.95 661.083C1931.06 664.194 1928.34 666.639 1924.78 668.417C1921.28 670.194 1917.03 671.083 1912.03 671.083H1897.95L1893.62 697H1879.62ZM1899.7 660.583H1910.37C1914.31 660.583 1917.23 659.639 1919.12 657.75C1921 655.806 1921.95 653.444 1921.95 650.667C1921.95 647.778 1921 645.694 1919.12 644.417C1917.23 643.139 1914.62 642.5 1911.28 642.5H1902.7L1899.7 660.583ZM1958.05 698.25C1951.72 698.25 1946.66 696.389 1942.89 692.667C1939.11 688.944 1937.22 683.472 1937.22 676.25C1937.22 672.917 1937.66 669.472 1938.55 665.917C1939.5 662.361 1940.97 659.056 1942.97 656C1945.02 652.944 1947.66 650.472 1950.89 648.583C1954.16 646.694 1958.11 645.75 1962.72 645.75C1966.94 645.75 1970.64 646.694 1973.8 648.583C1977.02 650.417 1979.39 653.278 1980.89 657.167C1982.39 661.056 1982.64 666.028 1981.64 672.083L1981.14 675.167H1947.05V666.667H1969.05C1969.77 662.5 1969.39 659.472 1967.89 657.583C1966.39 655.694 1964.5 654.75 1962.22 654.75C1959.83 654.75 1957.86 655.583 1956.3 657.25C1954.8 658.861 1953.64 660.917 1952.8 663.417C1951.97 665.861 1951.39 668.361 1951.05 670.917C1950.72 673.417 1950.55 675.583 1950.55 677.417C1950.55 681.306 1951.27 684.167 1952.72 686C1954.16 687.833 1956.08 688.75 1958.47 688.75C1960.19 688.75 1961.66 688.361 1962.89 687.583C1964.16 686.75 1965.27 685.667 1966.22 684.333C1967.16 683 1967.97 681.528 1968.64 679.917L1978.97 686.667C1977.69 688.833 1976.08 690.806 1974.14 692.583C1972.19 694.306 1969.89 695.694 1967.22 696.75C1964.55 697.75 1961.5 698.25 1958.05 698.25ZM1986.09 697L1992.42 659C1992.87 656.5 1993.23 654.139 1993.51 651.917C1993.78 649.639 1993.92 648 1993.92 647H2005.92C2005.92 648.167 2005.84 649.389 2005.67 650.667C2005.56 651.889 2005.4 653.167 2005.17 654.5H2007.17C2008.45 652 2010.12 649.917 2012.17 648.25C2014.23 646.583 2017.09 645.75 2020.76 645.75C2024.31 645.75 2027.23 646.556 2029.51 648.167C2031.84 649.778 2033.45 652 2034.34 654.833C2035.28 657.611 2035.45 660.861 2034.84 664.583L2029.42 697H2015.92L2021.01 666.5C2021.62 663.056 2021.48 660.417 2020.59 658.583C2019.7 656.75 2018.12 655.833 2015.84 655.833C2013.73 655.833 2011.84 656.611 2010.17 658.167C2008.51 659.722 2007.12 661.806 2006.01 664.417C2004.95 667.028 2004.15 669.889 2003.59 673L1999.59 697H1986.09ZM2062.15 698.25C2055.82 698.25 2050.76 696.389 2046.99 692.667C2043.21 688.944 2041.32 683.472 2041.32 676.25C2041.32 672.917 2041.76 669.472 2042.65 665.917C2043.6 662.361 2045.07 659.056 2047.07 656C2049.13 652.944 2051.76 650.472 2054.99 648.583C2058.26 646.694 2062.21 645.75 2066.82 645.75C2071.04 645.75 2074.74 646.694 2077.9 648.583C2081.13 650.417 2083.49 653.278 2084.99 657.167C2086.49 661.056 2086.74 666.028 2085.74 672.083L2085.24 675.167H2051.15V666.667H2073.15C2073.88 662.5 2073.49 659.472 2071.99 657.583C2070.49 655.694 2068.6 654.75 2066.32 654.75C2063.93 654.75 2061.96 655.583 2060.4 657.25C2058.9 658.861 2057.74 660.917 2056.9 663.417C2056.07 665.861 2055.49 668.361 2055.15 670.917C2054.82 673.417 2054.65 675.583 2054.65 677.417C2054.65 681.306 2055.38 684.167 2056.82 686C2058.26 687.833 2060.18 688.75 2062.57 688.75C2064.29 688.75 2065.76 688.361 2066.99 687.583C2068.26 686.75 2069.38 685.667 2070.32 684.333C2071.26 683 2072.07 681.528 2072.74 679.917L2083.07 686.667C2081.79 688.833 2080.18 690.806 2078.24 692.583C2076.29 694.306 2073.99 695.694 2071.32 696.75C2068.65 697.75 2065.6 698.25 2062.15 698.25ZM2096.36 697C2095.41 695.389 2094.75 693.528 2094.36 691.417C2094.02 689.306 2094.19 686.194 2094.86 682.083L2099.11 656.5H2093.27L2094.86 647H2101.02L2103.11 634.5H2115.94L2113.86 647H2121.52L2119.94 656.5H2112.61L2108.52 680.667C2107.86 684.722 2107.77 687.944 2108.27 690.333C2108.77 692.667 2109.64 694.722 2110.86 696.5V697H2096.36ZM2121.83 697L2128.17 659C2128.61 656.5 2128.97 654.139 2129.25 651.917C2129.53 649.639 2129.67 648 2129.67 647H2141.67C2141.67 648.167 2141.58 649.556 2141.42 651.167C2141.25 652.722 2141.03 654.167 2140.75 655.5H2142.75C2143.3 654.056 2144.11 652.639 2145.17 651.25C2146.22 649.861 2147.67 648.722 2149.5 647.833C2151.33 646.944 2153.67 646.5 2156.5 646.5H2159.67L2157.67 658.667H2153.5C2150.39 658.667 2147.92 659.083 2146.08 659.917C2144.25 660.75 2142.83 662.139 2141.83 664.083C2140.83 666.028 2140.05 668.667 2139.5 672L2135.33 697H2121.83ZM2174.54 698C2169.81 698 2166.01 696.278 2163.12 692.833C2160.23 689.389 2158.79 684.472 2158.79 678.083C2158.79 674.361 2159.29 670.611 2160.29 666.833C2161.34 663.056 2162.9 659.611 2164.95 656.5C2167.01 653.333 2169.54 650.806 2172.54 648.917C2175.54 646.972 2179.04 646 2183.04 646C2186.37 646 2188.93 646.611 2190.7 647.833C2192.48 649 2193.79 650.389 2194.62 652H2196.62L2197.45 647H2209.45L2203.29 684C2203.06 685.5 2202.84 686.972 2202.62 688.417C2202.45 689.806 2202.31 691.222 2202.2 692.667C2202.15 694.056 2202.12 695.5 2202.12 697H2189.12C2189.23 695.889 2189.37 694.639 2189.54 693.25C2189.76 691.861 2189.98 690.611 2190.2 689.5H2188.2C2187.15 691.5 2185.54 693.417 2183.37 695.25C2181.26 697.083 2178.31 698 2174.54 698ZM2179.37 688C2181.7 688 2183.73 687 2185.45 685C2187.23 682.944 2188.7 680.361 2189.87 677.25C2191.09 674.083 2191.98 670.833 2192.54 667.5L2194.12 658C2193.12 657.278 2191.98 656.694 2190.7 656.25C2189.48 655.75 2188.06 655.5 2186.45 655.5C2183.56 655.5 2181.06 656.528 2178.95 658.583C2176.84 660.583 2175.2 663.278 2174.04 666.667C2172.87 670 2172.29 673.639 2172.29 677.583C2172.29 681.194 2172.95 683.833 2174.29 685.5C2175.68 687.167 2177.37 688 2179.37 688ZM2219.6 697C2218.66 695.389 2217.99 693.528 2217.6 691.417C2217.27 689.306 2217.43 686.194 2218.1 682.083L2222.35 656.5H2216.52L2218.1 647H2224.27L2226.35 634.5H2239.18L2237.1 647H2244.77L2243.18 656.5H2235.85L2231.77 680.667C2231.1 684.722 2231.02 687.944 2231.52 690.333C2232.02 692.667 2232.88 694.722 2234.1 696.5V697H2219.6ZM2245.07 697L2253.41 647H2266.91L2258.57 697H2245.07ZM2261.57 641.25C2259.46 641.25 2257.82 640.722 2256.66 639.667C2255.55 638.556 2254.99 637.083 2254.99 635.25C2254.99 632.972 2255.71 631.167 2257.16 629.833C2258.6 628.444 2260.52 627.75 2262.91 627.75C2265.02 627.75 2266.63 628.306 2267.74 629.417C2268.91 630.472 2269.49 631.889 2269.49 633.667C2269.49 635.889 2268.77 637.722 2267.32 639.167C2265.94 640.556 2264.02 641.25 2261.57 641.25ZM2292.79 698.25C2286.23 698.25 2280.98 696.389 2277.04 692.667C2273.15 688.889 2271.2 683.361 2271.2 676.083C2271.2 672.806 2271.65 669.417 2272.54 665.917C2273.48 662.361 2274.98 659.056 2277.04 656C2279.09 652.944 2281.81 650.472 2285.2 648.583C2288.59 646.694 2292.76 645.75 2297.7 645.75C2304.26 645.75 2309.48 647.611 2313.37 651.333C2317.26 655.056 2319.2 660.583 2319.2 667.917C2319.2 671.139 2318.73 674.528 2317.79 678.083C2316.9 681.583 2315.43 684.861 2313.37 687.917C2311.37 690.972 2308.68 693.472 2305.29 695.417C2301.9 697.306 2297.73 698.25 2292.79 698.25ZM2292.7 689.25C2294.81 689.25 2296.59 688.667 2298.04 687.5C2299.54 686.278 2300.76 684.75 2301.7 682.917C2302.7 681.028 2303.45 679.028 2303.95 676.917C2304.51 674.75 2304.87 672.694 2305.04 670.75C2305.26 668.75 2305.37 667.083 2305.37 665.75C2305.37 662.028 2304.7 659.278 2303.37 657.5C2302.09 655.667 2300.23 654.75 2297.79 654.75C2295.68 654.75 2293.87 655.333 2292.37 656.5C2290.87 657.667 2289.65 659.194 2288.7 661.083C2287.76 662.972 2287.01 665 2286.45 667.167C2285.9 669.278 2285.51 671.306 2285.29 673.25C2285.12 675.194 2285.04 676.806 2285.04 678.083C2285.04 681.583 2285.68 684.333 2286.95 686.333C2288.23 688.278 2290.15 689.25 2292.7 689.25ZM2323.49 697L2329.83 659C2330.27 656.5 2330.63 654.139 2330.91 651.917C2331.19 649.639 2331.33 648 2331.33 647H2343.33C2343.33 648.167 2343.24 649.389 2343.08 650.667C2342.96 651.889 2342.8 653.167 2342.58 654.5H2344.58C2345.85 652 2347.52 649.917 2349.58 648.25C2351.63 646.583 2354.49 645.75 2358.16 645.75C2361.71 645.75 2364.63 646.556 2366.91 648.167C2369.24 649.778 2370.85 652 2371.74 654.833C2372.69 657.611 2372.85 660.861 2372.24 664.583L2366.83 697H2353.33L2358.41 666.5C2359.02 663.056 2358.88 660.417 2357.99 658.583C2357.1 656.75 2355.52 655.833 2353.24 655.833C2351.13 655.833 2349.24 656.611 2347.58 658.167C2345.91 659.722 2344.52 661.806 2343.41 664.417C2342.35 667.028 2341.55 669.889 2340.99 673L2336.99 697H2323.49ZM2413.24 697L2422.24 643H2402.83L2404.66 632H2457.49L2455.66 643H2436.24L2427.24 697H2413.24ZM2470.45 698.25C2464.12 698.25 2459.07 696.389 2455.29 692.667C2451.51 688.944 2449.62 683.472 2449.62 676.25C2449.62 672.917 2450.07 669.472 2450.95 665.917C2451.9 662.361 2453.37 659.056 2455.37 656C2457.43 652.944 2460.07 650.472 2463.29 648.583C2466.57 646.694 2470.51 645.75 2475.12 645.75C2479.34 645.75 2483.04 646.694 2486.2 648.583C2489.43 650.417 2491.79 653.278 2493.29 657.167C2494.79 661.056 2495.04 666.028 2494.04 672.083L2493.54 675.167H2459.45V666.667H2481.45C2482.18 662.5 2481.79 659.472 2480.29 657.583C2478.79 655.694 2476.9 654.75 2474.62 654.75C2472.23 654.75 2470.26 655.583 2468.7 657.25C2467.2 658.861 2466.04 660.917 2465.2 663.417C2464.37 665.861 2463.79 668.361 2463.45 670.917C2463.12 673.417 2462.95 675.583 2462.95 677.417C2462.95 681.306 2463.68 684.167 2465.12 686C2466.57 687.833 2468.48 688.75 2470.87 688.75C2472.59 688.75 2474.07 688.361 2475.29 687.583C2476.57 686.75 2477.68 685.667 2478.62 684.333C2479.57 683 2480.37 681.528 2481.04 679.917L2491.37 686.667C2490.09 688.833 2488.48 690.806 2486.54 692.583C2484.59 694.306 2482.29 695.694 2479.62 696.75C2476.95 697.75 2473.9 698.25 2470.45 698.25ZM2516.33 698.25C2510.49 698.25 2505.8 696.778 2502.24 693.833C2498.74 690.833 2496.85 687.056 2496.58 682.5L2508.58 679.583C2508.85 682.528 2509.8 684.806 2511.41 686.417C2513.08 687.972 2515.13 688.75 2517.58 688.75C2519.41 688.75 2520.88 688.278 2521.99 687.333C2523.16 686.389 2523.74 685.222 2523.74 683.833C2523.74 682.389 2523.21 681.222 2522.16 680.333C2521.16 679.389 2519.88 678.583 2518.33 677.917L2514.08 676.083C2512.52 675.417 2510.77 674.556 2508.83 673.5C2506.94 672.389 2505.3 670.917 2503.91 669.083C2502.52 667.194 2501.83 664.75 2501.83 661.75C2501.83 658.806 2502.58 656.139 2504.08 653.75C2505.58 651.306 2507.74 649.361 2510.58 647.917C2513.46 646.472 2516.91 645.75 2520.91 645.75C2526.13 645.75 2530.27 647.028 2533.33 649.583C2536.38 652.083 2538.02 655.472 2538.24 659.75L2526.24 662.667C2526.24 660.167 2525.71 658.222 2524.66 656.833C2523.6 655.444 2522.02 654.75 2519.91 654.75C2518.08 654.75 2516.69 655.25 2515.74 656.25C2514.8 657.25 2514.33 658.417 2514.33 659.75C2514.33 661.083 2514.74 662.194 2515.58 663.083C2516.41 663.917 2517.44 664.583 2518.66 665.083L2522.66 666.75C2524.88 667.639 2527.02 668.694 2529.08 669.917C2531.19 671.083 2532.91 672.611 2534.24 674.5C2535.58 676.333 2536.24 678.722 2536.24 681.667C2536.24 684.667 2535.44 687.444 2533.83 690C2532.27 692.5 2529.99 694.5 2526.99 696C2524.05 697.5 2520.49 698.25 2516.33 698.25ZM2548.02 697C2547.07 695.389 2546.41 693.528 2546.02 691.417C2545.68 689.306 2545.85 686.194 2546.52 682.083L2550.77 656.5H2544.93L2546.52 647H2552.68L2554.77 634.5H2567.6L2565.52 647H2573.18L2571.6 656.5H2564.27L2560.18 680.667C2559.52 684.722 2559.43 687.944 2559.93 690.333C2560.43 692.667 2561.3 694.722 2562.52 696.5V697H2548.02ZM2573.49 697L2581.83 647H2595.33L2586.99 697H2573.49ZM2589.99 641.25C2587.88 641.25 2586.24 640.722 2585.08 639.667C2583.96 638.556 2583.41 637.083 2583.41 635.25C2583.41 632.972 2584.13 631.167 2585.58 629.833C2587.02 628.444 2588.94 627.75 2591.33 627.75C2593.44 627.75 2595.05 628.306 2596.16 629.417C2597.33 630.472 2597.91 631.889 2597.91 633.667C2597.91 635.889 2597.19 637.722 2595.74 639.167C2594.35 640.556 2592.44 641.25 2589.99 641.25ZM2599.37 697L2605.7 659C2606.15 656.5 2606.51 654.139 2606.79 651.917C2607.07 649.639 2607.2 648 2607.2 647H2619.2C2619.2 648.167 2619.12 649.389 2618.95 650.667C2618.84 651.889 2618.68 653.167 2618.45 654.5H2620.45C2621.73 652 2623.4 649.917 2625.45 648.25C2627.51 646.583 2630.37 645.75 2634.04 645.75C2637.59 645.75 2640.51 646.556 2642.79 648.167C2645.12 649.778 2646.73 652 2647.62 654.833C2648.57 657.611 2648.73 660.861 2648.12 664.583L2642.7 697H2629.2L2634.29 666.5C2634.9 663.056 2634.76 660.417 2633.87 658.583C2632.98 656.75 2631.4 655.833 2629.12 655.833C2627.01 655.833 2625.12 656.611 2623.45 658.167C2621.79 659.722 2620.4 661.806 2619.29 664.417C2618.23 667.028 2617.43 669.889 2616.87 673L2612.87 697H2599.37ZM2672.77 714.917C2667.43 714.917 2663.07 714.028 2659.68 712.25C2656.35 710.472 2653.63 708.528 2651.52 706.417L2658.93 697.5C2660.6 699.556 2662.68 701.306 2665.18 702.75C2667.68 704.194 2670.46 704.917 2673.52 704.917C2676.8 704.917 2679.32 703.972 2681.1 702.083C2682.88 700.25 2684.13 697.583 2684.85 694.083L2686.1 687.833H2684.1C2682.82 690.167 2681.13 692.028 2679.02 693.417C2676.91 694.806 2674.3 695.5 2671.18 695.5C2666.52 695.5 2662.74 693.806 2659.85 690.417C2657.02 686.972 2655.6 682.306 2655.6 676.417C2655.6 672.806 2656.13 669.222 2657.18 665.667C2658.24 662.056 2659.77 658.778 2661.77 655.833C2663.82 652.889 2666.3 650.528 2669.18 648.75C2672.13 646.917 2675.46 646 2679.18 646C2682.13 646 2684.35 646.556 2685.85 647.667C2687.41 648.722 2688.68 650.167 2689.68 652H2691.68L2692.52 647H2704.52L2696.43 695.5C2695.38 702.056 2692.74 706.917 2688.52 710.083C2684.3 713.306 2679.05 714.917 2672.77 714.917ZM2675.18 686C2677.41 686 2679.35 685.056 2681.02 683.167C2682.74 681.278 2684.16 678.833 2685.27 675.833C2686.43 672.778 2687.3 669.5 2687.85 666L2689.18 658C2688.24 657.056 2687.1 656.389 2685.77 656C2684.43 655.556 2683.21 655.333 2682.1 655.333C2679.43 655.333 2677.1 656.222 2675.1 658C2673.16 659.778 2671.63 662.222 2670.52 665.333C2669.41 668.389 2668.85 671.861 2668.85 675.75C2668.85 679.194 2669.43 681.778 2670.6 683.5C2671.82 685.167 2673.35 686 2675.18 686Z" fill="white"/>
<path d="M1068.28 699V698.5L1097.53 634H1119.36L1127.78 698.5V699H1114.28L1108.03 644.833H1106.03L1082.28 699H1068.28ZM1087.28 682.75L1091.86 672.25H1112.78L1113.86 682.75H1087.28ZM1150.79 700.25C1144.96 700.25 1140.26 698.778 1136.71 695.833C1133.21 692.833 1131.32 689.056 1131.04 684.5L1143.04 681.583C1143.32 684.528 1144.26 686.806 1145.88 688.417C1147.54 689.972 1149.6 690.75 1152.04 690.75C1153.88 690.75 1155.35 690.278 1156.46 689.333C1157.63 688.389 1158.21 687.222 1158.21 685.833C1158.21 684.389 1157.68 683.222 1156.63 682.333C1155.63 681.389 1154.35 680.583 1152.79 679.917L1148.54 678.083C1146.99 677.417 1145.24 676.556 1143.29 675.5C1141.4 674.389 1139.76 672.917 1138.38 671.083C1136.99 669.194 1136.29 666.75 1136.29 663.75C1136.29 660.806 1137.04 658.139 1138.54 655.75C1140.04 653.306 1142.21 651.361 1145.04 649.917C1147.93 648.472 1151.38 647.75 1155.38 647.75C1160.6 647.75 1164.74 649.028 1167.79 651.583C1170.85 654.083 1172.49 657.472 1172.71 661.75L1160.71 664.667C1160.71 662.167 1160.18 660.222 1159.13 658.833C1158.07 657.444 1156.49 656.75 1154.38 656.75C1152.54 656.75 1151.15 657.25 1150.21 658.25C1149.26 659.25 1148.79 660.417 1148.79 661.75C1148.79 663.083 1149.21 664.194 1150.04 665.083C1150.88 665.917 1151.9 666.583 1153.13 667.083L1157.13 668.75C1159.35 669.639 1161.49 670.694 1163.54 671.917C1165.65 673.083 1167.38 674.611 1168.71 676.5C1170.04 678.333 1170.71 680.722 1170.71 683.667C1170.71 686.667 1169.9 689.444 1168.29 692C1166.74 694.5 1164.46 696.5 1161.46 698C1158.51 699.5 1154.96 700.25 1150.79 700.25ZM1194.15 700.25C1188.32 700.25 1183.62 698.778 1180.07 695.833C1176.57 692.833 1174.68 689.056 1174.4 684.5L1186.4 681.583C1186.68 684.528 1187.62 686.806 1189.24 688.417C1190.9 689.972 1192.96 690.75 1195.4 690.75C1197.24 690.75 1198.71 690.278 1199.82 689.333C1200.99 688.389 1201.57 687.222 1201.57 685.833C1201.57 684.389 1201.04 683.222 1199.99 682.333C1198.99 681.389 1197.71 680.583 1196.15 679.917L1191.9 678.083C1190.35 677.417 1188.6 676.556 1186.65 675.5C1184.76 674.389 1183.12 672.917 1181.74 671.083C1180.35 669.194 1179.65 666.75 1179.65 663.75C1179.65 660.806 1180.4 658.139 1181.9 655.75C1183.4 653.306 1185.57 651.361 1188.4 649.917C1191.29 648.472 1194.74 647.75 1198.74 647.75C1203.96 647.75 1208.1 649.028 1211.15 651.583C1214.21 654.083 1215.85 657.472 1216.07 661.75L1204.07 664.667C1204.07 662.167 1203.54 660.222 1202.49 658.833C1201.43 657.444 1199.85 656.75 1197.74 656.75C1195.9 656.75 1194.51 657.25 1193.57 658.25C1192.62 659.25 1192.15 660.417 1192.15 661.75C1192.15 663.083 1192.57 664.194 1193.4 665.083C1194.24 665.917 1195.26 666.583 1196.49 667.083L1200.49 668.75C1202.71 669.639 1204.85 670.694 1206.9 671.917C1209.01 673.083 1210.74 674.611 1212.07 676.5C1213.4 678.333 1214.07 680.722 1214.07 683.667C1214.07 686.667 1213.26 689.444 1211.65 692C1210.1 694.5 1207.82 696.5 1204.82 698C1201.87 699.5 1198.32 700.25 1194.15 700.25ZM1240.76 700.25C1234.43 700.25 1229.37 698.389 1225.59 694.667C1221.82 690.944 1219.93 685.472 1219.93 678.25C1219.93 674.917 1220.37 671.472 1221.26 667.917C1222.21 664.361 1223.68 661.056 1225.68 658C1227.73 654.944 1230.37 652.472 1233.59 650.583C1236.87 648.694 1240.82 647.75 1245.43 647.75C1249.65 647.75 1253.34 648.694 1256.51 650.583C1259.73 652.417 1262.09 655.278 1263.59 659.167C1265.09 663.056 1265.34 668.028 1264.34 674.083L1263.84 677.167H1229.76V668.667H1251.76C1252.48 664.5 1252.09 661.472 1250.59 659.583C1249.09 657.694 1247.21 656.75 1244.93 656.75C1242.54 656.75 1240.57 657.583 1239.01 659.25C1237.51 660.861 1236.34 662.917 1235.51 665.417C1234.68 667.861 1234.09 670.361 1233.76 672.917C1233.43 675.417 1233.26 677.583 1233.26 679.417C1233.26 683.306 1233.98 686.167 1235.43 688C1236.87 689.833 1238.79 690.75 1241.18 690.75C1242.9 690.75 1244.37 690.361 1245.59 689.583C1246.87 688.75 1247.98 687.667 1248.93 686.333C1249.87 685 1250.68 683.528 1251.34 681.917L1261.68 688.667C1260.4 690.833 1258.79 692.806 1256.84 694.583C1254.9 696.306 1252.59 697.694 1249.93 698.75C1247.26 699.75 1244.21 700.25 1240.76 700.25ZM1274.97 699C1274.02 697.389 1273.35 695.528 1272.97 693.417C1272.63 691.306 1272.8 688.194 1273.47 684.083L1277.72 658.5H1271.88L1273.47 649H1279.63L1281.72 636.5H1294.55L1292.47 649H1300.13L1298.55 658.5H1291.22L1287.13 682.667C1286.47 686.722 1286.38 689.944 1286.88 692.333C1287.38 694.667 1288.24 696.722 1289.47 698.5V699H1274.97ZM1320.63 699L1331.46 634H1345.46L1334.63 699H1320.63ZM1347.12 699L1353.45 661C1353.9 658.5 1354.26 656.139 1354.54 653.917C1354.81 651.639 1354.95 650 1354.95 649H1366.95C1366.95 650.167 1366.87 651.389 1366.7 652.667C1366.59 653.889 1366.42 655.167 1366.2 656.5H1368.2C1369.48 654 1371.15 651.917 1373.2 650.25C1375.26 648.583 1378.12 647.75 1381.79 647.75C1385.34 647.75 1388.26 648.556 1390.54 650.167C1392.87 651.778 1394.48 654 1395.37 656.833C1396.31 659.611 1396.48 662.861 1395.87 666.583L1390.45 699H1376.95L1382.04 668.5C1382.65 665.056 1382.51 662.417 1381.62 660.583C1380.73 658.75 1379.15 657.833 1376.87 657.833C1374.76 657.833 1372.87 658.611 1371.2 660.167C1369.54 661.722 1368.15 663.806 1367.04 666.417C1365.98 669.028 1365.17 671.889 1364.62 675L1360.62 699H1347.12ZM1410.93 699L1405.27 649.083V649H1418.1L1422.02 688H1424.02L1440.18 649H1453.27V649.083L1431.77 699H1410.93ZM1473.18 700.25C1466.85 700.25 1461.79 698.389 1458.02 694.667C1454.24 690.944 1452.35 685.472 1452.35 678.25C1452.35 674.917 1452.79 671.472 1453.68 667.917C1454.63 664.361 1456.1 661.056 1458.1 658C1460.16 654.944 1462.79 652.472 1466.02 650.583C1469.29 648.694 1473.24 647.75 1477.85 647.75C1482.07 647.75 1485.77 648.694 1488.93 650.583C1492.16 652.417 1494.52 655.278 1496.02 659.167C1497.52 663.056 1497.77 668.028 1496.77 674.083L1496.27 677.167H1462.18V668.667H1484.18C1484.91 664.5 1484.52 661.472 1483.02 659.583C1481.52 657.694 1479.63 656.75 1477.35 656.75C1474.96 656.75 1472.99 657.583 1471.43 659.25C1469.93 660.861 1468.77 662.917 1467.93 665.417C1467.1 667.861 1466.52 670.361 1466.18 672.917C1465.85 675.417 1465.68 677.583 1465.68 679.417C1465.68 683.306 1466.41 686.167 1467.85 688C1469.29 689.833 1471.21 690.75 1473.6 690.75C1475.32 690.75 1476.79 690.361 1478.02 689.583C1479.29 688.75 1480.41 687.667 1481.35 686.333C1482.29 685 1483.1 683.528 1483.77 681.917L1494.1 688.667C1492.82 690.833 1491.21 692.806 1489.27 694.583C1487.32 696.306 1485.02 697.694 1482.35 698.75C1479.68 699.75 1476.63 700.25 1473.18 700.25ZM1501.22 699L1507.55 661C1508 658.5 1508.36 656.139 1508.64 653.917C1508.92 651.639 1509.05 650 1509.05 649H1521.05C1521.05 650.167 1520.97 651.389 1520.8 652.667C1520.69 653.889 1520.53 655.167 1520.3 656.5H1522.3C1523.58 654 1525.25 651.917 1527.3 650.25C1529.36 648.583 1532.22 647.75 1535.89 647.75C1539.44 647.75 1542.36 648.556 1544.64 650.167C1546.97 651.778 1548.58 654 1549.47 656.833C1550.42 659.611 1550.58 662.861 1549.97 666.583L1544.55 699H1531.05L1536.14 668.5C1536.75 665.056 1536.61 662.417 1535.72 660.583C1534.83 658.75 1533.25 657.833 1530.97 657.833C1528.86 657.833 1526.97 658.611 1525.3 660.167C1523.64 661.722 1522.25 663.806 1521.14 666.417C1520.08 669.028 1519.28 671.889 1518.72 675L1514.72 699H1501.22ZM1562.37 699C1561.42 697.389 1560.76 695.528 1560.37 693.417C1560.03 691.306 1560.2 688.194 1560.87 684.083L1565.12 658.5H1559.28L1560.87 649H1567.03L1569.12 636.5H1581.95L1579.87 649H1587.53L1585.95 658.5H1578.62L1574.53 682.667C1573.87 686.722 1573.78 689.944 1574.28 692.333C1574.78 694.667 1575.65 696.722 1576.87 698.5V699H1562.37ZM1609.68 700.25C1603.12 700.25 1597.87 698.389 1593.93 694.667C1590.04 690.889 1588.09 685.361 1588.09 678.083C1588.09 674.806 1588.54 671.417 1589.43 667.917C1590.37 664.361 1591.87 661.056 1593.93 658C1595.98 654.944 1598.7 652.472 1602.09 650.583C1605.48 648.694 1609.65 647.75 1614.59 647.75C1621.15 647.75 1626.37 649.611 1630.26 653.333C1634.15 657.056 1636.09 662.583 1636.09 669.917C1636.09 673.139 1635.62 676.528 1634.68 680.083C1633.79 683.583 1632.31 686.861 1630.26 689.917C1628.26 692.972 1625.56 695.472 1622.18 697.417C1618.79 699.306 1614.62 700.25 1609.68 700.25ZM1609.59 691.25C1611.7 691.25 1613.48 690.667 1614.93 689.5C1616.43 688.278 1617.65 686.75 1618.59 684.917C1619.59 683.028 1620.34 681.028 1620.84 678.917C1621.4 676.75 1621.76 674.694 1621.93 672.75C1622.15 670.75 1622.26 669.083 1622.26 667.75C1622.26 664.028 1621.59 661.278 1620.26 659.5C1618.98 657.667 1617.12 656.75 1614.68 656.75C1612.56 656.75 1610.76 657.333 1609.26 658.5C1607.76 659.667 1606.54 661.194 1605.59 663.083C1604.65 664.972 1603.9 667 1603.34 669.167C1602.79 671.278 1602.4 673.306 1602.18 675.25C1602.01 677.194 1601.93 678.806 1601.93 680.083C1601.93 683.583 1602.56 686.333 1603.84 688.333C1605.12 690.278 1607.04 691.25 1609.59 691.25ZM1640.38 699L1646.71 661C1647.16 658.5 1647.52 656.139 1647.8 653.917C1648.08 651.639 1648.21 650 1648.21 649H1660.21C1660.21 650.167 1660.13 651.556 1659.96 653.167C1659.8 654.722 1659.58 656.167 1659.3 657.5H1661.3C1661.85 656.056 1662.66 654.639 1663.71 653.25C1664.77 651.861 1666.21 650.722 1668.05 649.833C1669.88 648.944 1672.21 648.5 1675.05 648.5H1678.21L1676.21 660.667H1672.05C1668.94 660.667 1666.46 661.083 1664.63 661.917C1662.8 662.75 1661.38 664.139 1660.38 666.083C1659.38 668.028 1658.6 670.667 1658.05 674L1653.88 699H1640.38ZM1678.38 715.667V715.167C1680.38 712.667 1682.41 709.861 1684.46 706.75C1686.52 703.694 1688.24 700.694 1689.63 697.75L1680.71 649H1693.71L1696.96 669.083C1697.24 670.806 1697.52 672.639 1697.8 674.583C1698.13 676.528 1698.33 679 1698.38 682H1700.38C1701.27 679 1702.1 676.444 1702.88 674.333C1703.71 672.222 1704.46 670.444 1705.13 669L1714.38 649H1727.55L1707.88 689.5C1704.88 695.667 1702.02 701 1699.3 705.5C1696.63 710.056 1694.49 713.444 1692.88 715.667H1678.38Z" fill="white"/>
<path d="M1664.11 1350L1674.94 1285H1698.44L1708.61 1339H1710.61L1719.61 1285H1732.27L1721.44 1350H1697.77L1687.77 1296H1685.77L1676.77 1350H1664.11ZM1755.04 1351.25C1748.71 1351.25 1743.65 1349.39 1739.88 1345.67C1736.1 1341.94 1734.21 1336.47 1734.21 1329.25C1734.21 1325.92 1734.65 1322.47 1735.54 1318.92C1736.49 1315.36 1737.96 1312.06 1739.96 1309C1742.01 1305.94 1744.65 1303.47 1747.88 1301.58C1751.15 1299.69 1755.1 1298.75 1759.71 1298.75C1763.93 1298.75 1767.63 1299.69 1770.79 1301.58C1774.01 1303.42 1776.38 1306.28 1777.88 1310.17C1779.38 1314.06 1779.63 1319.03 1778.63 1325.08L1778.13 1328.17H1744.04V1319.67H1766.04C1766.76 1315.5 1766.38 1312.47 1764.88 1310.58C1763.38 1308.69 1761.49 1307.75 1759.21 1307.75C1756.82 1307.75 1754.85 1308.58 1753.29 1310.25C1751.79 1311.86 1750.63 1313.92 1749.79 1316.42C1748.96 1318.86 1748.38 1321.36 1748.04 1323.92C1747.71 1326.42 1747.54 1328.58 1747.54 1330.42C1747.54 1334.31 1748.26 1337.17 1749.71 1339C1751.15 1340.83 1753.07 1341.75 1755.46 1341.75C1757.18 1341.75 1758.65 1341.36 1759.88 1340.58C1761.15 1339.75 1762.26 1338.67 1763.21 1337.33C1764.15 1336 1764.96 1334.53 1765.63 1332.92L1775.96 1339.67C1774.68 1341.83 1773.07 1343.81 1771.13 1345.58C1769.18 1347.31 1766.88 1348.69 1764.21 1349.75C1761.54 1350.75 1758.49 1351.25 1755.04 1351.25ZM1789.25 1350C1788.3 1348.39 1787.64 1346.53 1787.25 1344.42C1786.91 1342.31 1787.08 1339.19 1787.75 1335.08L1792 1309.5H1786.16L1787.75 1300H1793.91L1796 1287.5H1808.83L1806.75 1300H1814.41L1812.83 1309.5H1805.5L1801.41 1333.67C1800.75 1337.72 1800.66 1340.94 1801.16 1343.33C1801.66 1345.67 1802.52 1347.72 1803.75 1349.5V1350H1789.25ZM1819.3 1350L1820.22 1300.08V1300H1832.05L1831.14 1340H1833.14L1846.39 1300H1867.55L1867.8 1340H1869.8L1881.89 1300H1893.72V1300.08L1878.39 1350H1856.39L1855.97 1309.75H1853.97L1841.05 1350H1819.3ZM1916.53 1351.25C1909.98 1351.25 1904.73 1349.39 1900.78 1345.67C1896.9 1341.89 1894.95 1336.36 1894.95 1329.08C1894.95 1325.81 1895.4 1322.42 1896.28 1318.92C1897.23 1315.36 1898.73 1312.06 1900.78 1309C1902.84 1305.94 1905.56 1303.47 1908.95 1301.58C1912.34 1299.69 1916.51 1298.75 1921.45 1298.75C1928.01 1298.75 1933.23 1300.61 1937.12 1304.33C1941.01 1308.06 1942.95 1313.58 1942.95 1320.92C1942.95 1324.14 1942.48 1327.53 1941.53 1331.08C1940.65 1334.58 1939.17 1337.86 1937.12 1340.92C1935.12 1343.97 1932.42 1346.47 1929.03 1348.42C1925.65 1350.31 1921.48 1351.25 1916.53 1351.25ZM1916.45 1342.25C1918.56 1342.25 1920.34 1341.67 1921.78 1340.5C1923.28 1339.28 1924.51 1337.75 1925.45 1335.92C1926.45 1334.03 1927.2 1332.03 1927.7 1329.92C1928.26 1327.75 1928.62 1325.69 1928.78 1323.75C1929.01 1321.75 1929.12 1320.08 1929.12 1318.75C1929.12 1315.03 1928.45 1312.28 1927.12 1310.5C1925.84 1308.67 1923.98 1307.75 1921.53 1307.75C1919.42 1307.75 1917.62 1308.33 1916.12 1309.5C1914.62 1310.67 1913.4 1312.19 1912.45 1314.08C1911.51 1315.97 1910.76 1318 1910.2 1320.17C1909.65 1322.28 1909.26 1324.31 1909.03 1326.25C1908.87 1328.19 1908.78 1329.81 1908.78 1331.08C1908.78 1334.58 1909.42 1337.33 1910.7 1339.33C1911.98 1341.28 1913.9 1342.25 1916.45 1342.25ZM1947.24 1350L1953.57 1312C1954.02 1309.5 1954.38 1307.14 1954.66 1304.92C1954.93 1302.64 1955.07 1301 1955.07 1300H1967.07C1967.07 1301.17 1966.99 1302.56 1966.82 1304.17C1966.66 1305.72 1966.43 1307.17 1966.16 1308.5H1968.16C1968.71 1307.06 1969.52 1305.64 1970.57 1304.25C1971.63 1302.86 1973.07 1301.72 1974.91 1300.83C1976.74 1299.94 1979.07 1299.5 1981.91 1299.5H1985.07L1983.07 1311.67H1978.91C1975.8 1311.67 1973.32 1312.08 1971.49 1312.92C1969.66 1313.75 1968.24 1315.14 1967.24 1317.08C1966.24 1319.03 1965.46 1321.67 1964.91 1325L1960.74 1350H1947.24ZM1984.74 1350L1995.82 1283.33H2009.32L2003.49 1318.67H2007.49L2021.16 1300H2036.66V1300.5L2017.41 1324.17L2031.41 1349.5V1350H2016.91L2005.82 1328.67H2001.82L1998.24 1350H1984.74ZM1581.44 1475V1474.5L1610.69 1410H1632.52L1640.94 1474.5V1475H1627.44L1621.19 1420.83H1619.19L1595.44 1475H1581.44ZM1600.44 1458.75L1605.02 1448.25H1625.94L1627.02 1458.75H1600.44ZM1647.78 1475L1654.11 1437C1654.56 1434.5 1654.92 1432.14 1655.19 1429.92C1655.47 1427.64 1655.61 1426 1655.61 1425H1667.61C1667.61 1426.17 1667.53 1427.56 1667.36 1429.17C1667.19 1430.72 1666.97 1432.17 1666.69 1433.5H1668.69C1669.25 1432.06 1670.06 1430.64 1671.11 1429.25C1672.17 1427.86 1673.61 1426.72 1675.44 1425.83C1677.28 1424.94 1679.61 1424.5 1682.44 1424.5H1685.61L1683.61 1436.67H1679.44C1676.33 1436.67 1673.86 1437.08 1672.03 1437.92C1670.19 1438.75 1668.78 1440.14 1667.78 1442.08C1666.78 1444.03 1666 1446.67 1665.44 1450L1661.28 1475H1647.78ZM1705.48 1476.25C1699.15 1476.25 1694.09 1474.39 1690.32 1470.67C1686.54 1466.94 1684.65 1461.47 1684.65 1454.25C1684.65 1450.92 1685.12 1447.47 1686.07 1443.92C1687.01 1440.36 1688.48 1437.06 1690.48 1434C1692.54 1430.94 1695.2 1428.47 1698.48 1426.58C1701.76 1424.69 1705.76 1423.75 1710.48 1423.75C1715.82 1423.75 1720.26 1425.11 1723.82 1427.83C1727.43 1430.56 1729.7 1434.61 1730.65 1440L1718.15 1443C1717.65 1439.56 1716.76 1437.08 1715.48 1435.58C1714.2 1434.03 1712.51 1433.25 1710.4 1433.25C1708.4 1433.25 1706.7 1433.83 1705.32 1435C1703.93 1436.11 1702.79 1437.58 1701.9 1439.42C1701.01 1441.25 1700.32 1443.19 1699.82 1445.25C1699.32 1447.31 1698.95 1449.28 1698.73 1451.17C1698.57 1453 1698.48 1454.53 1698.48 1455.75C1698.48 1459.42 1699.15 1462.17 1700.48 1464C1701.87 1465.83 1703.76 1466.75 1706.15 1466.75C1707.93 1466.75 1709.48 1466.28 1710.82 1465.33C1712.15 1464.33 1713.29 1463.03 1714.23 1461.42C1715.23 1459.81 1716.04 1458.11 1716.65 1456.33L1727.82 1461.92C1726.59 1464.53 1724.98 1466.94 1722.98 1469.17C1720.98 1471.33 1718.54 1473.06 1715.65 1474.33C1712.82 1475.61 1709.43 1476.25 1705.48 1476.25ZM1732.74 1475L1743.82 1408.33H1757.32L1753.07 1431H1755.07C1755.79 1429.83 1756.63 1428.69 1757.57 1427.58C1758.57 1426.47 1759.85 1425.56 1761.4 1424.83C1762.96 1424.11 1764.96 1423.75 1767.4 1423.75C1770.96 1423.75 1773.88 1424.56 1776.15 1426.17C1778.49 1427.78 1780.1 1430 1780.99 1432.83C1781.93 1435.61 1782.1 1438.86 1781.49 1442.58L1776.07 1475H1762.57L1767.65 1444.5C1768.27 1441.06 1768.13 1438.42 1767.24 1436.58C1766.35 1434.69 1764.77 1433.75 1762.49 1433.75C1760.38 1433.75 1758.49 1434.56 1756.82 1436.17C1755.15 1437.72 1753.77 1439.81 1752.65 1442.42C1751.6 1445.03 1750.79 1447.89 1750.24 1451L1746.24 1475H1732.74ZM1787.72 1475L1796.05 1425H1809.55L1801.22 1475H1787.72ZM1804.22 1419.25C1802.11 1419.25 1800.47 1418.72 1799.3 1417.67C1798.19 1416.56 1797.64 1415.08 1797.64 1413.25C1797.64 1410.97 1798.36 1409.17 1799.8 1407.83C1801.25 1406.44 1803.16 1405.75 1805.55 1405.75C1807.66 1405.75 1809.27 1406.31 1810.39 1407.42C1811.55 1408.47 1812.14 1409.89 1812.14 1411.67C1812.14 1413.89 1811.41 1415.72 1809.97 1417.17C1808.58 1418.56 1806.66 1419.25 1804.22 1419.25ZM1819.76 1475C1818.82 1473.39 1818.15 1471.53 1817.76 1469.42C1817.43 1467.31 1817.6 1464.19 1818.26 1460.08L1822.51 1434.5H1816.68L1818.26 1425H1824.43L1826.51 1412.5H1839.35L1837.26 1425H1844.93L1843.35 1434.5H1836.01L1831.93 1458.67C1831.26 1462.72 1831.18 1465.94 1831.68 1468.33C1832.18 1470.67 1833.04 1472.72 1834.26 1474.5V1475H1819.76ZM1866.32 1476.25C1859.99 1476.25 1854.93 1474.39 1851.15 1470.67C1847.38 1466.94 1845.49 1461.47 1845.49 1454.25C1845.49 1450.92 1845.93 1447.47 1846.82 1443.92C1847.77 1440.36 1849.24 1437.06 1851.24 1434C1853.29 1430.94 1855.93 1428.47 1859.15 1426.58C1862.43 1424.69 1866.38 1423.75 1870.99 1423.75C1875.21 1423.75 1878.9 1424.69 1882.07 1426.58C1885.29 1428.42 1887.65 1431.28 1889.15 1435.17C1890.65 1439.06 1890.9 1444.03 1889.9 1450.08L1889.4 1453.17H1855.32V1444.67H1877.32C1878.04 1440.5 1877.65 1437.47 1876.15 1435.58C1874.65 1433.69 1872.77 1432.75 1870.49 1432.75C1868.1 1432.75 1866.13 1433.58 1864.57 1435.25C1863.07 1436.86 1861.9 1438.92 1861.07 1441.42C1860.24 1443.86 1859.65 1446.36 1859.32 1448.92C1858.99 1451.42 1858.82 1453.58 1858.82 1455.42C1858.82 1459.31 1859.54 1462.17 1860.99 1464C1862.43 1465.83 1864.35 1466.75 1866.74 1466.75C1868.46 1466.75 1869.93 1466.36 1871.15 1465.58C1872.43 1464.75 1873.54 1463.67 1874.49 1462.33C1875.43 1461 1876.24 1459.53 1876.9 1457.92L1887.24 1464.67C1885.96 1466.83 1884.35 1468.81 1882.4 1470.58C1880.46 1472.31 1878.15 1473.69 1875.49 1474.75C1872.82 1475.75 1869.77 1476.25 1866.32 1476.25ZM1915.44 1476.25C1909.11 1476.25 1904.05 1474.39 1900.28 1470.67C1896.5 1466.94 1894.61 1461.47 1894.61 1454.25C1894.61 1450.92 1895.08 1447.47 1896.03 1443.92C1896.97 1440.36 1898.44 1437.06 1900.44 1434C1902.5 1430.94 1905.16 1428.47 1908.44 1426.58C1911.72 1424.69 1915.72 1423.75 1920.44 1423.75C1925.78 1423.75 1930.22 1425.11 1933.78 1427.83C1937.39 1430.56 1939.66 1434.61 1940.61 1440L1928.11 1443C1927.61 1439.56 1926.72 1437.08 1925.44 1435.58C1924.16 1434.03 1922.47 1433.25 1920.36 1433.25C1918.36 1433.25 1916.66 1433.83 1915.28 1435C1913.89 1436.11 1912.75 1437.58 1911.86 1439.42C1910.97 1441.25 1910.28 1443.19 1909.78 1445.25C1909.28 1447.31 1908.91 1449.28 1908.69 1451.17C1908.53 1453 1908.44 1454.53 1908.44 1455.75C1908.44 1459.42 1909.11 1462.17 1910.44 1464C1911.83 1465.83 1913.72 1466.75 1916.11 1466.75C1917.89 1466.75 1919.44 1466.28 1920.78 1465.33C1922.11 1464.33 1923.25 1463.03 1924.19 1461.42C1925.19 1459.81 1926 1458.11 1926.61 1456.33L1937.78 1461.92C1936.55 1464.53 1934.94 1466.94 1932.94 1469.17C1930.94 1471.33 1928.5 1473.06 1925.61 1474.33C1922.78 1475.61 1919.39 1476.25 1915.44 1476.25ZM1948.87 1475C1947.92 1473.39 1947.25 1471.53 1946.87 1469.42C1946.53 1467.31 1946.7 1464.19 1947.37 1460.08L1951.62 1434.5H1945.78L1947.37 1425H1953.53L1955.62 1412.5H1968.45L1966.37 1425H1974.03L1972.45 1434.5H1965.12L1961.03 1458.67C1960.37 1462.72 1960.28 1465.94 1960.78 1468.33C1961.28 1470.67 1962.14 1472.72 1963.37 1474.5V1475H1948.87ZM1989.92 1476.25C1985.03 1476.25 1981.31 1474.69 1978.76 1471.58C1976.26 1468.42 1975.51 1463.89 1976.51 1458L1982.01 1425H1995.51L1990.09 1457.5C1989.7 1460 1989.95 1462.08 1990.84 1463.75C1991.73 1465.42 1993.28 1466.25 1995.51 1466.25C1997.73 1466.25 1999.65 1465.47 2001.26 1463.92C2002.92 1462.31 2004.31 1460.19 2005.42 1457.58C2006.53 1454.97 2007.34 1452.11 2007.84 1449L2011.84 1425H2025.34L2019.17 1462C2018.78 1464.22 2018.48 1466.39 2018.26 1468.5C2018.09 1470.61 2018.01 1472.78 2018.01 1475H2005.01C2005.12 1473.89 2005.26 1472.64 2005.42 1471.25C2005.65 1469.86 2005.87 1468.61 2006.09 1467.5H2004.09C2002.48 1470 2000.62 1472.08 1998.51 1473.75C1996.45 1475.42 1993.59 1476.25 1989.92 1476.25ZM2029.32 1475L2035.65 1437C2036.1 1434.5 2036.46 1432.14 2036.74 1429.92C2037.01 1427.64 2037.15 1426 2037.15 1425H2049.15C2049.15 1426.17 2049.07 1427.56 2048.9 1429.17C2048.74 1430.72 2048.51 1432.17 2048.24 1433.5H2050.24C2050.79 1432.06 2051.6 1430.64 2052.65 1429.25C2053.71 1427.86 2055.15 1426.72 2056.99 1425.83C2058.82 1424.94 2061.15 1424.5 2063.99 1424.5H2067.15L2065.15 1436.67H2060.99C2057.88 1436.67 2055.4 1437.08 2053.57 1437.92C2051.74 1438.75 2050.32 1440.14 2049.32 1442.08C2048.32 1444.03 2047.54 1446.67 2046.99 1450L2042.82 1475H2029.32ZM2087.02 1476.25C2080.69 1476.25 2075.64 1474.39 2071.86 1470.67C2068.08 1466.94 2066.19 1461.47 2066.19 1454.25C2066.19 1450.92 2066.64 1447.47 2067.52 1443.92C2068.47 1440.36 2069.94 1437.06 2071.94 1434C2074 1430.94 2076.64 1428.47 2079.86 1426.58C2083.14 1424.69 2087.08 1423.75 2091.69 1423.75C2095.91 1423.75 2099.61 1424.69 2102.77 1426.58C2106 1428.42 2108.36 1431.28 2109.86 1435.17C2111.36 1439.06 2111.61 1444.03 2110.61 1450.08L2110.11 1453.17H2076.02V1444.67H2098.02C2098.75 1440.5 2098.36 1437.47 2096.86 1435.58C2095.36 1433.69 2093.47 1432.75 2091.19 1432.75C2088.8 1432.75 2086.83 1433.58 2085.27 1435.25C2083.77 1436.86 2082.61 1438.92 2081.77 1441.42C2080.94 1443.86 2080.36 1446.36 2080.02 1448.92C2079.69 1451.42 2079.52 1453.58 2079.52 1455.42C2079.52 1459.31 2080.25 1462.17 2081.69 1464C2083.14 1465.83 2085.05 1466.75 2087.44 1466.75C2089.16 1466.75 2090.64 1466.36 2091.86 1465.58C2093.14 1464.75 2094.25 1463.67 2095.19 1462.33C2096.14 1461 2096.94 1459.53 2097.61 1457.92L2107.94 1464.67C2106.66 1466.83 2105.05 1468.81 2103.11 1470.58C2101.16 1472.31 2098.86 1473.69 2096.19 1474.75C2093.52 1475.75 2090.47 1476.25 2087.02 1476.25Z" fill="white"/>
<path d="M2437.41 1350L2448.25 1285H2472.58C2477.08 1285 2480.89 1285.69 2484 1287.08C2487.16 1288.47 2489.55 1290.47 2491.16 1293.08C2492.83 1295.69 2493.66 1298.83 2493.66 1302.5C2493.66 1306.83 2492.53 1310.61 2490.25 1313.83C2487.97 1317 2484.75 1319.33 2480.58 1320.83L2489.83 1349.5V1350H2475.16L2466.83 1322.33H2456L2451.41 1350H2437.41ZM2457.5 1312.33H2469C2472.66 1312.33 2475.39 1311.44 2477.16 1309.67C2478.94 1307.89 2479.83 1305.69 2479.83 1303.08C2479.83 1300.42 2478.94 1298.5 2477.16 1297.33C2475.39 1296.11 2472.94 1295.5 2469.83 1295.5H2460.33L2457.5 1312.33ZM2517.51 1351.25C2511.18 1351.25 2506.12 1349.39 2502.34 1345.67C2498.57 1341.94 2496.68 1336.47 2496.68 1329.25C2496.68 1325.92 2497.12 1322.47 2498.01 1318.92C2498.96 1315.36 2500.43 1312.06 2502.43 1309C2504.48 1305.94 2507.12 1303.47 2510.34 1301.58C2513.62 1299.69 2517.57 1298.75 2522.18 1298.75C2526.4 1298.75 2530.09 1299.69 2533.26 1301.58C2536.48 1303.42 2538.84 1306.28 2540.34 1310.17C2541.84 1314.06 2542.09 1319.03 2541.09 1325.08L2540.59 1328.17H2506.51V1319.67H2528.51C2529.23 1315.5 2528.84 1312.47 2527.34 1310.58C2525.84 1308.69 2523.96 1307.75 2521.68 1307.75C2519.29 1307.75 2517.32 1308.58 2515.76 1310.25C2514.26 1311.86 2513.09 1313.92 2512.26 1316.42C2511.43 1318.86 2510.84 1321.36 2510.51 1323.92C2510.18 1326.42 2510.01 1328.58 2510.01 1330.42C2510.01 1334.31 2510.73 1337.17 2512.18 1339C2513.62 1340.83 2515.54 1341.75 2517.93 1341.75C2519.65 1341.75 2521.12 1341.36 2522.34 1340.58C2523.62 1339.75 2524.73 1338.67 2525.68 1337.33C2526.62 1336 2527.43 1334.53 2528.09 1332.92L2538.43 1339.67C2537.15 1341.83 2535.54 1343.81 2533.59 1345.58C2531.65 1347.31 2529.34 1348.69 2526.68 1349.75C2524.01 1350.75 2520.96 1351.25 2517.51 1351.25ZM2545.55 1350L2551.88 1312C2552.33 1309.5 2552.69 1307.14 2552.97 1304.92C2553.24 1302.64 2553.38 1301 2553.38 1300H2565.38C2565.38 1301.17 2565.3 1302.39 2565.13 1303.67C2565.02 1304.89 2564.85 1306.17 2564.63 1307.5H2566.63C2567.91 1305 2569.58 1302.92 2571.63 1301.25C2573.69 1299.58 2576.55 1298.75 2580.22 1298.75C2583.33 1298.75 2585.91 1299.56 2587.97 1301.17C2590.08 1302.72 2591.47 1304.83 2592.13 1307.5H2594.13C2595.41 1305 2597.08 1302.92 2599.13 1301.25C2601.19 1299.58 2604.05 1298.75 2607.72 1298.75C2611.27 1298.75 2614.19 1299.56 2616.47 1301.17C2618.8 1302.78 2620.41 1305 2621.3 1307.83C2622.24 1310.61 2622.41 1313.86 2621.8 1317.58L2616.38 1350H2602.88L2607.97 1319.5C2608.58 1316.06 2608.47 1313.42 2607.63 1311.58C2606.85 1309.69 2605.47 1308.75 2603.47 1308.75C2601.52 1308.75 2599.74 1309.56 2598.13 1311.17C2596.58 1312.72 2595.24 1314.81 2594.13 1317.42C2593.08 1320.03 2592.27 1322.89 2591.72 1326L2587.72 1350H2574.22L2579.3 1319.5C2579.91 1316.06 2579.8 1313.42 2578.97 1311.58C2578.13 1309.69 2576.72 1308.75 2574.72 1308.75C2572.77 1308.75 2571.02 1309.56 2569.47 1311.17C2567.91 1312.72 2566.58 1314.81 2565.47 1317.42C2564.41 1320.03 2563.6 1322.89 2563.05 1326L2559.05 1350H2545.55ZM2649.15 1351.25C2642.82 1351.25 2637.76 1349.39 2633.99 1345.67C2630.21 1341.94 2628.32 1336.47 2628.32 1329.25C2628.32 1325.92 2628.76 1322.47 2629.65 1318.92C2630.6 1315.36 2632.07 1312.06 2634.07 1309C2636.12 1305.94 2638.76 1303.47 2641.99 1301.58C2645.26 1299.69 2649.21 1298.75 2653.82 1298.75C2658.04 1298.75 2661.74 1299.69 2664.9 1301.58C2668.12 1303.42 2670.49 1306.28 2671.99 1310.17C2673.49 1314.06 2673.74 1319.03 2672.74 1325.08L2672.24 1328.17H2638.15V1319.67H2660.15C2660.87 1315.5 2660.49 1312.47 2658.99 1310.58C2657.49 1308.69 2655.6 1307.75 2653.32 1307.75C2650.93 1307.75 2648.96 1308.58 2647.4 1310.25C2645.9 1311.86 2644.74 1313.92 2643.9 1316.42C2643.07 1318.86 2642.49 1321.36 2642.15 1323.92C2641.82 1326.42 2641.65 1328.58 2641.65 1330.42C2641.65 1334.31 2642.37 1337.17 2643.82 1339C2645.26 1340.83 2647.18 1341.75 2649.57 1341.75C2651.29 1341.75 2652.76 1341.36 2653.99 1340.58C2655.26 1339.75 2656.37 1338.67 2657.32 1337.33C2658.26 1336 2659.07 1334.53 2659.74 1332.92L2670.07 1339.67C2668.79 1341.83 2667.18 1343.81 2665.24 1345.58C2663.29 1347.31 2660.99 1348.69 2658.32 1349.75C2655.65 1350.75 2652.6 1351.25 2649.15 1351.25ZM2693.27 1350.83C2688.55 1350.83 2684.75 1349.14 2681.86 1345.75C2678.97 1342.36 2677.52 1337.47 2677.52 1331.08C2677.52 1327.36 2678.02 1323.61 2679.02 1319.83C2680.02 1316.06 2681.52 1312.61 2683.52 1309.5C2685.52 1306.33 2688 1303.81 2690.94 1301.92C2693.94 1299.97 2697.38 1299 2701.27 1299C2704.55 1299 2707.02 1299.58 2708.69 1300.75C2710.36 1301.92 2711.61 1303.17 2712.44 1304.5H2714.44L2717.44 1283.33H2730.94L2722.02 1337C2721.8 1338.5 2721.58 1339.97 2721.36 1341.42C2721.19 1342.81 2721.05 1344.22 2720.94 1345.67C2720.88 1347.06 2720.86 1348.5 2720.86 1350H2707.86C2707.97 1348.89 2708.11 1347.64 2708.27 1346.25C2708.5 1344.86 2708.72 1343.61 2708.94 1342.5H2706.94C2705.88 1344.5 2704.27 1346.39 2702.11 1348.17C2700 1349.94 2697.05 1350.83 2693.27 1350.83ZM2698.11 1340.83C2700.44 1340.83 2702.47 1339.83 2704.19 1337.83C2705.97 1335.83 2707.44 1333.28 2708.61 1330.17C2709.83 1327.06 2710.72 1323.83 2711.27 1320.5L2712.86 1311C2711.86 1310.28 2710.72 1309.69 2709.44 1309.25C2708.22 1308.75 2706.8 1308.5 2705.19 1308.5C2702.3 1308.5 2699.8 1309.53 2697.69 1311.58C2695.58 1313.58 2693.94 1316.28 2692.77 1319.67C2691.61 1323 2691.02 1326.64 2691.02 1330.58C2691.02 1334.19 2691.69 1336.81 2693.02 1338.42C2694.41 1340.03 2696.11 1340.83 2698.11 1340.83ZM2732.17 1350L2740.5 1300H2754L2745.67 1350H2732.17ZM2748.67 1294.25C2746.56 1294.25 2744.92 1293.72 2743.75 1292.67C2742.64 1291.56 2742.09 1290.08 2742.09 1288.25C2742.09 1285.97 2742.81 1284.17 2744.25 1282.83C2745.7 1281.44 2747.61 1280.75 2750 1280.75C2752.11 1280.75 2753.73 1281.31 2754.84 1282.42C2756 1283.47 2756.59 1284.89 2756.59 1286.67C2756.59 1288.89 2755.86 1290.72 2754.42 1292.17C2753.03 1293.56 2751.11 1294.25 2748.67 1294.25ZM2774.13 1351C2769.41 1351 2765.6 1349.28 2762.72 1345.83C2759.83 1342.39 2758.38 1337.47 2758.38 1331.08C2758.38 1327.36 2758.88 1323.61 2759.88 1319.83C2760.94 1316.06 2762.49 1312.61 2764.55 1309.5C2766.6 1306.33 2769.13 1303.81 2772.13 1301.92C2775.13 1299.97 2778.63 1299 2782.63 1299C2785.97 1299 2788.52 1299.61 2790.3 1300.83C2792.08 1302 2793.38 1303.39 2794.22 1305H2796.22L2797.05 1300H2809.05L2802.88 1337C2802.66 1338.5 2802.44 1339.97 2802.22 1341.42C2802.05 1342.81 2801.91 1344.22 2801.8 1345.67C2801.74 1347.06 2801.72 1348.5 2801.72 1350H2788.72C2788.83 1348.89 2788.97 1347.64 2789.13 1346.25C2789.35 1344.86 2789.58 1343.61 2789.8 1342.5H2787.8C2786.74 1344.5 2785.13 1346.42 2782.97 1348.25C2780.85 1350.08 2777.91 1351 2774.13 1351ZM2778.97 1341C2781.3 1341 2783.33 1340 2785.05 1338C2786.83 1335.94 2788.3 1333.36 2789.47 1330.25C2790.69 1327.08 2791.58 1323.83 2792.13 1320.5L2793.72 1311C2792.72 1310.28 2791.58 1309.69 2790.3 1309.25C2789.08 1308.75 2787.66 1308.5 2786.05 1308.5C2783.16 1308.5 2780.66 1309.53 2778.55 1311.58C2776.44 1313.58 2774.8 1316.28 2773.63 1319.67C2772.47 1323 2771.88 1326.64 2771.88 1330.58C2771.88 1334.19 2772.55 1336.83 2773.88 1338.5C2775.27 1340.17 2776.97 1341 2778.97 1341ZM2819.2 1350C2818.25 1348.39 2817.58 1346.53 2817.2 1344.42C2816.86 1342.31 2817.03 1339.19 2817.7 1335.08L2821.95 1309.5H2816.11L2817.7 1300H2823.86L2825.95 1287.5H2838.78L2836.7 1300H2844.36L2842.78 1309.5H2835.45L2831.36 1333.67C2830.7 1337.72 2830.61 1340.94 2831.11 1343.33C2831.61 1345.67 2832.47 1347.72 2833.7 1349.5V1350H2819.2ZM2865.75 1351.25C2859.42 1351.25 2854.36 1349.39 2850.59 1345.67C2846.81 1341.94 2844.92 1336.47 2844.92 1329.25C2844.92 1325.92 2845.36 1322.47 2846.25 1318.92C2847.2 1315.36 2848.67 1312.06 2850.67 1309C2852.73 1305.94 2855.36 1303.47 2858.59 1301.58C2861.86 1299.69 2865.81 1298.75 2870.42 1298.75C2874.64 1298.75 2878.34 1299.69 2881.5 1301.58C2884.73 1303.42 2887.09 1306.28 2888.59 1310.17C2890.09 1314.06 2890.34 1319.03 2889.34 1325.08L2888.84 1328.17H2854.75V1319.67H2876.75C2877.48 1315.5 2877.09 1312.47 2875.59 1310.58C2874.09 1308.69 2872.2 1307.75 2869.92 1307.75C2867.53 1307.75 2865.56 1308.58 2864 1310.25C2862.5 1311.86 2861.34 1313.92 2860.5 1316.42C2859.67 1318.86 2859.09 1321.36 2858.75 1323.92C2858.42 1326.42 2858.25 1328.58 2858.25 1330.42C2858.25 1334.31 2858.98 1337.17 2860.42 1339C2861.86 1340.83 2863.78 1341.75 2866.17 1341.75C2867.89 1341.75 2869.36 1341.36 2870.59 1340.58C2871.86 1339.75 2872.98 1338.67 2873.92 1337.33C2874.86 1336 2875.67 1334.53 2876.34 1332.92L2886.67 1339.67C2885.39 1341.83 2883.78 1343.81 2881.84 1345.58C2879.89 1347.31 2877.59 1348.69 2874.92 1349.75C2872.25 1350.75 2869.2 1351.25 2865.75 1351.25ZM2929.89 1351C2925.17 1351 2921.37 1349.28 2918.48 1345.83C2915.59 1342.39 2914.14 1337.47 2914.14 1331.08C2914.14 1327.36 2914.64 1323.61 2915.64 1319.83C2916.7 1316.06 2918.25 1312.61 2920.31 1309.5C2922.37 1306.33 2924.89 1303.81 2927.89 1301.92C2930.89 1299.97 2934.39 1299 2938.39 1299C2941.73 1299 2944.28 1299.61 2946.06 1300.83C2947.84 1302 2949.14 1303.39 2949.98 1305H2951.98L2952.81 1300H2964.81L2958.64 1337C2958.42 1338.5 2958.2 1339.97 2957.98 1341.42C2957.81 1342.81 2957.67 1344.22 2957.56 1345.67C2957.5 1347.06 2957.48 1348.5 2957.48 1350H2944.48C2944.59 1348.89 2944.73 1347.64 2944.89 1346.25C2945.12 1344.86 2945.34 1343.61 2945.56 1342.5H2943.56C2942.5 1344.5 2940.89 1346.42 2938.73 1348.25C2936.62 1350.08 2933.67 1351 2929.89 1351ZM2934.73 1341C2937.06 1341 2939.09 1340 2940.81 1338C2942.59 1335.94 2944.06 1333.36 2945.23 1330.25C2946.45 1327.08 2947.34 1323.83 2947.89 1320.5L2949.48 1311C2948.48 1310.28 2947.34 1309.69 2946.06 1309.25C2944.84 1308.75 2943.42 1308.5 2941.81 1308.5C2938.92 1308.5 2936.42 1309.53 2934.31 1311.58C2932.2 1313.58 2930.56 1316.28 2929.39 1319.67C2928.23 1323 2927.64 1326.64 2927.64 1330.58C2927.64 1334.19 2928.31 1336.83 2929.64 1338.5C2931.03 1340.17 2932.73 1341 2934.73 1341ZM2968.79 1350L2975.12 1312C2975.57 1309.5 2975.93 1307.14 2976.21 1304.92C2976.49 1302.64 2976.62 1301 2976.62 1300H2988.62C2988.62 1301.17 2988.54 1302.39 2988.37 1303.67C2988.26 1304.89 2988.1 1306.17 2987.87 1307.5H2989.87C2991.15 1305 2992.82 1302.92 2994.87 1301.25C2996.93 1299.58 2999.79 1298.75 3003.46 1298.75C3007.01 1298.75 3009.93 1299.56 3012.21 1301.17C3014.54 1302.78 3016.15 1305 3017.04 1307.83C3017.99 1310.61 3018.15 1313.86 3017.54 1317.58L3012.12 1350H2998.62L3003.71 1319.5C3004.32 1316.06 3004.18 1313.42 3003.29 1311.58C3002.4 1309.75 3000.82 1308.83 2998.54 1308.83C2996.43 1308.83 2994.54 1309.61 2992.87 1311.17C2991.21 1312.72 2989.82 1314.81 2988.71 1317.42C2987.65 1320.03 2986.85 1322.89 2986.29 1326L2982.29 1350H2968.79ZM3039.85 1350.83C3035.13 1350.83 3031.33 1349.14 3028.44 1345.75C3025.55 1342.36 3024.1 1337.47 3024.1 1331.08C3024.1 1327.36 3024.6 1323.61 3025.6 1319.83C3026.6 1316.06 3028.1 1312.61 3030.1 1309.5C3032.1 1306.33 3034.58 1303.81 3037.52 1301.92C3040.52 1299.97 3043.97 1299 3047.85 1299C3051.13 1299 3053.6 1299.58 3055.27 1300.75C3056.94 1301.92 3058.19 1303.17 3059.02 1304.5H3061.02L3064.02 1283.33H3077.52L3068.6 1337C3068.38 1338.5 3068.16 1339.97 3067.94 1341.42C3067.77 1342.81 3067.63 1344.22 3067.52 1345.67C3067.47 1347.06 3067.44 1348.5 3067.44 1350H3054.44C3054.55 1348.89 3054.69 1347.64 3054.85 1346.25C3055.08 1344.86 3055.3 1343.61 3055.52 1342.5H3053.52C3052.47 1344.5 3050.85 1346.39 3048.69 1348.17C3046.58 1349.94 3043.63 1350.83 3039.85 1350.83ZM3044.69 1340.83C3047.02 1340.83 3049.05 1339.83 3050.77 1337.83C3052.55 1335.83 3054.02 1333.28 3055.19 1330.17C3056.41 1327.06 3057.3 1323.83 3057.85 1320.5L3059.44 1311C3058.44 1310.28 3057.3 1309.69 3056.02 1309.25C3054.8 1308.75 3053.38 1308.5 3051.77 1308.5C3048.88 1308.5 3046.38 1309.53 3044.27 1311.58C3042.16 1313.58 3040.52 1316.28 3039.35 1319.67C3038.19 1323 3037.6 1326.64 3037.6 1330.58C3037.6 1334.19 3038.27 1336.81 3039.6 1338.42C3040.99 1340.03 3042.69 1340.83 3044.69 1340.83ZM2527.29 1475L2538.37 1408.33H2551.87L2547.62 1431H2549.62C2550.34 1429.83 2551.18 1428.69 2552.12 1427.58C2553.12 1426.47 2554.4 1425.56 2555.95 1424.83C2557.51 1424.11 2559.51 1423.75 2561.95 1423.75C2565.51 1423.75 2568.43 1424.56 2570.7 1426.17C2573.04 1427.78 2574.65 1430 2575.54 1432.83C2576.48 1435.61 2576.65 1438.86 2576.04 1442.58L2570.62 1475H2557.12L2562.2 1444.5C2562.81 1441.06 2562.68 1438.42 2561.79 1436.58C2560.9 1434.69 2559.31 1433.75 2557.04 1433.75C2554.93 1433.75 2553.04 1434.56 2551.37 1436.17C2549.7 1437.72 2548.31 1439.81 2547.2 1442.42C2546.15 1445.03 2545.34 1447.89 2544.79 1451L2540.79 1475H2527.29ZM2598.35 1476C2593.63 1476 2589.82 1474.28 2586.93 1470.83C2584.05 1467.39 2582.6 1462.47 2582.6 1456.08C2582.6 1452.36 2583.1 1448.61 2584.1 1444.83C2585.16 1441.06 2586.71 1437.61 2588.77 1434.5C2590.82 1431.33 2593.35 1428.81 2596.35 1426.92C2599.35 1424.97 2602.85 1424 2606.85 1424C2610.18 1424 2612.74 1424.61 2614.52 1425.83C2616.3 1427 2617.6 1428.39 2618.43 1430H2620.43L2621.27 1425H2633.27L2627.1 1462C2626.88 1463.5 2626.66 1464.97 2626.43 1466.42C2626.27 1467.81 2626.13 1469.22 2626.02 1470.67C2625.96 1472.06 2625.93 1473.5 2625.93 1475H2612.93C2613.05 1473.89 2613.18 1472.64 2613.35 1471.25C2613.57 1469.86 2613.8 1468.61 2614.02 1467.5H2612.02C2610.96 1469.5 2609.35 1471.42 2607.18 1473.25C2605.07 1475.08 2602.13 1476 2598.35 1476ZM2603.18 1466C2605.52 1466 2607.55 1465 2609.27 1463C2611.05 1460.94 2612.52 1458.36 2613.68 1455.25C2614.91 1452.08 2615.8 1448.83 2616.35 1445.5L2617.93 1436C2616.93 1435.28 2615.8 1434.69 2614.52 1434.25C2613.3 1433.75 2611.88 1433.5 2610.27 1433.5C2607.38 1433.5 2604.88 1434.53 2602.77 1436.58C2600.66 1438.58 2599.02 1441.28 2597.85 1444.67C2596.68 1448 2596.1 1451.64 2596.1 1455.58C2596.1 1459.19 2596.77 1461.83 2598.1 1463.5C2599.49 1465.17 2601.18 1466 2603.18 1466ZM2637.25 1475L2643.58 1437C2644.03 1434.5 2644.39 1432.14 2644.66 1429.92C2644.94 1427.64 2645.08 1426 2645.08 1425H2657.08C2657.08 1426.17 2657 1427.56 2656.83 1429.17C2656.66 1430.72 2656.44 1432.17 2656.16 1433.5H2658.16C2658.72 1432.06 2659.53 1430.64 2660.58 1429.25C2661.64 1427.86 2663.08 1426.72 2664.91 1425.83C2666.75 1424.94 2669.08 1424.5 2671.91 1424.5H2675.08L2673.08 1436.67H2668.91C2665.8 1436.67 2663.33 1437.08 2661.5 1437.92C2659.66 1438.75 2658.25 1440.14 2657.25 1442.08C2656.25 1444.03 2655.47 1446.67 2654.91 1450L2650.75 1475H2637.25ZM2689.95 1475.83C2685.23 1475.83 2681.42 1474.14 2678.54 1470.75C2675.65 1467.36 2674.2 1462.47 2674.2 1456.08C2674.2 1452.36 2674.7 1448.61 2675.7 1444.83C2676.7 1441.06 2678.2 1437.61 2680.2 1434.5C2682.2 1431.33 2684.67 1428.81 2687.62 1426.92C2690.62 1424.97 2694.06 1424 2697.95 1424C2701.23 1424 2703.7 1424.58 2705.37 1425.75C2707.04 1426.92 2708.29 1428.17 2709.12 1429.5H2711.12L2714.12 1408.33H2727.62L2718.7 1462C2718.48 1463.5 2718.26 1464.97 2718.04 1466.42C2717.87 1467.81 2717.73 1469.22 2717.62 1470.67C2717.56 1472.06 2717.54 1473.5 2717.54 1475H2704.54C2704.65 1473.89 2704.79 1472.64 2704.95 1471.25C2705.17 1469.86 2705.4 1468.61 2705.62 1467.5H2703.62C2702.56 1469.5 2700.95 1471.39 2698.79 1473.17C2696.67 1474.94 2693.73 1475.83 2689.95 1475.83ZM2694.79 1465.83C2697.12 1465.83 2699.15 1464.83 2700.87 1462.83C2702.65 1460.83 2704.12 1458.28 2705.29 1455.17C2706.51 1452.06 2707.4 1448.83 2707.95 1445.5L2709.54 1436C2708.54 1435.28 2707.4 1434.69 2706.12 1434.25C2704.9 1433.75 2703.48 1433.5 2701.87 1433.5C2698.98 1433.5 2696.48 1434.53 2694.37 1436.58C2692.26 1438.58 2690.62 1441.28 2689.45 1444.67C2688.29 1448 2687.7 1451.64 2687.7 1455.58C2687.7 1459.19 2688.37 1461.81 2689.7 1463.42C2691.09 1465.03 2692.79 1465.83 2694.79 1465.83ZM2749.93 1476.25C2743.6 1476.25 2738.54 1474.39 2734.77 1470.67C2730.99 1466.94 2729.1 1461.47 2729.1 1454.25C2729.1 1450.92 2729.54 1447.47 2730.43 1443.92C2731.38 1440.36 2732.85 1437.06 2734.85 1434C2736.91 1430.94 2739.54 1428.47 2742.77 1426.58C2746.04 1424.69 2749.99 1423.75 2754.6 1423.75C2758.82 1423.75 2762.52 1424.69 2765.68 1426.58C2768.91 1428.42 2771.27 1431.28 2772.77 1435.17C2774.27 1439.06 2774.52 1444.03 2773.52 1450.08L2773.02 1453.17H2738.93V1444.67H2760.93C2761.66 1440.5 2761.27 1437.47 2759.77 1435.58C2758.27 1433.69 2756.38 1432.75 2754.1 1432.75C2751.71 1432.75 2749.74 1433.58 2748.18 1435.25C2746.68 1436.86 2745.52 1438.92 2744.68 1441.42C2743.85 1443.86 2743.27 1446.36 2742.93 1448.92C2742.6 1451.42 2742.43 1453.58 2742.43 1455.42C2742.43 1459.31 2743.16 1462.17 2744.6 1464C2746.04 1465.83 2747.96 1466.75 2750.35 1466.75C2752.07 1466.75 2753.54 1466.36 2754.77 1465.58C2756.04 1464.75 2757.16 1463.67 2758.1 1462.33C2759.04 1461 2759.85 1459.53 2760.52 1457.92L2770.85 1464.67C2769.57 1466.83 2767.96 1468.81 2766.02 1470.58C2764.07 1472.31 2761.77 1473.69 2759.1 1474.75C2756.43 1475.75 2753.38 1476.25 2749.93 1476.25ZM2777.97 1475L2784.3 1437C2784.75 1434.5 2785.11 1432.14 2785.39 1429.92C2785.67 1427.64 2785.8 1426 2785.8 1425H2797.8C2797.8 1426.17 2797.72 1427.39 2797.55 1428.67C2797.44 1429.89 2797.28 1431.17 2797.05 1432.5H2799.05C2800.33 1430 2802 1427.92 2804.05 1426.25C2806.11 1424.58 2808.97 1423.75 2812.64 1423.75C2816.19 1423.75 2819.11 1424.56 2821.39 1426.17C2823.72 1427.78 2825.33 1430 2826.22 1432.83C2827.17 1435.61 2827.33 1438.86 2826.72 1442.58L2821.3 1475H2807.8L2812.89 1444.5C2813.5 1441.06 2813.36 1438.42 2812.47 1436.58C2811.58 1434.75 2810 1433.83 2807.72 1433.83C2805.61 1433.83 2803.72 1434.61 2802.05 1436.17C2800.39 1437.72 2799 1439.81 2797.89 1442.42C2796.83 1445.03 2796.03 1447.89 2795.47 1451L2791.47 1475H2777.97ZM2859.14 1475C2858.19 1473.39 2857.53 1471.53 2857.14 1469.42C2856.8 1467.31 2856.97 1464.19 2857.64 1460.08L2861.89 1434.5H2856.05L2857.64 1425H2863.8L2865.89 1412.5H2878.72L2876.64 1425H2884.3L2882.72 1434.5H2875.39L2871.3 1458.67C2870.64 1462.72 2870.55 1465.94 2871.05 1468.33C2871.55 1470.67 2872.42 1472.72 2873.64 1474.5V1475H2859.14ZM2884.61 1475L2895.69 1408.33H2909.19L2904.94 1431H2906.94C2907.67 1429.83 2908.5 1428.69 2909.44 1427.58C2910.44 1426.47 2911.72 1425.56 2913.28 1424.83C2914.83 1424.11 2916.83 1423.75 2919.28 1423.75C2922.83 1423.75 2925.75 1424.56 2928.03 1426.17C2930.36 1427.78 2931.97 1430 2932.86 1432.83C2933.81 1435.61 2933.97 1438.86 2933.36 1442.58L2927.94 1475H2914.44L2919.53 1444.5C2920.14 1441.06 2920 1438.42 2919.11 1436.58C2918.22 1434.69 2916.64 1433.75 2914.36 1433.75C2912.25 1433.75 2910.36 1434.56 2908.69 1436.17C2907.03 1437.72 2905.64 1439.81 2904.53 1442.42C2903.47 1445.03 2902.67 1447.89 2902.11 1451L2898.11 1475H2884.61ZM2960.68 1476.25C2954.34 1476.25 2949.29 1474.39 2945.51 1470.67C2941.73 1466.94 2939.84 1461.47 2939.84 1454.25C2939.84 1450.92 2940.29 1447.47 2941.18 1443.92C2942.12 1440.36 2943.59 1437.06 2945.59 1434C2947.65 1430.94 2950.29 1428.47 2953.51 1426.58C2956.79 1424.69 2960.73 1423.75 2965.34 1423.75C2969.56 1423.75 2973.26 1424.69 2976.43 1426.58C2979.65 1428.42 2982.01 1431.28 2983.51 1435.17C2985.01 1439.06 2985.26 1444.03 2984.26 1450.08L2983.76 1453.17H2949.68V1444.67H2971.68C2972.4 1440.5 2972.01 1437.47 2970.51 1435.58C2969.01 1433.69 2967.12 1432.75 2964.84 1432.75C2962.45 1432.75 2960.48 1433.58 2958.93 1435.25C2957.43 1436.86 2956.26 1438.92 2955.43 1441.42C2954.59 1443.86 2954.01 1446.36 2953.68 1448.92C2953.34 1451.42 2953.18 1453.58 2953.18 1455.42C2953.18 1459.31 2953.9 1462.17 2955.34 1464C2956.79 1465.83 2958.7 1466.75 2961.09 1466.75C2962.81 1466.75 2964.29 1466.36 2965.51 1465.58C2966.79 1464.75 2967.9 1463.67 2968.84 1462.33C2969.79 1461 2970.59 1459.53 2971.26 1457.92L2981.59 1464.67C2980.31 1466.83 2978.7 1468.81 2976.76 1470.58C2974.81 1472.31 2972.51 1473.69 2969.84 1474.75C2967.18 1475.75 2964.12 1476.25 2960.68 1476.25ZM2571.11 1600L2581.94 1535H2605.44L2615.61 1589H2617.61L2626.61 1535H2639.27L2628.44 1600H2604.77L2594.77 1546H2592.77L2583.77 1600H2571.11ZM2662.04 1601.25C2655.71 1601.25 2650.65 1599.39 2646.88 1595.67C2643.1 1591.94 2641.21 1586.47 2641.21 1579.25C2641.21 1575.92 2641.65 1572.47 2642.54 1568.92C2643.49 1565.36 2644.96 1562.06 2646.96 1559C2649.01 1555.94 2651.65 1553.47 2654.88 1551.58C2658.15 1549.69 2662.1 1548.75 2666.71 1548.75C2670.93 1548.75 2674.63 1549.69 2677.79 1551.58C2681.01 1553.42 2683.38 1556.28 2684.88 1560.17C2686.38 1564.06 2686.63 1569.03 2685.63 1575.08L2685.13 1578.17H2651.04V1569.67H2673.04C2673.76 1565.5 2673.38 1562.47 2671.88 1560.58C2670.38 1558.69 2668.49 1557.75 2666.21 1557.75C2663.82 1557.75 2661.85 1558.58 2660.29 1560.25C2658.79 1561.86 2657.63 1563.92 2656.79 1566.42C2655.96 1568.86 2655.38 1571.36 2655.04 1573.92C2654.71 1576.42 2654.54 1578.58 2654.54 1580.42C2654.54 1584.31 2655.26 1587.17 2656.71 1589C2658.15 1590.83 2660.07 1591.75 2662.46 1591.75C2664.18 1591.75 2665.65 1591.36 2666.88 1590.58C2668.15 1589.75 2669.26 1588.67 2670.21 1587.33C2671.15 1586 2671.96 1584.53 2672.63 1582.92L2682.96 1589.67C2681.68 1591.83 2680.07 1593.81 2678.13 1595.58C2676.18 1597.31 2673.88 1598.69 2671.21 1599.75C2668.54 1600.75 2665.49 1601.25 2662.04 1601.25ZM2696.25 1600C2695.3 1598.39 2694.64 1596.53 2694.25 1594.42C2693.91 1592.31 2694.08 1589.19 2694.75 1585.08L2699 1559.5H2693.16L2694.75 1550H2700.91L2703 1537.5H2715.83L2713.75 1550H2721.41L2719.83 1559.5H2712.5L2708.41 1583.67C2707.75 1587.72 2707.66 1590.94 2708.16 1593.33C2708.66 1595.67 2709.52 1597.72 2710.75 1599.5V1600H2696.25ZM2726.3 1600L2727.22 1550.08V1550H2739.05L2738.14 1590H2740.14L2753.39 1550H2774.55L2774.8 1590H2776.8L2788.89 1550H2800.72V1550.08L2785.39 1600H2763.39L2762.97 1559.75H2760.97L2748.05 1600H2726.3ZM2823.53 1601.25C2816.98 1601.25 2811.73 1599.39 2807.78 1595.67C2803.9 1591.89 2801.95 1586.36 2801.95 1579.08C2801.95 1575.81 2802.4 1572.42 2803.28 1568.92C2804.23 1565.36 2805.73 1562.06 2807.78 1559C2809.84 1555.94 2812.56 1553.47 2815.95 1551.58C2819.34 1549.69 2823.51 1548.75 2828.45 1548.75C2835.01 1548.75 2840.23 1550.61 2844.12 1554.33C2848.01 1558.06 2849.95 1563.58 2849.95 1570.92C2849.95 1574.14 2849.48 1577.53 2848.53 1581.08C2847.65 1584.58 2846.17 1587.86 2844.12 1590.92C2842.12 1593.97 2839.42 1596.47 2836.03 1598.42C2832.65 1600.31 2828.48 1601.25 2823.53 1601.25ZM2823.45 1592.25C2825.56 1592.25 2827.34 1591.67 2828.78 1590.5C2830.28 1589.28 2831.51 1587.75 2832.45 1585.92C2833.45 1584.03 2834.2 1582.03 2834.7 1579.92C2835.26 1577.75 2835.62 1575.69 2835.78 1573.75C2836.01 1571.75 2836.12 1570.08 2836.12 1568.75C2836.12 1565.03 2835.45 1562.28 2834.12 1560.5C2832.84 1558.67 2830.98 1557.75 2828.53 1557.75C2826.42 1557.75 2824.62 1558.33 2823.12 1559.5C2821.62 1560.67 2820.4 1562.19 2819.45 1564.08C2818.51 1565.97 2817.76 1568 2817.2 1570.17C2816.65 1572.28 2816.26 1574.31 2816.03 1576.25C2815.87 1578.19 2815.78 1579.81 2815.78 1581.08C2815.78 1584.58 2816.42 1587.33 2817.7 1589.33C2818.98 1591.28 2820.9 1592.25 2823.45 1592.25ZM2854.24 1600L2860.57 1562C2861.02 1559.5 2861.38 1557.14 2861.66 1554.92C2861.93 1552.64 2862.07 1551 2862.07 1550H2874.07C2874.07 1551.17 2873.99 1552.56 2873.82 1554.17C2873.66 1555.72 2873.43 1557.17 2873.16 1558.5H2875.16C2875.71 1557.06 2876.52 1555.64 2877.57 1554.25C2878.63 1552.86 2880.07 1551.72 2881.91 1550.83C2883.74 1549.94 2886.07 1549.5 2888.91 1549.5H2892.07L2890.07 1561.67H2885.91C2882.8 1561.67 2880.32 1562.08 2878.49 1562.92C2876.66 1563.75 2875.24 1565.14 2874.24 1567.08C2873.24 1569.03 2872.46 1571.67 2871.91 1575L2867.74 1600H2854.24ZM2891.74 1600L2902.82 1533.33H2916.32L2910.49 1568.67H2914.49L2928.16 1550H2943.66V1550.5L2924.41 1574.17L2938.41 1599.5V1600H2923.91L2912.82 1578.67H2908.82L2905.24 1600H2891.74Z" fill="white"/>
<path d="M2260 180C2264.69 180 2269.32 180.254 2273.88 180.763C2275.51 180.943 2277.09 181.443 2278.53 182.234C2279.96 183.026 2281.23 184.093 2282.26 185.374C2283.28 186.655 2284.05 188.126 2284.51 189.703C2284.96 191.28 2285.11 192.931 2284.93 194.562C2284.74 196.194 2284.24 197.774 2283.45 199.213C2282.66 200.651 2281.59 201.919 2280.31 202.946C2279.03 203.972 2277.56 204.735 2275.98 205.193C2274.41 205.65 2272.76 205.793 2271.12 205.612C2250.53 203.308 2229.72 207.462 2211.58 217.499C2193.45 227.536 2178.88 242.961 2169.89 261.64C2160.91 280.319 2157.95 301.328 2161.42 321.763C2164.9 342.197 2174.64 361.046 2189.3 375.703C2203.95 390.36 2222.8 400.1 2243.24 403.576C2263.67 407.052 2284.68 404.093 2303.36 395.107C2322.04 386.121 2337.46 371.552 2347.5 353.417C2357.54 335.281 2361.69 314.474 2359.39 293.875C2359.21 292.243 2359.35 290.592 2359.81 289.015C2360.26 287.439 2361.03 285.968 2362.05 284.686C2364.13 282.098 2367.14 280.44 2370.44 280.075C2373.73 279.71 2377.04 280.67 2379.63 282.742C2380.91 283.768 2381.97 285.036 2382.77 286.475C2383.56 287.913 2384.06 289.493 2384.24 291.125C2384.74 295.683 2384.99 300.308 2385 305C2385 374.037 2329.04 430 2260 430C2190.96 430 2135 374.037 2135 305C2135 235.963 2190.96 180 2260 180ZM2259.6 253.463C2260.42 256.672 2259.94 260.076 2258.25 262.929C2256.57 265.781 2253.82 267.848 2250.61 268.675C2241.8 270.984 2234.13 276.421 2229.03 283.971C2223.93 291.522 2221.75 300.67 2222.9 309.709C2224.05 318.747 2228.44 327.059 2235.27 333.093C2242.1 339.127 2250.89 342.47 2260 342.5C2268.32 342.503 2276.4 339.742 2282.97 334.651C2289.55 329.56 2294.25 322.427 2296.32 314.375C2297.21 311.229 2299.29 308.556 2302.13 306.927C2304.96 305.298 2308.32 304.844 2311.48 305.661C2314.65 306.478 2317.37 308.502 2319.06 311.299C2320.75 314.096 2321.27 317.444 2320.52 320.625C2316.69 335.324 2307.64 348.124 2295.05 356.635C2282.47 365.145 2267.22 368.783 2252.15 366.869C2237.08 364.955 2223.22 357.62 2213.16 346.234C2203.11 334.849 2197.54 320.191 2197.5 305C2197.5 291.142 2202.1 277.677 2210.59 266.721C2219.07 255.765 2230.96 247.939 2244.38 244.475C2245.96 244.065 2247.62 243.973 2249.25 244.203C2250.87 244.433 2252.44 244.98 2253.85 245.815C2255.26 246.65 2256.5 247.755 2257.49 249.067C2258.47 250.379 2259.19 251.873 2259.6 253.463ZM2341.3 181.588C2343.58 182.533 2345.53 184.134 2346.9 186.188C2348.28 188.241 2349.01 190.655 2349.01 193.125V216H2371.88C2374.35 216.001 2376.76 216.734 2378.82 218.107C2380.87 219.481 2382.48 221.433 2383.42 223.717C2384.37 226.001 2384.61 228.513 2384.13 230.938C2383.65 233.362 2382.46 235.589 2380.71 237.337L2336.5 281.5C2334.16 283.844 2330.98 285.162 2327.66 285.162H2297.5L2274.65 308.025C2272.3 310.37 2269.12 311.688 2265.81 311.688C2262.49 311.688 2259.31 310.37 2256.96 308.025C2254.62 305.679 2253.3 302.498 2253.3 299.181C2253.3 295.864 2254.62 292.683 2256.96 290.337L2279.83 267.5V237.325C2279.83 234.01 2281.14 230.831 2283.49 228.488L2327.67 184.287C2329.42 182.538 2331.65 181.347 2334.08 180.864C2336.5 180.381 2339.02 180.629 2341.3 181.575M2324.01 223.287L2304.83 242.5V260.175H2322.5L2341.7 240.988H2336.51C2333.2 240.988 2330.02 239.671 2327.67 237.326C2325.33 234.982 2324.01 231.803 2324.01 228.488V223.287Z" fill="white"/>
<path d="M1438.41 393.335L1513.76 316.631C1515.07 315.279 1516.69 314.56 1518.61 314.474C1520.53 314.387 1522.24 315.106 1523.74 316.631C1525.24 318.155 1525.99 319.847 1526 321.707C1526.01 323.567 1525.26 325.264 1523.74 326.798L1446.39 405.558C1444.11 407.888 1441.45 409.052 1438.41 409.052C1435.37 409.052 1432.71 407.888 1430.43 405.558L1393.16 367.609C1391.84 366.266 1391.14 364.617 1391.04 362.662C1390.95 360.706 1391.66 358.966 1393.16 357.442C1394.67 355.917 1396.33 355.151 1398.16 355.141C1399.99 355.131 1401.65 355.898 1403.16 357.442L1438.41 393.335ZM1298.82 425C1292.54 425 1287.17 422.723 1282.71 418.169C1278.25 413.616 1276.01 408.156 1276 401.79V218.141C1276 211.756 1278.24 206.291 1282.71 201.747C1287.18 197.203 1292.55 194.926 1298.81 194.917H1364.3C1365.61 189.299 1368.55 184.577 1373.09 180.752C1377.64 176.917 1382.94 175 1388.98 175C1395.14 175 1400.48 176.917 1405 180.752C1409.52 184.568 1412.43 189.289 1413.75 194.917H1479.14C1485.42 194.917 1490.8 197.193 1495.27 201.747C1499.74 206.301 1501.97 211.765 1501.96 218.141V274.008C1501.96 276.05 1501.29 277.756 1499.93 279.127C1498.57 280.498 1496.89 281.188 1494.89 281.198C1492.88 281.207 1491.21 280.517 1489.86 279.127C1488.51 277.737 1487.84 276.031 1487.84 274.008V218.155C1487.84 215.94 1486.94 213.908 1485.13 212.058C1483.32 210.208 1481.33 209.287 1479.14 209.297H1445.47V229.76C1445.47 233.048 1444.39 235.809 1442.22 238.043C1440.06 240.277 1437.38 241.389 1434.17 241.379H1343.79C1340.59 241.379 1337.9 240.267 1335.74 238.043C1333.57 235.819 1332.49 233.058 1332.49 229.76V209.297H1298.82C1296.65 209.297 1294.65 210.217 1292.83 212.058C1291.02 213.898 1290.11 215.931 1290.12 218.155V401.776C1290.12 403.981 1291.03 406.009 1292.83 407.859C1294.64 409.709 1296.63 410.629 1298.81 410.62H1367.8C1369.8 410.62 1371.48 411.31 1372.83 412.691C1374.17 414.071 1374.85 415.782 1374.86 417.824C1374.87 419.866 1374.19 421.573 1372.83 422.944C1371.46 424.315 1369.78 425 1367.8 425H1298.82ZM1389.02 212.604C1392.27 212.604 1394.98 211.492 1397.14 209.268C1399.31 207.034 1400.39 204.264 1400.39 200.956C1400.39 197.649 1399.3 194.893 1397.1 192.688C1394.91 190.483 1392.19 189.38 1388.94 189.38C1385.69 189.38 1382.98 190.502 1380.82 192.745C1378.65 194.988 1377.57 197.759 1377.57 201.057C1377.57 204.355 1378.67 207.106 1380.88 209.311C1383.08 211.516 1385.79 212.604 1389.02 212.604Z" fill="white"/>
<path d="M955 1084.5C958.542 1084.5 961.512 1083.3 963.912 1080.9C966.312 1078.5 967.508 1075.53 967.5 1072C967.492 1068.47 966.292 1065.5 963.9 1063.1C961.508 1060.7 958.542 1059.5 955 1059.5C951.458 1059.5 948.492 1060.7 946.1 1063.1C943.708 1065.5 942.508 1068.47 942.5 1072C942.492 1075.53 943.692 1078.5 946.1 1080.91C948.508 1083.32 951.475 1084.52 955 1084.5ZM942.5 1034.5H967.5V959.5H942.5V1034.5ZM955 1147C937.708 1147 921.458 1143.72 906.25 1137.15C891.042 1130.58 877.812 1121.68 866.562 1110.44C855.313 1099.2 846.408 1085.97 839.85 1070.75C833.292 1055.53 830.008 1039.28 830 1022C829.992 1004.72 833.275 988.467 839.85 973.25C846.425 958.033 855.329 944.804 866.562 933.562C877.796 922.321 891.025 913.417 906.25 906.85C921.475 900.283 937.725 897 955 897C972.275 897 988.525 900.283 1003.75 906.85C1018.97 913.417 1032.2 922.321 1043.44 933.562C1054.67 944.804 1063.58 958.033 1070.16 973.25C1076.75 988.467 1080.02 1004.72 1080 1022C1079.97 1039.28 1076.69 1055.53 1070.15 1070.75C1063.61 1085.97 1054.7 1099.2 1043.44 1110.44C1032.17 1121.68 1018.94 1130.59 1003.75 1137.16C988.558 1143.74 972.308 1147.02 955 1147ZM955 1122C982.917 1122 1006.56 1112.31 1025.94 1092.94C1045.31 1073.56 1055 1049.92 1055 1022C1055 994.083 1045.31 970.437 1025.94 951.062C1006.56 931.687 982.917 922 955 922C927.083 922 903.437 931.687 884.062 951.062C864.687 970.437 855 994.083 855 1022C855 1049.92 864.687 1073.56 884.062 1092.94C903.437 1112.31 927.083 1122 955 1122Z" fill="white"/>
</svg>
