<svg width="5149" height="2089" viewBox="0 0 5149 2089" fill="none" xmlns="http://www.w3.org/2000/svg">
<path d="M2103.35 2056.56L2102.58 2056.89L2103.35 2056.56ZM2103.35 2056.56C2142.19 2039.69 2180.55 2021.83 2218.38 2002.98C2312.43 1956.21 2403.08 1903.46 2489.71 1845.1M2103.35 2056.56L2489.71 1845.1M2489.71 1845.1C2588.39 1777.89 2691.48 1694.49 2770.82 1597.26C2849.94 1500.44 2911 1382.62 2911 1249.43V327.341C2911 312.935 2907.81 298.691 2901.65 285.538C2895.48 272.385 2886.47 260.62 2875.21 251.009C2863.95 241.399 2850.69 234.16 2836.3 229.765C2821.9 225.369 2806.7 223.917 2791.67 225.501M2489.71 1845.1L2791.67 225.501M2791.67 225.501C2721.48 232.98 2598.39 233.185 2469.18 207.777L2791.67 225.501ZM2133.9 42.7583L2133.9 42.7572C2111.83 21.7321 2082.01 10 2051 10C2019.99 10 1990.17 21.7321 1968.1 42.7572L1968.1 42.7583C1882.95 123.911 1760.02 172.538 1630.9 197.965C1502.73 223.168 1380.65 222.937 1311.38 215.558L1311.37 215.556C1295.02 213.831 1278.46 215.412 1262.78 220.201C1247.1 224.99 1232.62 232.887 1220.29 243.403C1207.97 253.92 1198.08 266.825 1191.3 281.293C1184.51 295.763 1181 311.455 1181 327.341C1181 327.341 1181 327.341 1181 327.341V1249.43C1181 1385.77 1243.5 1505.66 1323.43 1603.58L1323.44 1603.59C1403.61 1701.74 1507.56 1785.86 1606.66 1853.36L1606.68 1853.38L1606.7 1853.39C1730.87 1937.06 1863.18 2009.17 2001.8 2068.72L2001.82 2068.73L2001.84 2068.74L2003.57 2069.48L2004.02 2069.69L2006.06 2070.66H2006.72C2020.77 2076.15 2035.8 2078.98 2050.98 2079C2066.83 2079.02 2082.52 2075.97 2097.13 2070.03L2097.76 2069.77L2097.77 2069.79L2097.99 2069.69L2098.13 2069.62L2100.1 2068.81L2106.73 2066.12L2106.68 2066.01L2107.27 2065.77L2107.3 2065.75L2107.34 2065.74C2146.34 2048.8 2184.85 2030.86 2222.83 2011.93C2317.28 1964.97 2408.3 1912 2495.3 1853.39L2495.32 1853.38L2495.34 1853.36C2594.44 1785.87 2698.39 1701.84 2778.57 1603.58C2858.51 1505.76 2921 1385.76 2921 1249.43V327.341C2921 311.455 2917.49 295.763 2910.7 281.293C2903.92 266.825 2894.03 253.92 2881.71 243.403C2869.38 232.887 2854.9 224.99 2839.22 220.201C2823.54 215.412 2806.98 213.831 2790.63 215.556L2790.62 215.558C2721.35 222.937 2599.27 223.168 2471.1 197.965C2341.98 172.538 2219.05 123.911 2133.9 42.7583Z" stroke="#910000" stroke-width="20"/>
<path d="M2488.22 778.028V1053.89C2344.75 870.633 2239.19 787.638 2070.89 623.829C2065.23 613.922 2171.43 551.884 2271.78 557.339L2488.22 778.028Z" fill="#910000"/>
<path d="M2278.63 1428.12L2002.77 1427.24C2186.49 1284.35 2269.82 1179.06 2434.17 1011.29C2444.09 1005.66 2505.79 1112.06 2500.01 1212.39L2278.63 1428.12Z" fill="#910000"/>
<path d="M1615.23 1231.79L1615.32 955.932C1758.73 1139.24 1864.26 1222.27 2032.5 1386.13C2038.16 1396.04 1931.94 1458.04 1831.6 1452.56L1615.23 1231.79Z" fill="#910000"/>
<path d="M1822.03 580.15L2097.89 579.631C1914.9 723.45 1832.11 829.163 1668.61 997.768C1658.72 1003.45 1596.48 897.364 1601.75 797.01L1822.03 580.15Z" fill="#910000"/>
<path d="M3089.03 542V418.5H3140.65C3156.48 418.5 3168.04 421.878 3175.32 428.633C3182.61 435.283 3186.25 444.256 3186.25 455.55C3186.25 466.844 3182.61 475.869 3175.32 482.625C3168.15 489.381 3156.59 492.758 3140.65 492.758H3115.32V542H3089.03ZM3115.32 472.808H3136.69C3143.87 472.808 3149.46 471.594 3153.48 469.167C3157.59 466.633 3159.65 462.147 3159.65 455.708C3159.65 449.375 3157.59 444.942 3153.48 442.408C3149.46 439.769 3143.87 438.45 3136.69 438.45H3115.32V472.808ZM3242.38 544.375C3227.4 544.375 3215.94 539.889 3208.03 530.917C3200.21 521.944 3196.31 509.753 3196.31 494.342C3196.31 483.997 3198.05 475.131 3201.53 467.742C3205.12 460.353 3210.3 454.653 3217.05 450.642C3223.91 446.631 3232.25 444.625 3242.07 444.625C3256.21 444.625 3267.03 448.9 3274.53 457.45C3282.13 466 3285.93 478.561 3285.93 495.133V500.517H3221.33C3221.85 508.539 3223.91 514.872 3227.5 519.517C3231.2 524.056 3236.16 526.325 3242.38 526.325C3247.35 526.325 3251.3 524.847 3254.26 521.892C3257.32 518.936 3259.33 515.506 3260.28 511.6H3284.66C3283.71 517.406 3281.6 522.789 3278.33 527.75C3275.05 532.711 3270.46 536.722 3264.55 539.783C3258.64 542.844 3251.25 544.375 3242.38 544.375ZM3221.33 484.367H3260.91C3260.49 477.189 3258.69 471.647 3255.53 467.742C3252.36 463.731 3247.82 461.725 3241.91 461.725C3236.1 461.725 3231.41 463.625 3227.82 467.425C3224.33 471.119 3222.17 476.767 3221.33 484.367ZM3302.47 542V447H3326.22V461.25H3330.02C3331.92 456.5 3334.82 452.542 3338.72 449.375C3342.74 446.208 3348.59 444.625 3356.3 444.625C3366.86 444.625 3374.77 447.95 3380.05 454.6C3385.33 461.25 3387.97 470.275 3387.97 481.675V542H3362.32V485.95C3362.32 479.406 3361.16 474.392 3358.83 470.908C3356.51 467.319 3352.71 465.525 3347.43 465.525C3341.31 465.525 3336.56 467.953 3333.18 472.808C3329.81 477.558 3328.12 483.522 3328.12 490.7V542H3302.47ZM3449.83 544.375C3434.84 544.375 3423.38 539.889 3415.47 530.917C3407.66 521.944 3403.75 509.753 3403.75 494.342C3403.75 483.997 3405.49 475.131 3408.98 467.742C3412.56 460.353 3417.74 454.653 3424.49 450.642C3431.35 446.631 3439.69 444.625 3449.51 444.625C3463.65 444.625 3474.47 448.9 3481.97 457.45C3489.57 466 3493.37 478.561 3493.37 495.133V500.517H3428.77C3429.29 508.539 3431.35 514.872 3434.94 519.517C3438.64 524.056 3443.6 526.325 3449.83 526.325C3454.79 526.325 3458.74 524.847 3461.7 521.892C3464.76 518.936 3466.77 515.506 3467.72 511.6H3492.1C3491.15 517.406 3489.04 522.789 3485.77 527.75C3482.49 532.711 3477.9 536.722 3471.99 539.783C3466.08 542.844 3458.69 544.375 3449.83 544.375ZM3428.77 484.367H3468.35C3467.93 477.189 3466.13 471.647 3462.97 467.742C3459.8 463.731 3455.26 461.725 3449.35 461.725C3443.54 461.725 3438.85 463.625 3435.26 467.425C3431.78 471.119 3429.61 476.767 3428.77 484.367ZM3523.84 542C3521.41 539.15 3519.46 535.719 3517.98 531.708C3516.61 527.697 3515.92 521.681 3515.92 513.658V465.05H3502.94V447H3516.24V423.25H3541.42V447H3556.77V465.05H3541.42V510.967C3541.42 519.306 3542.37 525.692 3544.27 530.125C3546.17 534.558 3548.44 538.2 3551.07 541.05V542H3523.84ZM3572.86 542V447H3596.3V464.417H3600.1C3600.73 461.25 3601.89 458.294 3603.58 455.55C3605.37 452.7 3608.07 450.431 3611.65 448.742C3615.24 446.947 3620.05 446.05 3626.06 446.05H3631.13V469.167H3624.16C3615.19 469.167 3608.65 471.436 3604.53 475.975C3600.52 480.514 3598.51 487.322 3598.51 496.4V542H3572.86ZM3676.73 543.9C3667.86 543.9 3660.58 541.789 3654.88 537.567C3649.18 533.239 3644.96 527.328 3642.21 519.833C3639.47 512.339 3638.1 503.842 3638.1 494.342C3638.1 484.525 3639.47 475.922 3642.21 468.533C3645.06 461.144 3649.34 455.392 3655.04 451.275C3660.74 447.158 3667.92 445.1 3676.57 445.1C3683.22 445.1 3688.66 446.419 3692.88 449.058C3697.21 451.592 3700.48 455.022 3702.7 459.35H3706.5V447H3730.25V542H3706.5V529.65H3702.7C3700.48 533.661 3697.26 537.039 3693.04 539.783C3688.82 542.528 3683.38 543.9 3676.73 543.9ZM3683.38 525.85C3689.82 525.85 3694.94 523.053 3698.74 517.458C3702.64 511.758 3704.6 504.106 3704.6 494.5C3704.6 484.789 3702.64 477.136 3698.74 471.542C3694.94 465.947 3689.82 463.15 3683.38 463.15C3677.57 463.15 3672.98 465.789 3669.6 471.067C3666.33 476.239 3664.7 484.05 3664.7 494.5C3664.7 504.95 3666.33 512.814 3669.6 518.092C3672.98 523.264 3677.57 525.85 3683.38 525.85ZM3767.65 542C3765.22 539.15 3763.27 535.719 3761.79 531.708C3760.42 527.697 3759.73 521.681 3759.73 513.658V465.05H3746.75V447H3760.05V423.25H3785.23V447H3800.58V465.05H3785.23V510.967C3785.23 519.306 3786.18 525.692 3788.08 530.125C3789.97 534.558 3792.24 538.2 3794.88 541.05V542H3767.65ZM3816.99 542V447H3842.64V542H3816.99ZM3829.81 436.075C3825.27 436.075 3821.84 434.914 3819.52 432.592C3817.2 430.164 3816.04 427.05 3816.04 423.25C3816.04 419.45 3817.2 416.389 3819.52 414.067C3821.84 411.639 3825.27 410.425 3829.81 410.425C3834.35 410.425 3837.78 411.639 3840.1 414.067C3842.43 416.389 3843.59 419.45 3843.59 423.25C3843.59 427.05 3842.43 430.164 3840.1 432.592C3837.78 434.914 3834.35 436.075 3829.81 436.075ZM3906.69 544.375C3890.96 544.375 3879.19 539.889 3871.38 530.917C3863.68 521.839 3859.82 509.7 3859.82 494.5C3859.82 479.3 3863.68 467.214 3871.38 458.242C3879.19 449.164 3890.96 444.625 3906.69 444.625C3922.42 444.625 3934.14 449.164 3941.84 458.242C3949.65 467.214 3953.56 479.3 3953.56 494.5C3953.56 509.7 3949.65 521.839 3941.84 530.917C3934.14 539.889 3922.42 544.375 3906.69 544.375ZM3906.69 527.275C3913.66 527.275 3918.78 524.531 3922.05 519.042C3925.32 513.553 3926.96 505.319 3926.96 494.342C3926.96 483.469 3925.32 475.342 3922.05 469.958C3918.78 464.469 3913.66 461.725 3906.69 461.725C3899.72 461.725 3894.61 464.469 3891.33 469.958C3888.06 475.342 3886.42 483.469 3886.42 494.342C3886.42 505.319 3888.06 513.553 3891.33 519.042C3894.61 524.531 3899.72 527.275 3906.69 527.275ZM3970.62 542V447H3994.37V461.25H3998.17C4000.07 456.5 4002.97 452.542 4006.88 449.375C4010.89 446.208 4016.75 444.625 4024.45 444.625C4035.01 444.625 4042.93 447.95 4048.2 454.6C4053.48 461.25 4056.12 470.275 4056.12 481.675V542H4030.47V485.95C4030.47 479.406 4029.31 474.392 4026.99 470.908C4024.67 467.319 4020.87 465.525 4015.59 465.525C4009.47 465.525 4004.72 467.953 4001.34 472.808C3997.96 477.558 3996.27 483.522 3996.27 490.7V542H3970.62ZM4145.88 542V439.4H4109.31V418.5H4209.06V439.4H4172.48V542H4145.88ZM4255.84 544.375C4240.85 544.375 4229.4 539.889 4221.48 530.917C4213.67 521.944 4209.77 509.753 4209.77 494.342C4209.77 483.997 4211.51 475.131 4214.99 467.742C4218.58 460.353 4223.75 454.653 4230.51 450.642C4237.37 446.631 4245.71 444.625 4255.52 444.625C4269.67 444.625 4280.49 448.9 4287.98 457.45C4295.58 466 4299.38 478.561 4299.38 495.133V500.517H4234.78C4235.31 508.539 4237.37 514.872 4240.96 519.517C4244.65 524.056 4249.61 526.325 4255.84 526.325C4260.8 526.325 4264.76 524.847 4267.72 521.892C4270.78 518.936 4272.78 515.506 4273.73 511.6H4298.12C4297.17 517.406 4295.06 522.789 4291.78 527.75C4288.51 532.711 4283.92 536.722 4278.01 539.783C4272.1 542.844 4264.71 544.375 4255.84 544.375ZM4234.78 484.367H4274.37C4273.94 477.189 4272.15 471.647 4268.98 467.742C4265.82 463.731 4261.28 461.725 4255.37 461.725C4249.56 461.725 4244.86 463.625 4241.27 467.425C4237.79 471.119 4235.63 476.767 4234.78 484.367ZM4351.39 544.375C4340.83 544.375 4332.39 542.739 4326.06 539.467C4319.83 536.089 4315.24 531.867 4312.28 526.8C4309.43 521.733 4307.8 516.667 4307.37 511.6H4331.76C4332.28 514.344 4333.39 516.878 4335.08 519.2C4336.88 521.417 4339.2 523.158 4342.05 524.425C4345 525.692 4348.54 526.325 4352.66 526.325C4357.72 526.325 4361.37 525.481 4363.58 523.792C4365.8 521.997 4366.91 519.728 4366.91 516.983C4366.91 514.45 4365.85 512.339 4363.74 510.65C4361.73 508.856 4358.41 507.219 4353.77 505.742L4342.37 501.942C4336.88 500.042 4331.81 497.983 4327.17 495.767C4322.52 493.444 4318.77 490.489 4315.92 486.9C4313.18 483.311 4311.81 478.667 4311.81 472.967C4311.81 464.522 4315.03 457.714 4321.47 452.542C4327.9 447.264 4337.03 444.625 4348.86 444.625C4357.41 444.625 4364.37 445.944 4369.76 448.583C4375.25 451.222 4379.36 454.758 4382.11 459.192C4384.85 463.519 4386.43 468.322 4386.86 473.6H4363.42C4362.9 469.8 4361.31 466.897 4358.67 464.892C4356.03 462.781 4352.45 461.725 4347.91 461.725C4343.79 461.725 4340.68 462.517 4338.57 464.1C4336.56 465.683 4335.56 467.847 4335.56 470.592C4335.56 473.336 4336.67 475.606 4338.88 477.4C4341.1 479.194 4344.48 480.831 4349.02 482.308L4360.42 485.95C4365.9 487.639 4370.92 489.644 4375.46 491.967C4380.1 494.183 4383.8 497.139 4386.54 500.833C4389.28 504.422 4390.66 509.119 4390.66 514.925C4390.66 523.792 4387.28 530.917 4380.52 536.3C4373.87 541.683 4364.16 544.375 4351.39 544.375ZM4420.03 542C4417.61 539.15 4415.65 535.719 4414.17 531.708C4412.8 527.697 4412.12 521.681 4412.12 513.658V465.05H4399.13V447H4412.43V423.25H4437.61V447H4452.97V465.05H4437.61V510.967C4437.61 519.306 4438.56 525.692 4440.46 530.125C4442.36 534.558 4444.63 538.2 4447.27 541.05V542H4420.03ZM4469.37 542V447H4495.02V542H4469.37ZM4482.2 436.075C4477.66 436.075 4474.23 434.914 4471.9 432.592C4469.58 430.164 4468.42 427.05 4468.42 423.25C4468.42 419.45 4469.58 416.389 4471.9 414.067C4474.23 411.639 4477.66 410.425 4482.2 410.425C4486.73 410.425 4490.17 411.639 4492.49 414.067C4494.81 416.389 4495.97 419.45 4495.97 423.25C4495.97 427.05 4494.81 430.164 4492.49 432.592C4490.17 434.914 4486.73 436.075 4482.2 436.075ZM4518.54 542V447H4542.29V461.25H4546.09C4547.99 456.5 4550.89 452.542 4554.8 449.375C4558.81 446.208 4564.67 444.625 4572.37 444.625C4582.93 444.625 4590.85 447.95 4596.12 454.6C4601.4 461.25 4604.04 470.275 4604.04 481.675V542H4578.39V485.95C4578.39 479.406 4577.23 474.392 4574.91 470.908C4572.59 467.319 4568.79 465.525 4563.51 465.525C4557.39 465.525 4552.64 467.953 4549.26 472.808C4545.88 477.558 4544.19 483.522 4544.19 490.7V542H4518.54ZM4666.37 576.042C4657.51 576.042 4650.33 574.933 4644.84 572.717C4639.46 570.606 4635.29 567.914 4632.33 564.642C4629.48 561.369 4627.48 558.044 4626.32 554.667C4625.16 551.289 4624.47 548.333 4624.26 545.8H4649.27C4649.8 548.861 4651.28 551.658 4653.71 554.192C4656.14 556.725 4660.25 557.992 4666.06 557.992C4672.6 557.992 4677.51 556.039 4680.78 552.133C4684.06 548.333 4685.69 542.897 4685.69 535.825V524.583H4681.89C4680.41 529.122 4677.67 532.711 4673.66 535.35C4669.65 537.883 4664.37 539.15 4657.82 539.15C4645.47 539.15 4636.03 534.875 4629.48 526.325C4623.04 517.669 4619.82 506.164 4619.82 491.808C4619.82 482.625 4621.25 474.497 4624.1 467.425C4626.95 460.247 4631.22 454.653 4636.92 450.642C4642.62 446.631 4649.75 444.625 4658.3 444.625C4664.84 444.625 4670.07 445.892 4673.97 448.425C4677.99 450.853 4680.94 454.178 4682.84 458.4H4686.64V447H4710.39V534.875C4710.39 547.964 4706.8 558.097 4699.62 565.275C4692.45 572.453 4681.36 576.042 4666.37 576.042ZM4664.79 521.1C4671.02 521.1 4675.87 518.461 4679.36 513.183C4682.95 507.906 4684.74 500.781 4684.74 491.808C4684.74 482.836 4682.95 475.764 4679.36 470.592C4675.87 465.314 4671.02 462.675 4664.79 462.675C4658.99 462.675 4654.34 465.103 4650.86 469.958C4647.48 474.814 4645.79 482.097 4645.79 491.808C4645.79 501.731 4647.48 509.119 4650.86 513.975C4654.34 518.725 4658.99 521.1 4664.79 521.1Z" fill="white"/>
<path d="M12.0333 1000V876.5H64.4417C74.9972 876.5 83.5472 878.031 90.0917 881.092C96.7417 884.047 101.597 888.164 104.658 893.442C107.825 898.614 109.408 904.631 109.408 911.492C109.408 919.303 107.35 926.058 103.233 931.758C99.1167 937.458 93.0472 941.522 85.025 943.95L112.733 999.05V1000H84.55L59.375 947.75H38.3167V1000H12.0333ZM38.3167 928.433H60.6417C67.5028 928.433 72.8333 927.272 76.6333 924.95C80.5389 922.628 82.4917 918.458 82.4917 912.442C82.4917 906.319 80.5389 902.15 76.6333 899.933C72.7278 897.611 67.3972 896.45 60.6417 896.45H38.3167V928.433ZM167.054 1002.38C152.065 1002.38 140.612 997.889 132.696 988.917C124.885 979.944 120.979 967.753 120.979 952.342C120.979 941.997 122.721 933.131 126.204 925.742C129.793 918.353 134.965 912.653 141.721 908.642C148.582 904.631 156.921 902.625 166.737 902.625C180.882 902.625 191.701 906.9 199.196 915.45C206.796 924 210.596 936.561 210.596 953.133V958.517H145.996C146.523 966.539 148.582 972.872 152.171 977.517C155.865 982.056 160.826 984.325 167.054 984.325C172.015 984.325 175.973 982.847 178.929 979.892C181.99 976.936 183.996 973.506 184.946 969.6H209.329C208.379 975.406 206.268 980.789 202.996 985.75C199.723 990.711 195.132 994.722 189.221 997.783C183.31 1000.84 175.921 1002.38 167.054 1002.38ZM145.996 942.367H185.579C185.157 935.189 183.362 929.647 180.196 925.742C177.029 921.731 172.49 919.725 166.579 919.725C160.773 919.725 156.076 921.625 152.487 925.425C149.004 929.119 146.84 934.767 145.996 942.367ZM258.803 1001.9C250.148 1001.9 243.023 999.789 237.428 995.567C231.834 991.239 227.664 985.328 224.92 977.833C222.175 970.339 220.803 961.842 220.803 952.342C220.803 942.525 222.175 933.922 224.92 926.533C227.77 919.144 231.992 913.392 237.587 909.275C243.287 905.158 250.359 903.1 258.803 903.1C265.031 903.1 270.098 904.208 274.003 906.425C278.014 908.642 281.181 911.65 283.503 915.45H287.303V873.333H312.953V1000H289.203V987.65H285.403C283.187 991.661 279.967 995.039 275.745 997.783C271.523 1000.53 265.875 1001.9 258.803 1001.9ZM266.087 983.85C272.525 983.85 277.645 981.053 281.445 975.458C285.35 969.758 287.303 962.106 287.303 952.5C287.303 942.789 285.35 935.136 281.445 929.542C277.645 923.947 272.525 921.15 266.087 921.15C260.281 921.15 255.689 923.789 252.312 929.067C249.039 934.239 247.403 942.05 247.403 952.5C247.403 962.95 249.039 970.814 252.312 976.092C255.689 981.264 260.281 983.85 266.087 983.85ZM404.069 1000V897.4H367.494V876.5H467.244V897.4H430.669V1000H404.069ZM514.027 1002.38C499.038 1002.38 487.585 997.889 479.668 988.917C471.857 979.944 467.952 967.753 467.952 952.342C467.952 941.997 469.693 933.131 473.177 925.742C476.766 918.353 481.938 912.653 488.693 908.642C495.554 904.631 503.893 902.625 513.71 902.625C527.854 902.625 538.674 906.9 546.168 915.45C553.768 924 557.568 936.561 557.568 953.133V958.517H492.968C493.496 966.539 495.554 972.872 499.143 977.517C502.838 982.056 507.799 984.325 514.027 984.325C518.988 984.325 522.946 982.847 525.902 979.892C528.963 976.936 530.968 973.506 531.918 969.6H556.302C555.352 975.406 553.241 980.789 549.968 985.75C546.696 990.711 542.104 994.722 536.193 997.783C530.282 1000.84 522.893 1002.38 514.027 1002.38ZM492.968 942.367H532.552C532.129 935.189 530.335 929.647 527.168 925.742C524.002 921.731 519.463 919.725 513.552 919.725C507.746 919.725 503.049 921.625 499.46 925.425C495.977 929.119 493.813 934.767 492.968 942.367ZM606.409 1001.9C597.543 1001.9 590.259 999.789 584.559 995.567C578.859 991.239 574.637 985.328 571.893 977.833C569.148 970.339 567.776 961.842 567.776 952.342C567.776 942.525 569.148 933.922 571.893 926.533C574.743 919.144 579.018 913.392 584.718 909.275C590.418 905.158 597.595 903.1 606.251 903.1C612.901 903.1 618.337 904.419 622.559 907.058C626.887 909.592 630.159 913.022 632.376 917.35H636.176V905H659.926V1000H636.176V987.65H632.376C630.159 991.661 626.94 995.039 622.718 997.783C618.495 1000.53 613.059 1001.9 606.409 1001.9ZM613.059 983.85C619.498 983.85 624.618 981.053 628.418 975.458C632.323 969.758 634.276 962.106 634.276 952.5C634.276 942.789 632.323 935.136 628.418 929.542C624.618 923.947 619.498 921.15 613.059 921.15C607.254 921.15 602.662 923.789 599.284 929.067C596.012 934.239 594.376 942.05 594.376 952.5C594.376 962.95 596.012 970.814 599.284 976.092C602.662 981.264 607.254 983.85 613.059 983.85ZM683.396 1000V905H707.146V919.25H710.946C712.741 914.711 715.591 910.806 719.496 907.533C723.402 904.261 729.049 902.625 736.438 902.625C742.982 902.625 748.419 904.103 752.746 907.058C757.18 909.908 760.557 913.972 762.88 919.25H766.68C768.58 914.5 771.535 910.542 775.546 907.375C779.557 904.208 785.099 902.625 792.171 902.625C802.41 902.625 810.063 905.95 815.13 912.6C820.196 919.25 822.73 928.275 822.73 939.675V1000H797.08V943.95C797.08 937.511 796.024 932.497 793.913 928.908C791.802 925.319 788.371 923.525 783.621 923.525C777.816 923.525 773.382 925.953 770.321 930.808C767.366 935.664 765.888 941.628 765.888 948.7V1000H740.238V943.95C740.238 937.511 739.182 932.497 737.071 928.908C734.96 925.319 731.53 923.525 726.78 923.525C721.08 923.525 716.699 925.953 713.638 930.808C710.577 935.664 709.046 941.628 709.046 948.7V1000H683.396ZM844.822 1000V905H870.472V1000H844.822ZM857.647 894.075C853.108 894.075 849.678 892.914 847.355 890.592C845.033 888.164 843.872 885.05 843.872 881.25C843.872 877.45 845.033 874.389 847.355 872.067C849.678 869.639 853.108 868.425 857.647 868.425C862.186 868.425 865.617 869.639 867.939 872.067C870.261 874.389 871.422 877.45 871.422 881.25C871.422 885.05 870.261 888.164 867.939 890.592C865.617 892.914 862.186 894.075 857.647 894.075ZM893.992 1000V905H917.742V919.25H921.542C923.442 914.5 926.345 910.542 930.25 907.375C934.262 904.208 940.12 902.625 947.825 902.625C958.381 902.625 966.298 905.95 971.575 912.6C976.853 919.25 979.492 928.275 979.492 939.675V1000H953.842V943.95C953.842 937.406 952.681 932.392 950.359 928.908C948.037 925.319 944.237 923.525 938.959 923.525C932.837 923.525 928.087 925.953 924.709 930.808C921.331 935.558 919.642 941.522 919.642 948.7V1000H893.992ZM1041.83 1034.04C1032.96 1034.04 1025.78 1032.93 1020.29 1030.72C1014.91 1028.61 1010.74 1025.91 1007.78 1022.64C1004.93 1019.37 1002.93 1016.04 1001.77 1012.67C1000.61 1009.29 999.92 1006.33 999.709 1003.8H1024.73C1025.25 1006.86 1026.73 1009.66 1029.16 1012.19C1031.59 1014.73 1035.7 1015.99 1041.51 1015.99C1048.05 1015.99 1052.96 1014.04 1056.23 1010.13C1059.51 1006.33 1061.14 1000.9 1061.14 993.825V982.583H1057.34C1055.86 987.122 1053.12 990.711 1049.11 993.35C1045.1 995.883 1039.82 997.15 1033.28 997.15C1020.93 997.15 1011.48 992.875 1004.93 984.325C998.495 975.669 995.276 964.164 995.276 949.808C995.276 940.625 996.701 932.497 999.551 925.425C1002.4 918.247 1006.68 912.653 1012.38 908.642C1018.08 904.631 1025.2 902.625 1033.75 902.625C1040.3 902.625 1045.52 903.892 1049.43 906.425C1053.44 908.853 1056.39 912.178 1058.29 916.4H1062.09V905H1085.84V992.875C1085.84 1005.96 1082.25 1016.1 1075.08 1023.28C1067.9 1030.45 1056.81 1034.04 1041.83 1034.04ZM1040.24 979.1C1046.47 979.1 1051.33 976.461 1054.81 971.183C1058.4 965.906 1060.19 958.781 1060.19 949.808C1060.19 940.836 1058.4 933.764 1054.81 928.592C1051.33 923.314 1046.47 920.675 1040.24 920.675C1034.44 920.675 1029.79 923.103 1026.31 927.958C1022.93 932.814 1021.24 940.097 1021.24 949.808C1021.24 959.731 1022.93 967.119 1026.31 971.975C1029.79 976.725 1034.44 979.1 1040.24 979.1Z" fill="white"/>
<path d="M3158.28 1553.38C3140.33 1553.38 3126.4 1547.73 3116.47 1536.43C3106.66 1525.14 3101.75 1509.41 3101.75 1489.25C3101.75 1469.3 3106.61 1453.62 3116.32 1442.23C3126.03 1430.82 3139.96 1425.12 3158.12 1425.12C3168.99 1425.12 3178.28 1427.18 3185.98 1431.3C3193.69 1435.31 3199.71 1440.91 3204.03 1448.08C3208.36 1455.26 3210.89 1463.49 3211.63 1472.78H3185.19C3184.35 1464.13 3181.55 1457.37 3176.8 1452.52C3172.05 1447.56 3165.88 1445.07 3158.28 1445.07C3148.67 1445.07 3141.44 1448.93 3136.58 1456.63C3131.73 1464.34 3129.3 1475.26 3129.3 1489.41C3129.3 1504.08 3131.78 1515.11 3136.74 1522.5C3141.81 1529.78 3148.93 1533.42 3158.12 1533.42C3166.03 1533.42 3172.31 1530.89 3176.96 1525.82C3181.71 1520.76 3184.45 1514.06 3185.19 1505.72H3211.63C3210.89 1515.01 3208.36 1523.24 3204.03 1530.42C3199.71 1537.59 3193.69 1543.24 3185.98 1547.36C3178.38 1551.37 3169.15 1553.38 3158.28 1553.38ZM3235.22 1551C3232.27 1547.62 3230.16 1543.82 3228.89 1539.6C3227.73 1535.27 3227.15 1529.62 3227.15 1522.66V1424.33H3252.8V1519.97C3252.8 1527.99 3253.7 1534.27 3255.49 1538.81C3257.29 1543.24 3259.66 1546.99 3262.62 1550.05V1551H3235.22ZM3317.73 1553.38C3302 1553.38 3290.23 1548.89 3282.42 1539.92C3274.71 1530.84 3270.86 1518.7 3270.86 1503.5C3270.86 1488.3 3274.71 1476.21 3282.42 1467.24C3290.23 1458.16 3302 1453.63 3317.73 1453.63C3333.45 1453.63 3345.17 1458.16 3352.88 1467.24C3360.69 1476.21 3364.59 1488.3 3364.59 1503.5C3364.59 1518.7 3360.69 1530.84 3352.88 1539.92C3345.17 1548.89 3333.45 1553.38 3317.73 1553.38ZM3317.73 1536.27C3324.69 1536.27 3329.81 1533.53 3333.08 1528.04C3336.36 1522.55 3337.99 1514.32 3337.99 1503.34C3337.99 1492.47 3336.36 1484.34 3333.08 1478.96C3329.81 1473.47 3324.69 1470.72 3317.73 1470.72C3310.76 1470.72 3305.64 1473.47 3302.37 1478.96C3299.1 1484.34 3297.46 1492.47 3297.46 1503.34C3297.46 1514.32 3299.1 1522.55 3302.37 1528.04C3305.64 1533.53 3310.76 1536.27 3317.73 1536.27ZM3412.37 1553.38C3401.82 1553.38 3393.85 1550.05 3388.46 1543.4C3383.08 1536.75 3380.39 1527.72 3380.39 1516.32V1456H3406.04V1512.05C3406.04 1518.49 3407.2 1523.5 3409.52 1527.09C3411.85 1530.68 3415.59 1532.47 3420.76 1532.47C3426.99 1532.47 3431.8 1530.05 3435.17 1525.19C3438.55 1520.34 3440.24 1514.37 3440.24 1507.3V1456H3465.89V1551H3442.77V1536.75H3438.97C3437.39 1541.5 3434.49 1545.46 3430.26 1548.62C3426.04 1551.79 3420.08 1553.38 3412.37 1553.38ZM3520.94 1552.9C3512.28 1552.9 3505.16 1550.79 3499.56 1546.57C3493.97 1542.24 3489.8 1536.33 3487.06 1528.83C3484.31 1521.34 3482.94 1512.84 3482.94 1503.34C3482.94 1493.52 3484.31 1484.92 3487.06 1477.53C3489.91 1470.14 3494.13 1464.39 3499.72 1460.27C3505.42 1456.16 3512.5 1454.1 3520.94 1454.1C3527.17 1454.1 3532.23 1455.21 3536.14 1457.42C3540.15 1459.64 3543.32 1462.65 3545.64 1466.45H3549.44V1424.33H3575.09V1551H3551.34V1538.65H3547.54C3545.32 1542.66 3542.1 1546.04 3537.88 1548.78C3533.66 1551.53 3528.01 1552.9 3520.94 1552.9ZM3528.22 1534.85C3534.66 1534.85 3539.78 1532.05 3543.58 1526.46C3547.49 1520.76 3549.44 1513.11 3549.44 1503.5C3549.44 1493.79 3547.49 1486.14 3543.58 1480.54C3539.78 1474.95 3534.66 1472.15 3528.22 1472.15C3522.42 1472.15 3517.83 1474.79 3514.45 1480.07C3511.18 1485.24 3509.54 1493.05 3509.54 1503.5C3509.54 1513.95 3511.18 1521.81 3514.45 1527.09C3517.83 1532.26 3522.42 1534.85 3528.22 1534.85ZM3682.36 1553.38C3672.75 1553.38 3664.62 1552.11 3657.97 1549.57C3651.43 1546.94 3646.1 1543.51 3641.98 1539.28C3637.97 1535.06 3634.96 1530.47 3632.96 1525.51C3631.06 1520.44 3629.95 1515.48 3629.63 1510.62H3654.33C3654.54 1514.42 3655.7 1518.07 3657.81 1521.55C3659.93 1525.03 3663.09 1527.88 3667.31 1530.1C3671.54 1532.32 3676.81 1533.42 3683.15 1533.42C3690.01 1533.42 3695.08 1532.05 3698.35 1529.31C3701.73 1526.46 3703.41 1522.76 3703.41 1518.23C3703.41 1513.9 3701.94 1510.36 3698.98 1507.62C3696.13 1504.87 3692.33 1502.71 3687.58 1501.12L3669.69 1495.11C3663.99 1493.21 3658.5 1490.89 3653.22 1488.14C3648.05 1485.29 3643.78 1481.6 3640.4 1477.06C3637.02 1472.41 3635.33 1466.5 3635.33 1459.32C3635.33 1451.94 3637.18 1445.71 3640.87 1440.64C3644.67 1435.57 3649.84 1431.72 3656.39 1429.08C3663.04 1426.44 3670.64 1425.12 3679.19 1425.12C3690.17 1425.12 3698.82 1426.97 3705.16 1430.67C3711.49 1434.36 3716.08 1439.06 3718.93 1444.76C3721.89 1450.35 3723.68 1456.21 3724.31 1462.33H3699.61C3699.4 1459.38 3698.56 1456.58 3697.08 1453.94C3695.71 1451.2 3693.49 1448.98 3690.43 1447.29C3687.37 1445.6 3683.25 1444.76 3678.08 1444.76C3672.28 1444.76 3667.95 1445.97 3665.1 1448.4C3662.35 1450.83 3660.98 1453.89 3660.98 1457.58C3660.98 1461.59 3662.41 1464.81 3665.26 1467.24C3668.21 1469.67 3672.12 1471.73 3676.97 1473.42L3694.86 1479.43C3700.67 1481.33 3706.16 1483.71 3711.33 1486.56C3716.5 1489.41 3720.73 1493.21 3724 1497.96C3727.38 1502.6 3729.06 1508.72 3729.06 1516.32C3729.06 1527.83 3724.95 1536.91 3716.71 1543.56C3708.59 1550.1 3697.13 1553.38 3682.36 1553.38ZM3787.11 1553.38C3772.12 1553.38 3760.67 1548.89 3752.75 1539.92C3744.94 1530.94 3741.04 1518.75 3741.04 1503.34C3741.04 1493 3742.78 1484.13 3746.26 1476.74C3749.85 1469.35 3755.02 1463.65 3761.78 1459.64C3768.64 1455.63 3776.98 1453.63 3786.79 1453.63C3800.94 1453.63 3811.76 1457.9 3819.25 1466.45C3826.85 1475 3830.65 1487.56 3830.65 1504.13V1509.52H3766.05C3766.58 1517.54 3768.64 1523.87 3772.23 1528.52C3775.92 1533.06 3780.88 1535.32 3787.11 1535.32C3792.07 1535.32 3796.03 1533.85 3798.99 1530.89C3802.05 1527.94 3804.05 1524.51 3805 1520.6H3829.39C3828.44 1526.41 3826.32 1531.79 3823.05 1536.75C3819.78 1541.71 3815.19 1545.72 3809.28 1548.78C3803.37 1551.84 3795.98 1553.38 3787.11 1553.38ZM3766.05 1493.37H3805.64C3805.21 1486.19 3803.42 1480.65 3800.25 1476.74C3797.09 1472.73 3792.55 1470.72 3786.64 1470.72C3780.83 1470.72 3776.13 1472.62 3772.54 1476.42C3769.06 1480.12 3766.9 1485.77 3766.05 1493.37ZM3885.98 1553.38C3871.31 1553.38 3860.12 1548.89 3852.42 1539.92C3844.71 1530.94 3840.86 1518.81 3840.86 1503.5C3840.86 1487.35 3844.92 1475 3853.05 1466.45C3861.28 1457.9 3872.37 1453.63 3886.3 1453.63C3898.86 1453.63 3908.73 1456.95 3915.91 1463.6C3923.09 1470.25 3927.36 1479.33 3928.73 1490.83H3903.4C3902.66 1484.61 3900.82 1479.86 3897.86 1476.58C3894.9 1473.31 3891.1 1471.67 3886.46 1471.67C3880.34 1471.67 3875.64 1474.42 3872.37 1479.91C3869.1 1485.4 3867.46 1493.26 3867.46 1503.5C3867.46 1513.74 3869.04 1521.6 3872.21 1527.09C3875.48 1532.58 3880.18 1535.32 3886.3 1535.32C3891.05 1535.32 3894.9 1533.69 3897.86 1530.42C3900.82 1527.04 3902.66 1522.29 3903.4 1516.17H3928.73C3927.26 1527.46 3922.88 1536.49 3915.59 1543.24C3908.42 1550 3898.55 1553.38 3885.98 1553.38ZM3976.06 1553.38C3965.51 1553.38 3957.54 1550.05 3952.16 1543.4C3946.77 1536.75 3944.08 1527.72 3944.08 1516.32V1456H3969.73V1512.05C3969.73 1518.49 3970.89 1523.5 3973.21 1527.09C3975.54 1530.68 3979.28 1532.47 3984.46 1532.47C3990.68 1532.47 3995.49 1530.05 3998.86 1525.19C4002.24 1520.34 4003.93 1514.37 4003.93 1507.3V1456H4029.58V1551H4006.46V1536.75H4002.66C4001.08 1541.5 3998.18 1545.46 3993.96 1548.62C3989.73 1551.79 3983.77 1553.38 3976.06 1553.38ZM4052.65 1551V1456H4076.08V1473.42H4079.88C4080.51 1470.25 4081.68 1467.29 4083.36 1464.55C4085.16 1461.7 4087.85 1459.43 4091.44 1457.74C4095.03 1455.95 4099.83 1455.05 4105.85 1455.05H4110.91V1478.17H4103.95C4094.98 1478.17 4088.43 1480.44 4084.31 1484.98C4080.3 1489.51 4078.3 1496.32 4078.3 1505.4V1551H4052.65ZM4127.37 1551V1456H4153.02V1551H4127.37ZM4140.19 1445.07C4135.66 1445.07 4132.22 1443.91 4129.9 1441.59C4127.58 1439.16 4126.42 1436.05 4126.42 1432.25C4126.42 1428.45 4127.58 1425.39 4129.9 1423.07C4132.22 1420.64 4135.66 1419.43 4140.19 1419.43C4144.73 1419.43 4148.16 1420.64 4150.49 1423.07C4152.81 1425.39 4153.97 1428.45 4153.97 1432.25C4153.97 1436.05 4152.81 1439.16 4150.49 1441.59C4148.16 1443.91 4144.73 1445.07 4140.19 1445.07ZM4190.47 1551C4188.04 1548.15 4186.09 1544.72 4184.61 1540.71C4183.24 1536.7 4182.56 1530.68 4182.56 1522.66V1474.05H4169.57V1456H4182.87V1432.25H4208.05V1456H4223.41V1474.05H4208.05V1519.97C4208.05 1528.31 4209 1534.69 4210.9 1539.12C4212.8 1543.56 4215.07 1547.2 4217.71 1550.05V1551H4190.47ZM4245.67 1582.67V1582.35C4248.31 1578.02 4251.16 1573.01 4254.22 1567.31C4257.28 1561.61 4259.97 1556.17 4262.29 1551L4229.68 1456.95V1456H4255.01L4264.83 1484.5C4266.41 1489.04 4267.99 1493.89 4269.58 1499.07C4271.16 1504.24 4272.74 1510.78 4274.33 1518.7H4278.13C4279.71 1510.78 4281.29 1504.24 4282.88 1499.07C4284.46 1493.89 4286.04 1489.04 4287.63 1484.5L4297.44 1456H4321.51V1456.95L4292.38 1538.02C4288.58 1548.68 4284.88 1557.76 4281.29 1565.25C4277.81 1572.85 4274.85 1578.66 4272.43 1582.67H4245.67ZM3098.27 1789V1788.05L3135.48 1665.5H3177.12L3214.48 1788.05V1789H3187.25L3157.32 1686.08H3153.53L3123.28 1789H3098.27ZM3129.14 1758.12L3134.68 1738.17H3176.17L3181.71 1758.12H3129.14ZM3261.26 1791.38C3250.71 1791.38 3242.26 1789.74 3235.93 1786.47C3229.7 1783.09 3225.11 1778.87 3222.16 1773.8C3219.31 1768.73 3217.67 1763.67 3217.25 1758.6H3241.63C3242.16 1761.34 3243.27 1763.88 3244.96 1766.2C3246.75 1768.42 3249.07 1770.16 3251.92 1771.42C3254.88 1772.69 3258.41 1773.32 3262.53 1773.32C3267.6 1773.32 3271.24 1772.48 3273.46 1770.79C3275.67 1769 3276.78 1766.73 3276.78 1763.98C3276.78 1761.45 3275.72 1759.34 3273.61 1757.65C3271.61 1755.86 3268.28 1754.22 3263.64 1752.74L3252.24 1748.94C3246.75 1747.04 3241.68 1744.98 3237.04 1742.77C3232.39 1740.44 3228.65 1737.49 3225.8 1733.9C3223.05 1730.31 3221.68 1725.67 3221.68 1719.97C3221.68 1711.52 3224.9 1704.71 3231.34 1699.54C3237.78 1694.26 3246.91 1691.63 3258.73 1691.63C3267.28 1691.63 3274.25 1692.94 3279.63 1695.58C3285.12 1698.22 3289.24 1701.76 3291.98 1706.19C3294.72 1710.52 3296.31 1715.32 3296.73 1720.6H3273.3C3272.77 1716.8 3271.19 1713.9 3268.55 1711.89C3265.91 1709.78 3262.32 1708.72 3257.78 1708.72C3253.66 1708.72 3250.55 1709.52 3248.44 1711.1C3246.43 1712.68 3245.43 1714.85 3245.43 1717.59C3245.43 1720.34 3246.54 1722.61 3248.76 1724.4C3250.97 1726.19 3254.35 1727.83 3258.89 1729.31L3270.29 1732.95C3275.78 1734.64 3280.79 1736.64 3285.33 1738.97C3289.97 1741.18 3293.67 1744.14 3296.41 1747.83C3299.16 1751.42 3300.53 1756.12 3300.53 1761.93C3300.53 1770.79 3297.15 1777.92 3290.4 1783.3C3283.75 1788.68 3274.04 1791.38 3261.26 1791.38ZM3351.44 1791.38C3340.88 1791.38 3332.44 1789.74 3326.11 1786.47C3319.88 1783.09 3315.29 1778.87 3312.33 1773.8C3309.48 1768.73 3307.84 1763.67 3307.42 1758.6H3331.81C3332.33 1761.34 3333.44 1763.88 3335.13 1766.2C3336.93 1768.42 3339.25 1770.16 3342.1 1771.42C3345.05 1772.69 3348.59 1773.32 3352.71 1773.32C3357.77 1773.32 3361.41 1772.48 3363.63 1770.79C3365.85 1769 3366.96 1766.73 3366.96 1763.98C3366.96 1761.45 3365.9 1759.34 3363.79 1757.65C3361.78 1755.86 3358.46 1754.22 3353.81 1752.74L3342.41 1748.94C3336.93 1747.04 3331.86 1744.98 3327.21 1742.77C3322.57 1740.44 3318.82 1737.49 3315.97 1733.9C3313.23 1730.31 3311.86 1725.67 3311.86 1719.97C3311.86 1711.52 3315.08 1704.71 3321.51 1699.54C3327.95 1694.26 3337.08 1691.63 3348.91 1691.63C3357.46 1691.63 3364.42 1692.94 3369.81 1695.58C3375.29 1698.22 3379.41 1701.76 3382.16 1706.19C3384.9 1710.52 3386.48 1715.32 3386.91 1720.6H3363.47C3362.94 1716.8 3361.36 1713.9 3358.72 1711.89C3356.08 1709.78 3352.49 1708.72 3347.96 1708.72C3343.84 1708.72 3340.73 1709.52 3338.61 1711.1C3336.61 1712.68 3335.61 1714.85 3335.61 1717.59C3335.61 1720.34 3336.71 1722.61 3338.93 1724.4C3341.15 1726.19 3344.53 1727.83 3349.06 1729.31L3360.46 1732.95C3365.95 1734.64 3370.97 1736.64 3375.51 1738.97C3380.15 1741.18 3383.84 1744.14 3386.59 1747.83C3389.33 1751.42 3390.71 1756.12 3390.71 1761.93C3390.71 1770.79 3387.33 1777.92 3380.57 1783.3C3373.92 1788.68 3364.21 1791.38 3351.44 1791.38ZM3445.89 1791.38C3430.9 1791.38 3419.45 1786.89 3411.53 1777.92C3403.72 1768.94 3399.81 1756.75 3399.81 1741.34C3399.81 1731 3401.56 1722.13 3405.04 1714.74C3408.63 1707.35 3413.8 1701.65 3420.56 1697.64C3427.42 1693.63 3435.76 1691.63 3445.57 1691.63C3459.72 1691.63 3470.54 1695.9 3478.03 1704.45C3485.63 1713 3489.43 1725.56 3489.43 1742.13V1747.52H3424.83C3425.36 1755.54 3427.42 1761.87 3431.01 1766.52C3434.7 1771.06 3439.66 1773.32 3445.89 1773.32C3450.85 1773.32 3454.81 1771.85 3457.76 1768.89C3460.83 1765.94 3462.83 1762.51 3463.78 1758.6H3488.16C3487.21 1764.41 3485.1 1769.79 3481.83 1774.75C3478.56 1779.71 3473.97 1783.72 3468.06 1786.78C3462.15 1789.84 3454.76 1791.38 3445.89 1791.38ZM3424.83 1731.37H3464.41C3463.99 1724.19 3462.2 1718.65 3459.03 1714.74C3455.86 1710.73 3451.33 1708.72 3445.41 1708.72C3439.61 1708.72 3434.91 1710.62 3431.32 1714.42C3427.84 1718.12 3425.68 1723.77 3424.83 1731.37ZM3541.44 1791.38C3530.88 1791.38 3522.44 1789.74 3516.11 1786.47C3509.88 1783.09 3505.29 1778.87 3502.33 1773.8C3499.48 1768.73 3497.84 1763.67 3497.42 1758.6H3521.81C3522.33 1761.34 3523.44 1763.88 3525.13 1766.2C3526.93 1768.42 3529.25 1770.16 3532.1 1771.42C3535.05 1772.69 3538.59 1773.32 3542.71 1773.32C3547.77 1773.32 3551.41 1772.48 3553.63 1770.79C3555.85 1769 3556.96 1766.73 3556.96 1763.98C3556.96 1761.45 3555.9 1759.34 3553.79 1757.65C3551.78 1755.86 3548.46 1754.22 3543.81 1752.74L3532.41 1748.94C3526.93 1747.04 3521.86 1744.98 3517.21 1742.77C3512.57 1740.44 3508.82 1737.49 3505.97 1733.9C3503.23 1730.31 3501.86 1725.67 3501.86 1719.97C3501.86 1711.52 3505.08 1704.71 3511.51 1699.54C3517.95 1694.26 3527.08 1691.63 3538.91 1691.63C3547.46 1691.63 3554.42 1692.94 3559.81 1695.58C3565.29 1698.22 3569.41 1701.76 3572.16 1706.19C3574.9 1710.52 3576.48 1715.32 3576.91 1720.6H3553.47C3552.94 1716.8 3551.36 1713.9 3548.72 1711.89C3546.08 1709.78 3542.49 1708.72 3537.96 1708.72C3533.84 1708.72 3530.73 1709.52 3528.61 1711.1C3526.61 1712.68 3525.61 1714.85 3525.61 1717.59C3525.61 1720.34 3526.71 1722.61 3528.93 1724.4C3531.15 1726.19 3534.53 1727.83 3539.06 1729.31L3550.46 1732.95C3555.95 1734.64 3560.97 1736.64 3565.51 1738.97C3570.15 1741.18 3573.84 1744.14 3576.59 1747.83C3579.33 1751.42 3580.71 1756.12 3580.71 1761.93C3580.71 1770.79 3577.33 1777.92 3570.57 1783.3C3563.92 1788.68 3554.21 1791.38 3541.44 1791.38ZM3631.61 1791.38C3621.06 1791.38 3612.61 1789.74 3606.28 1786.47C3600.05 1783.09 3595.46 1778.87 3592.51 1773.8C3589.66 1768.73 3588.02 1763.67 3587.6 1758.6H3611.98C3612.51 1761.34 3613.62 1763.88 3615.31 1766.2C3617.1 1768.42 3619.42 1770.16 3622.27 1771.42C3625.23 1772.69 3628.76 1773.32 3632.88 1773.32C3637.95 1773.32 3641.59 1772.48 3643.81 1770.79C3646.02 1769 3647.13 1766.73 3647.13 1763.98C3647.13 1761.45 3646.08 1759.34 3643.96 1757.65C3641.96 1755.86 3638.63 1754.22 3633.99 1752.74L3622.59 1748.94C3617.1 1747.04 3612.03 1744.98 3607.39 1742.77C3602.75 1740.44 3599 1737.49 3596.15 1733.9C3593.4 1730.31 3592.03 1725.67 3592.03 1719.97C3592.03 1711.52 3595.25 1704.71 3601.69 1699.54C3608.13 1694.26 3617.26 1691.63 3629.08 1691.63C3637.63 1691.63 3644.6 1692.94 3649.98 1695.58C3655.47 1698.22 3659.59 1701.76 3662.33 1706.19C3665.08 1710.52 3666.66 1715.32 3667.08 1720.6H3643.65C3643.12 1716.8 3641.54 1713.9 3638.9 1711.89C3636.26 1709.78 3632.67 1708.72 3628.13 1708.72C3624.01 1708.72 3620.9 1709.52 3618.79 1711.1C3616.78 1712.68 3615.78 1714.85 3615.78 1717.59C3615.78 1720.34 3616.89 1722.61 3619.11 1724.4C3621.32 1726.19 3624.7 1727.83 3629.24 1729.31L3640.64 1732.95C3646.13 1734.64 3651.14 1736.64 3655.68 1738.97C3660.33 1741.18 3664.02 1744.14 3666.76 1747.83C3669.51 1751.42 3670.88 1756.12 3670.88 1761.93C3670.88 1770.79 3667.5 1777.92 3660.75 1783.3C3654.1 1788.68 3644.39 1791.38 3631.61 1791.38ZM3686.32 1789V1694H3710.07V1708.25H3713.87C3715.67 1703.71 3718.52 1699.81 3722.42 1696.53C3726.33 1693.26 3731.98 1691.63 3739.37 1691.63C3745.91 1691.63 3751.35 1693.1 3755.67 1696.06C3760.11 1698.91 3763.49 1702.97 3765.81 1708.25H3769.61C3771.51 1703.5 3774.46 1699.54 3778.47 1696.37C3782.49 1693.21 3788.03 1691.63 3795.1 1691.63C3805.34 1691.63 3812.99 1694.95 3818.06 1701.6C3823.12 1708.25 3825.66 1717.28 3825.66 1728.68V1789H3800.01V1732.95C3800.01 1726.51 3798.95 1721.5 3796.84 1717.91C3794.73 1714.32 3791.3 1712.52 3786.55 1712.52C3780.74 1712.52 3776.31 1714.95 3773.25 1719.81C3770.29 1724.66 3768.82 1730.63 3768.82 1737.7V1789H3743.17V1732.95C3743.17 1726.51 3742.11 1721.5 3740 1717.91C3737.89 1714.32 3734.46 1712.52 3729.71 1712.52C3724.01 1712.52 3719.63 1714.95 3716.57 1719.81C3713.5 1724.66 3711.97 1730.63 3711.97 1737.7V1789H3686.32ZM3887.49 1791.38C3872.5 1791.38 3861.05 1786.89 3853.13 1777.92C3845.32 1768.94 3841.42 1756.75 3841.42 1741.34C3841.42 1731 3843.16 1722.13 3846.64 1714.74C3850.23 1707.35 3855.4 1701.65 3862.16 1697.64C3869.02 1693.63 3877.36 1691.63 3887.17 1691.63C3901.32 1691.63 3912.14 1695.9 3919.63 1704.45C3927.23 1713 3931.03 1725.56 3931.03 1742.13V1747.52H3866.43C3866.96 1755.54 3869.02 1761.87 3872.61 1766.52C3876.3 1771.06 3881.26 1773.32 3887.49 1773.32C3892.45 1773.32 3896.41 1771.85 3899.37 1768.89C3902.43 1765.94 3904.43 1762.51 3905.38 1758.6H3929.77C3928.82 1764.41 3926.71 1769.79 3923.43 1774.75C3920.16 1779.71 3915.57 1783.72 3909.66 1786.78C3903.75 1789.84 3896.36 1791.38 3887.49 1791.38ZM3866.43 1731.37H3906.02C3905.59 1724.19 3903.8 1718.65 3900.63 1714.74C3897.47 1710.73 3892.93 1708.72 3887.02 1708.72C3881.21 1708.72 3876.51 1710.62 3872.92 1714.42C3869.44 1718.12 3867.28 1723.77 3866.43 1731.37ZM3947.57 1789V1694H3971.32V1708.25H3975.12C3977.02 1703.5 3979.93 1699.54 3983.83 1696.37C3987.84 1693.21 3993.7 1691.63 4001.41 1691.63C4011.96 1691.63 4019.88 1694.95 4025.16 1701.6C4030.44 1708.25 4033.07 1717.28 4033.07 1728.68V1789H4007.42V1732.95C4007.42 1726.41 4006.26 1721.39 4003.94 1717.91C4001.62 1714.32 3997.82 1712.52 3992.54 1712.52C3986.42 1712.52 3981.67 1714.95 3978.29 1719.81C3974.91 1724.56 3973.22 1730.52 3973.22 1737.7V1789H3947.57ZM4069.12 1789C4066.7 1786.15 4064.74 1782.72 4063.27 1778.71C4061.89 1774.7 4061.21 1768.68 4061.21 1760.66V1712.05H4048.22V1694H4061.52V1670.25H4086.7V1694H4102.06V1712.05H4086.7V1757.97C4086.7 1766.31 4087.65 1772.69 4089.55 1777.12C4091.45 1781.56 4093.72 1785.2 4096.36 1788.05V1789H4069.12ZM4153.93 1791.38C4143.37 1791.38 4134.93 1789.74 4128.6 1786.47C4122.37 1783.09 4117.78 1778.87 4114.82 1773.8C4111.97 1768.73 4110.33 1763.67 4109.91 1758.6H4134.3C4134.82 1761.34 4135.93 1763.88 4137.62 1766.2C4139.42 1768.42 4141.74 1770.16 4144.59 1771.42C4147.54 1772.69 4151.08 1773.32 4155.2 1773.32C4160.26 1773.32 4163.9 1772.48 4166.12 1770.79C4168.34 1769 4169.45 1766.73 4169.45 1763.98C4169.45 1761.45 4168.39 1759.34 4166.28 1757.65C4164.27 1755.86 4160.95 1754.22 4156.3 1752.74L4144.9 1748.94C4139.42 1747.04 4134.35 1744.98 4129.7 1742.77C4125.06 1740.44 4121.31 1737.49 4118.46 1733.9C4115.72 1730.31 4114.35 1725.67 4114.35 1719.97C4114.35 1711.52 4117.57 1704.71 4124 1699.54C4130.44 1694.26 4139.57 1691.63 4151.4 1691.63C4159.95 1691.63 4166.91 1692.94 4172.3 1695.58C4177.78 1698.22 4181.9 1701.76 4184.65 1706.19C4187.39 1710.52 4188.97 1715.32 4189.4 1720.6H4165.96C4165.43 1716.8 4163.85 1713.9 4161.21 1711.89C4158.57 1709.78 4154.98 1708.72 4150.45 1708.72C4146.33 1708.72 4143.22 1709.52 4141.1 1711.1C4139.1 1712.68 4138.1 1714.85 4138.1 1717.59C4138.1 1720.34 4139.2 1722.61 4141.42 1724.4C4143.64 1726.19 4147.02 1727.83 4151.55 1729.31L4162.95 1732.95C4168.44 1734.64 4173.46 1736.64 4178 1738.97C4182.64 1741.18 4186.33 1744.14 4189.08 1747.83C4191.82 1751.42 4193.2 1756.12 4193.2 1761.93C4193.2 1770.79 4189.82 1777.92 4183.06 1783.3C4176.41 1788.68 4166.7 1791.38 4153.93 1791.38Z" fill="white"/>
</svg>
