<svg width="500" height="500" viewBox="0 0 500 500" fill="none" xmlns="http://www.w3.org/2000/svg">
<mask id="path-1-inside-1_1_419" fill="white">
<path d="M352.5 283.125C320.75 283.125 295 308.875 295 340.625C295 372.375 320.75 398.125 352.5 398.125C384.25 398.125 410 372.375 410 340.625C410 308.875 384.25 283.125 352.5 283.125ZM352.5 361.875C340.75 361.875 331.25 352.375 331.25 340.625C331.25 328.875 340.75 319.375 352.5 319.375C364.25 319.375 373.75 328.875 373.75 340.625C373.75 352.375 364.25 361.875 352.5 361.875ZM480 35H347.5C347.5 15.6875 331.812 0 312.5 0H262.5C243.188 0 227.5 15.6875 227.5 35H95C83.9375 35 75 43.9375 75 55V180H20C8.9375 180 0 188.938 0 200V480C0 491.062 8.9375 500 20 500H230C241.062 500 250 491.062 250 480V470H480C491.062 470 500 461.062 500 450V55C500 43.9375 491.062 35 480 35ZM222.5 75H267.5V40H307.5V75H352.5V105H222.5V75ZM210 460H40V315H210V460ZM210 275H40V220H210V275ZM455 425H250V200C250 188.938 241.062 180 230 180H120V80H182.5V145H392.5V80H455V425ZM370 185V245C370 247.75 372.25 250 375 250H405C407.75 250 410 247.75 410 245V185C410 182.25 407.75 180 405 180H375C372.25 180 370 182.25 370 185ZM300 250H330C332.75 250 335 247.75 335 245V210C335 207.25 332.75 205 330 205H300C297.25 205 295 207.25 295 210V245C295 247.75 297.25 250 300 250Z"/>
</mask>
<path d="M347.5 35H337.5V45H347.5V35ZM227.5 35V45H237.5V35H227.5ZM75 180V190H85V180H75ZM250 470V460H240V470H250ZM222.5 75V65H212.5V75H222.5ZM267.5 75V85H277.5V75H267.5ZM267.5 40V30H257.5V40H267.5ZM307.5 40H317.5V30H307.5V40ZM307.5 75H297.5V85H307.5V75ZM352.5 75H362.5V65H352.5V75ZM352.5 105V115H362.5V105H352.5ZM222.5 105H212.5V115H222.5V105ZM210 460V470H220V460H210ZM40 460H30V470H40V460ZM40 315V305H30V315H40ZM210 315H220V305H210V315ZM210 275V285H220V275H210ZM40 275H30V285H40V275ZM40 220V210H30V220H40ZM210 220H220V210H210V220ZM455 425V435H465V425H455ZM250 425H240V435H250V425ZM120 180H110V190H120V180ZM120 80V70H110V80H120ZM182.5 80H192.5V70H182.5V80ZM182.5 145H172.5V155H182.5V145ZM392.5 145V155H402.5V145H392.5ZM392.5 80V70H382.5V80H392.5ZM455 80H465V70H455V80ZM352.5 273.125C315.227 273.125 285 303.352 285 340.625H305C305 314.398 326.273 293.125 352.5 293.125V273.125ZM285 340.625C285 377.898 315.227 408.125 352.5 408.125V388.125C326.273 388.125 305 366.852 305 340.625H285ZM352.5 408.125C389.773 408.125 420 377.898 420 340.625H400C400 366.852 378.727 388.125 352.5 388.125V408.125ZM420 340.625C420 303.352 389.773 273.125 352.5 273.125V293.125C378.727 293.125 400 314.398 400 340.625H420ZM352.5 351.875C346.273 351.875 341.25 346.852 341.25 340.625H321.25C321.25 357.898 335.227 371.875 352.5 371.875V351.875ZM341.25 340.625C341.25 334.398 346.273 329.375 352.5 329.375V309.375C335.227 309.375 321.25 323.352 321.25 340.625H341.25ZM352.5 329.375C358.727 329.375 363.75 334.398 363.75 340.625H383.75C383.75 323.352 369.773 309.375 352.5 309.375V329.375ZM363.75 340.625C363.75 346.852 358.727 351.875 352.5 351.875V371.875C369.773 371.875 383.75 357.898 383.75 340.625H363.75ZM480 25H347.5V45H480V25ZM357.5 35C357.5 10.1647 337.335 -10 312.5 -10V10C326.29 10 337.5 21.2103 337.5 35H357.5ZM312.5 -10H262.5V10H312.5V-10ZM262.5 -10C237.665 -10 217.5 10.1647 217.5 35H237.5C237.5 21.2103 248.71 10 262.5 10V-10ZM227.5 25H95V45H227.5V25ZM95 25C78.4146 25 65 38.4147 65 55H85C85 49.4603 89.4604 45 95 45V25ZM65 55V180H85V55H65ZM75 170H20V190H75V170ZM20 170C3.41465 170 -10 183.415 -10 200H10C10 194.46 14.4603 190 20 190V170ZM-10 200V480H10V200H-10ZM-10 480C-10 496.585 3.41465 510 20 510V490C14.4603 490 10 485.54 10 480H-10ZM20 510H230V490H20V510ZM230 510C246.585 510 260 496.585 260 480H240C240 485.54 235.54 490 230 490V510ZM260 480V470H240V480H260ZM250 480H480V460H250V480ZM480 480C496.585 480 510 466.585 510 450H490C490 455.54 485.54 460 480 460V480ZM510 450V55H490V450H510ZM510 55C510 38.4147 496.585 25 480 25V45C485.54 45 490 49.4603 490 55H510ZM222.5 85H267.5V65H222.5V85ZM277.5 75V40H257.5V75H277.5ZM267.5 50H307.5V30H267.5V50ZM297.5 40V75H317.5V40H297.5ZM307.5 85H352.5V65H307.5V85ZM342.5 75V105H362.5V75H342.5ZM352.5 95H222.5V115H352.5V95ZM232.5 105V75H212.5V105H232.5ZM210 450H40V470H210V450ZM50 460V315H30V460H50ZM40 325H210V305H40V325ZM200 315V460H220V315H200ZM210 265H40V285H210V265ZM50 275V220H30V275H50ZM40 230H210V210H40V230ZM200 220V275H220V220H200ZM455 415H250V435H455V415ZM260 425V200H240V425H260ZM260 200C260 183.415 246.585 170 230 170V190C235.54 190 240 194.46 240 200H260ZM230 170H120V190H230V170ZM130 180V80H110V180H130ZM120 90H182.5V70H120V90ZM172.5 80V145H192.5V80H172.5ZM182.5 155H392.5V135H182.5V155ZM402.5 145V80H382.5V145H402.5ZM392.5 90H455V70H392.5V90ZM445 80V425H465V80H445ZM360 185V245H380V185H360ZM360 245C360 253.273 366.727 260 375 260V240C377.773 240 380 242.227 380 245H360ZM375 260H405V240H375V260ZM405 260C413.273 260 420 253.273 420 245H400C400 242.227 402.227 240 405 240V260ZM420 245V185H400V245H420ZM420 185C420 176.727 413.273 170 405 170V190C402.227 190 400 187.773 400 185H420ZM405 170H375V190H405V170ZM375 170C366.727 170 360 176.727 360 185H380C380 187.773 377.773 190 375 190V170ZM300 260H330V240H300V260ZM330 260C338.273 260 345 253.273 345 245H325C325 242.227 327.227 240 330 240V260ZM345 245V210H325V245H345ZM345 210C345 201.727 338.273 195 330 195V215C327.227 215 325 212.773 325 210H345ZM330 195H300V215H330V195ZM300 195C291.727 195 285 201.727 285 210H305C305 212.773 302.773 215 300 215V195ZM285 210V245H305V210H285ZM285 245C285 253.273 291.727 260 300 260V240C302.773 240 305 242.227 305 245H285Z" fill="#910000" mask="url(#path-1-inside-1_1_419)"/>
</svg>
