<svg width="300" height="300" viewBox="0 0 300 300" fill="none" xmlns="http://www.w3.org/2000/svg">
<path d="M75.0003 187.5C71.0221 187.5 67.2067 189.08 64.3937 191.893C61.5807 194.706 60.0003 198.522 60.0003 202.5V229.23C40.6641 207.367 29.9936 179.187 30.0004 150C29.9828 145.588 30.2433 141.179 30.7804 136.8C31.0666 134.822 30.9543 132.806 30.4503 130.871C29.9462 128.936 29.0604 127.122 27.8451 125.535C26.6297 123.947 25.1093 122.619 23.3731 121.627C21.637 120.636 19.7202 120.001 17.7354 119.762C15.7506 119.522 13.7378 119.681 11.8154 120.23C9.89306 120.779 8.09983 121.707 6.54116 122.959C4.9825 124.211 3.68985 125.762 2.7392 127.521C1.78855 129.279 1.19909 131.21 1.00546 133.2C0.321383 138.774 -0.0142685 144.385 0.000464645 150C0.0155989 185.794 12.881 220.392 36.2554 247.5H15.0004C11.0222 247.5 7.20689 249.08 4.39385 251.893C1.58081 254.706 0.000464645 258.521 0.000464645 262.5C0.000464645 266.478 1.58081 270.293 4.39385 273.106C7.20689 275.919 11.0222 277.5 15.0004 277.5H75.0003C77.3466 277.472 79.6521 276.882 81.7241 275.781C83.7961 274.68 85.5744 273.099 86.9103 271.17L87.4653 270.525C87.5703 270.375 87.5703 270.195 87.6603 270.045C88.3684 268.835 88.9036 267.533 89.2503 266.175C89.4722 265.409 89.6327 264.626 89.7303 263.835C89.7753 263.385 90.0003 262.98 90.0003 262.5V202.5C90.0003 198.522 88.4199 194.706 85.6069 191.893C82.7938 189.08 78.9785 187.5 75.0003 187.5ZM97.5002 60.0006H70.7553C92.6216 40.661 120.808 29.9903 150 30.0007C154.412 29.9881 158.821 30.2536 163.2 30.7957C167.152 31.2731 171.133 30.1608 174.265 27.7037C177.397 25.2465 179.425 21.6456 179.903 17.6933C180.38 13.7409 179.268 9.76075 176.811 6.62843C174.353 3.49612 170.752 1.46821 166.8 0.990827C161.226 0.311763 155.615 -0.018878 150 0.000831647C114.206 0.0159659 79.6079 12.8813 52.5003 36.2557V15.0008C52.5003 11.0225 50.92 7.20724 48.107 4.39421C45.2939 1.58118 41.4786 0.000831647 37.5004 0.000831647C33.5221 0.000831647 29.7068 1.58118 26.8938 4.39421C24.0808 7.20724 22.5004 11.0225 22.5004 15.0008V75.0005C22.5977 75.9925 22.7937 76.9724 23.0854 77.9255C23.4581 79.773 24.1756 81.5337 25.2004 83.1155L25.3804 83.3705C26.3764 84.8041 27.615 86.0528 29.0404 87.0605C29.2054 87.1805 29.2954 87.3605 29.4604 87.4805C29.6704 87.6304 29.9104 87.6754 30.1354 87.7954C30.9913 88.304 31.8958 88.7261 32.8354 89.0554C34.0991 89.4938 35.4158 89.7612 36.7504 89.8504C37.0204 89.8504 37.2304 90.0004 37.5004 90.0004H97.5002C101.478 90.0004 105.294 88.4201 108.107 85.6071C110.92 82.794 112.5 78.9787 112.5 75.0005C112.5 71.0223 110.92 67.207 108.107 64.394C105.294 61.5809 101.478 60.0006 97.5002 60.0006ZM276.9 222.06C276.525 220.218 275.808 218.462 274.785 216.885L274.62 216.63C273.619 215.195 272.376 213.946 270.945 212.94C270.78 212.82 270.705 212.64 270.525 212.52C270.375 212.415 270.18 212.415 270.015 212.31C268.105 211.263 266.021 210.572 263.865 210.27C263.385 210.225 262.98 210 262.5 210H202.5C198.522 210 194.706 211.58 191.893 214.393C189.08 217.206 187.5 221.022 187.5 225C187.5 228.978 189.08 232.793 191.893 235.606C194.706 238.419 198.522 240 202.5 240H229.23C207.367 259.336 179.187 270.006 150 270C145.587 270.007 141.179 269.737 136.8 269.19C132.848 268.712 128.868 269.824 125.735 272.282C122.603 274.739 120.575 278.34 120.098 282.292C119.62 286.244 120.733 290.225 123.19 293.357C125.647 296.489 129.248 298.517 133.2 298.995C138.774 299.679 144.385 300.014 150 300C185.794 299.984 220.392 287.119 247.5 263.745V285C247.5 288.978 249.08 292.793 251.893 295.606C254.706 298.419 258.522 300 262.5 300C266.478 300 270.293 298.419 273.106 295.606C275.919 292.793 277.5 288.978 277.5 285V225C277.398 224.007 277.197 223.012 276.9 222.06ZM285 52.5006C288.978 52.5006 292.793 50.9203 295.606 48.1072C298.419 45.2942 300 41.4789 300 37.5007C300 33.5224 298.419 29.7071 295.606 26.8941C292.793 24.0811 288.978 22.5007 285 22.5007H225C224.023 22.601 223.058 22.7969 222.12 23.0857L222.015 23.1007C220.2 23.4795 218.471 24.1915 216.915 25.2007L216.615 25.3957C215.187 26.3931 213.943 27.6316 212.94 29.0557C212.82 29.2057 212.64 29.2957 212.52 29.4607C212.415 29.6107 212.415 29.8057 212.31 29.9707C211.258 31.8942 210.567 33.9937 210.27 36.1657C210.225 36.6157 210 37.0207 210 37.5007V97.5004C210 101.479 211.58 105.294 214.393 108.107C217.206 110.92 221.022 112.5 225 112.5C228.978 112.5 232.793 110.92 235.607 108.107C238.42 105.294 240 101.479 240 97.5004V70.7555C259.327 92.6291 269.996 120.811 270 150C270.012 154.412 269.747 158.821 269.205 163.2C268.726 167.148 269.835 171.125 272.288 174.256C274.741 177.386 278.337 179.415 282.285 179.895C282.892 179.967 283.503 180.002 284.115 180C287.777 179.994 291.31 178.648 294.048 176.216C296.786 173.785 298.54 170.436 298.98 166.8C299.669 161.227 300.01 155.616 300 150C299.985 114.207 287.119 79.6081 263.745 52.5006H285Z" fill="#910000"/>
</svg>
