<svg width="1760" height="2089" viewBox="0 0 1760 2089" fill="none" xmlns="http://www.w3.org/2000/svg">
<path d="M926.126 2070.03L926.761 2069.77L926.771 2069.79L926.986 2069.69L927.127 2069.62L929.104 2068.81L935.728 2066.12L935.682 2066.01L936.265 2065.77L936.301 2065.75L936.336 2065.74C975.336 2048.8 1013.85 2030.86 1051.83 2011.93C1146.28 1964.97 1237.3 1912 1324.3 1853.39L1324.32 1853.38L1324.34 1853.36C1423.44 1785.87 1527.39 1701.84 1607.57 1603.58C1687.51 1505.76 1750 1385.76 1750 1249.43V327.341C1750 311.455 1746.49 295.763 1739.7 281.293C1732.92 266.825 1723.03 253.92 1710.71 243.403C1698.38 232.887 1683.9 224.99 1668.22 220.201C1652.54 215.412 1635.98 213.831 1619.63 215.556L1619.62 215.558C1550.35 222.937 1428.28 223.168 1300.11 197.965C1170.98 172.539 1048.05 123.911 962.902 42.7583L962.901 42.7572C940.833 21.7321 911.006 10 880 10C848.994 10 819.167 21.7321 797.099 42.7572L797.098 42.7583C711.948 123.911 589.017 172.539 459.893 197.965C331.724 223.168 209.648 222.937 140.384 215.558L140.374 215.556C124.02 213.831 107.465 215.412 91.7809 220.201C76.0965 224.99 61.6158 232.887 49.2941 243.403C36.9711 253.92 27.0805 266.825 20.2975 281.293C13.5138 295.763 9.99896 311.455 10 327.341C10 327.341 10 327.341 10 327.341V1249.43C10 1385.77 72.4978 1505.66 152.433 1603.58L152.435 1603.59C232.609 1701.74 336.556 1785.86 435.663 1853.36L435.684 1853.38L435.704 1853.39C559.87 1937.06 692.175 2009.17 830.795 2068.72L830.818 2068.73L830.841 2068.74L832.574 2069.48L833.023 2069.69L835.063 2070.66H835.719C849.772 2076.15 864.802 2078.98 879.977 2079C895.826 2079.02 911.525 2075.97 926.126 2070.03Z" stroke="#910000" stroke-width="20"/>
</svg>
